STARTFONT 2.2
FONT -FontForge-SimSun-Book-R-Normal--14-100-100-100-P-139-ISO10646-1
SIZE 10 100 100
FONTBOUNDINGBOX 14 15 0 -2
METRICSSET 2
SWIDTH 1000 0
DWIDTH 14 0
SWIDTH1 1000 0
DWIDTH1 14 0
VVECTOR 7,11
COMMENT "Generated by fontforge, http://fontforge.sourceforge.net"
COMMENT "(c) Copyright ZHONGYI Electronic Co. 2001"
STARTPROPERTIES 37
FOUNDRY "FontForge"
FAMILY_NAME "SimSun"
WEIGHT_NAME "Book"
SLANT "R"
SETWIDTH_NAME "Normal"
ADD_STYLE_NAME ""
PIXEL_SIZE 14
POINT_SIZE 100
RESOLUTION_X 100
RESOLUTION_Y 100
SPACING "P"
AVERAGE_WIDTH 139
CHARSET_REGISTRY "ISO10646"
CHARSET_ENCODING "1"
FONTNAME_REGISTRY ""
CHARSET_COLLECTIONS "ASCII ISOLatin1Encoding ISO8859-5 JISX0208.1997 GB2312.1980 BIG5 ISO10646-1"
FONT_NAME "SimSun"
FACE_NAME "SimSun"
COPYRIGHT "(c) Copyright ZHONGYI Electronic Co. 2001"
FONT_VERSION "5.15"
FONT_ASCENT 11
FONT_DESCENT 3
UNDERLINE_POSITION -2
UNDERLINE_THICKNESS 1
RAW_ASCENT 859
RAW_DESCENT 140
RELATIVE_WEIGHT 40
RELATIVE_SETWIDTH 50
SUPERSCRIPT_X 0
SUPERSCRIPT_Y 7
SUPERSCRIPT_SIZE 7
SUBSCRIPT_X 0
SUBSCRIPT_Y 0
SUBSCRIPT_SIZE 7
FIGURE_WIDTH -1
AVG_LOWERCASE_WIDTH 120
AVG_UPPERCASE_WIDTH 140
ENDPROPERTIES
CHARS 28428
STARTCHAR currency
ENCODING 164
BBX 12 12 1 -1
BITMAP
8010
4F20
30C0
2040
4020
4020
4020
4020
2040
30C0
4F20
8010
ENDCHAR
STARTCHAR section
ENCODING 167
BBX 8 14 2 -2
BITMAP
3E
41
40
20
1C
22
41
41
22
1C
02
81
41
3E
ENDCHAR
STARTCHAR dieresis
ENCODING 168
BBX 7 2 3 8
BITMAP
C6
C6
ENDCHAR
STARTCHAR degree
ENCODING 176
BBX 4 4 2 7
BITMAP
60
90
90
60
ENDCHAR
STARTCHAR plusminus
ENCODING 177
BBX 9 9 2 1
BITMAP
0800
0800
0800
FF80
0800
0800
0800
0000
FF80
ENDCHAR
STARTCHAR periodcentered
ENCODING 183
BBX 2 2 6 4
BITMAP
C0
C0
ENDCHAR
STARTCHAR multiply
ENCODING 215
BBX 9 9 2 1
BITMAP
8080
4100
2200
1400
0800
1400
2200
4100
8080
ENDCHAR
STARTCHAR agrave
ENCODING 224
SWIDTH 500 0
DWIDTH 7 0
BBX 6 11 0 1
BITMAP
40
20
10
00
68
98
88
88
88
98
64
ENDCHAR
STARTCHAR aacute
ENCODING 225
SWIDTH 500 0
DWIDTH 7 0
BBX 6 11 0 1
BITMAP
08
10
20
00
68
98
88
88
88
98
64
ENDCHAR
STARTCHAR egrave
ENCODING 232
SWIDTH 500 0
DWIDTH 7 0
BBX 5 11 1 1
BITMAP
40
20
10
00
70
88
88
F8
80
88
70
ENDCHAR
STARTCHAR eacute
ENCODING 233
SWIDTH 500 0
DWIDTH 7 0
BBX 5 11 1 1
BITMAP
10
20
40
00
70
88
88
F8
80
88
70
ENDCHAR
STARTCHAR ecircumflex
ENCODING 234
SWIDTH 500 0
DWIDTH 7 0
BBX 5 11 1 1
BITMAP
20
50
88
00
70
88
88
F8
80
88
70
ENDCHAR
STARTCHAR igrave
ENCODING 236
SWIDTH 500 0
DWIDTH 7 0
BBX 3 11 2 1
BITMAP
80
40
20
00
40
40
40
40
40
40
40
ENDCHAR
STARTCHAR iacute
ENCODING 237
SWIDTH 500 0
DWIDTH 7 0
BBX 3 11 2 1
BITMAP
20
40
80
00
40
40
40
40
40
40
40
ENDCHAR
STARTCHAR ograve
ENCODING 242
SWIDTH 500 0
DWIDTH 7 0
BBX 5 11 1 1
BITMAP
10
20
40
00
70
88
88
88
88
88
70
ENDCHAR
STARTCHAR oacute
ENCODING 243
SWIDTH 500 0
DWIDTH 7 0
BBX 5 11 1 1
BITMAP
40
20
10
00
70
88
88
88
88
88
70
ENDCHAR
STARTCHAR divide
ENCODING 247
BBX 10 9 1 1
BITMAP
0C00
0C00
0000
0000
FFC0
0000
0000
0C00
0C00
ENDCHAR
STARTCHAR ugrave
ENCODING 249
SWIDTH 500 0
DWIDTH 7 0
BBX 5 11 1 1
BITMAP
40
20
10
00
88
88
88
88
88
98
68
ENDCHAR
STARTCHAR uacute
ENCODING 250
SWIDTH 500 0
DWIDTH 7 0
BBX 5 11 1 1
BITMAP
10
20
40
00
88
88
88
88
88
98
68
ENDCHAR
STARTCHAR udieresis
ENCODING 252
SWIDTH 500 0
DWIDTH 7 0
BBX 5 8 1 1
BITMAP
88
00
88
88
88
88
98
68
ENDCHAR
STARTCHAR amacron
ENCODING 257
SWIDTH 500 0
DWIDTH 7 0
BBX 6 10 0 1
BITMAP
78
00
00
68
98
88
88
88
98
64
ENDCHAR
STARTCHAR emacron
ENCODING 275
SWIDTH 500 0
DWIDTH 7 0
BBX 5 10 1 1
BITMAP
70
00
00
70
88
88
F8
80
88
70
ENDCHAR
STARTCHAR ecaron
ENCODING 283
SWIDTH 500 0
DWIDTH 7 0
BBX 5 11 1 1
BITMAP
88
50
20
00
70
88
88
F8
80
88
70
ENDCHAR
STARTCHAR imacron
ENCODING 299
SWIDTH 500 0
DWIDTH 7 0
BBX 3 10 2 1
BITMAP
E0
00
00
40
40
40
40
40
40
40
ENDCHAR
STARTCHAR nacute
ENCODING 324
SWIDTH 500 0
DWIDTH 7 0
BBX 6 11 0 1
BITMAP
08
10
20
00
B8
44
44
44
44
44
44
ENDCHAR
STARTCHAR ncaron
ENCODING 328
SWIDTH 500 0
DWIDTH 7 0
BBX 6 11 0 1
BITMAP
44
28
10
00
B8
44
44
44
44
44
44
ENDCHAR
STARTCHAR omacron
ENCODING 333
SWIDTH 500 0
DWIDTH 7 0
BBX 5 10 1 1
BITMAP
70
00
00
70
88
88
88
88
88
70
ENDCHAR
STARTCHAR umacron
ENCODING 363
SWIDTH 500 0
DWIDTH 7 0
BBX 5 10 1 1
BITMAP
70
00
00
88
88
88
88
88
98
68
ENDCHAR
STARTCHAR uni01CE
ENCODING 462
SWIDTH 500 0
DWIDTH 7 0
BBX 6 11 0 1
BITMAP
88
50
20
00
68
98
88
88
88
98
64
ENDCHAR
STARTCHAR uni01D0
ENCODING 464
SWIDTH 500 0
DWIDTH 7 0
BBX 5 11 1 1
BITMAP
88
50
20
00
20
20
20
20
20
20
20
ENDCHAR
STARTCHAR uni01D2
ENCODING 466
SWIDTH 500 0
DWIDTH 7 0
BBX 5 11 1 1
BITMAP
88
50
20
00
70
88
88
88
88
88
70
ENDCHAR
STARTCHAR uni01D4
ENCODING 468
SWIDTH 500 0
DWIDTH 7 0
BBX 5 11 1 1
BITMAP
88
50
20
00
88
88
88
88
88
98
68
ENDCHAR
STARTCHAR uni01D6
ENCODING 470
SWIDTH 500 0
DWIDTH 7 0
BBX 5 10 1 1
BITMAP
70
00
88
00
88
88
88
88
98
68
ENDCHAR
STARTCHAR uni01D8
ENCODING 472
SWIDTH 500 0
DWIDTH 7 0
BBX 5 11 1 1
BITMAP
10
20
00
88
00
88
88
88
88
98
68
ENDCHAR
STARTCHAR uni01DA
ENCODING 474
SWIDTH 500 0
DWIDTH 7 0
BBX 5 11 1 1
BITMAP
50
20
00
88
00
88
88
88
88
98
68
ENDCHAR
STARTCHAR uni01DC
ENCODING 476
SWIDTH 500 0
DWIDTH 7 0
BBX 5 11 1 1
BITMAP
40
20
00
88
00
88
88
88
88
98
68
ENDCHAR
STARTCHAR uni01F9
ENCODING 505
SWIDTH 500 0
DWIDTH 7 0
BBX 6 11 0 1
BITMAP
20
10
08
00
B8
44
44
44
44
44
44
ENDCHAR
STARTCHAR uni0251
ENCODING 593
SWIDTH 500 0
DWIDTH 7 0
BBX 6 7 0 1
BITMAP
68
98
88
88
88
98
64
ENDCHAR
STARTCHAR uni0261
ENCODING 609
SWIDTH 500 0
DWIDTH 7 0
BBX 6 10 0 1
BITMAP
34
48
48
30
40
38
44
84
84
78
ENDCHAR
STARTCHAR caron
ENCODING 711
BBX 7 4 3 7
BITMAP
82
44
28
10
ENDCHAR
STARTCHAR uni02C9
ENCODING 713
BBX 7 1 3 8
BITMAP
FE
ENDCHAR
STARTCHAR uni02CA
ENCODING 714
BBX 4 5 2 6
BITMAP
20
30
60
40
80
ENDCHAR
STARTCHAR uni02CB
ENCODING 715
BBX 4 5 7 6
BITMAP
40
C0
60
20
10
ENDCHAR
STARTCHAR dotaccent
ENCODING 729
BBX 2 2 6 5
BITMAP
C0
C0
ENDCHAR
STARTCHAR Alpha
ENCODING 913
BBX 13 11 0 0
BITMAP
0200
0500
0500
0880
0880
1040
1FC0
2020
2020
4010
E038
ENDCHAR
STARTCHAR Beta
ENCODING 914
BBX 10 11 1 0
BITMAP
FF00
4080
4040
4040
4080
7F00
4080
4040
4040
4040
FF80
ENDCHAR
STARTCHAR Gamma
ENCODING 915
BBX 10 11 1 0
BITMAP
FFC0
4040
4000
4000
4000
4000
4000
4000
4000
4000
E000
ENDCHAR
STARTCHAR uni0394
ENCODING 916
BBX 13 11 0 0
BITMAP
0200
0500
0500
0880
0880
1040
1040
2020
2020
4010
FFF8
ENDCHAR
STARTCHAR Epsilon
ENCODING 917
BBX 10 11 1 0
BITMAP
FFC0
4040
4040
4000
4200
7E00
4200
4000
4040
4040
FFC0
ENDCHAR
STARTCHAR Zeta
ENCODING 918
BBX 9 11 2 0
BITMAP
FF80
8080
0100
0200
0400
0800
1000
2000
4000
8080
FF80
ENDCHAR
STARTCHAR Eta
ENCODING 919
BBX 11 11 1 0
BITMAP
E0E0
4040
4040
4040
4040
7FC0
4040
4040
4040
4040
E0E0
ENDCHAR
STARTCHAR Theta
ENCODING 920
BBX 10 11 2 0
BITMAP
3F00
4080
8040
8040
A140
BF40
A140
8040
8040
4080
3F00
ENDCHAR
STARTCHAR Iota
ENCODING 921
BBX 5 11 4 0
BITMAP
F8
20
20
20
20
20
20
20
20
20
F8
ENDCHAR
STARTCHAR Kappa
ENCODING 922
BBX 10 11 1 0
BITMAP
E380
4200
4400
4800
5000
7000
4800
4400
4200
4100
E1C0
ENDCHAR
STARTCHAR Lambda
ENCODING 923
BBX 13 11 0 0
BITMAP
0200
0500
0500
0880
0880
1040
1040
2020
2020
4010
E038
ENDCHAR
STARTCHAR Mu
ENCODING 924
BBX 11 11 1 0
BITMAP
C060
60C0
5140
5140
4A40
4A40
4440
4440
4040
4040
E0E0
ENDCHAR
STARTCHAR Nu
ENCODING 925
BBX 11 11 1 0
BITMAP
C0E0
6040
5040
4840
4840
4440
4240
4240
4140
40C0
E040
ENDCHAR
STARTCHAR Xi
ENCODING 926
BBX 11 11 1 0
BITMAP
FFE0
8020
8020
0000
2080
3F80
2080
0000
8020
8020
FFE0
ENDCHAR
STARTCHAR Omicron
ENCODING 927
BBX 10 11 2 0
BITMAP
3F00
4080
8040
8040
8040
8040
8040
8040
8040
4080
3F00
ENDCHAR
STARTCHAR Pi
ENCODING 928
BBX 11 11 1 0
BITMAP
FFE0
4040
4040
4040
4040
4040
4040
4040
4040
4040
E0E0
ENDCHAR
STARTCHAR Rho
ENCODING 929
BBX 10 11 1 0
BITMAP
FF00
4080
4040
4040
4080
7F00
4000
4000
4000
4000
E000
ENDCHAR
STARTCHAR Sigma
ENCODING 931
BBX 10 11 1 0
BITMAP
FFC0
4040
2040
1000
0800
0400
0800
1000
2040
4040
FFC0
ENDCHAR
STARTCHAR Tau
ENCODING 932
BBX 11 11 1 0
BITMAP
FFE0
8420
0400
0400
0400
0400
0400
0400
0400
0400
0E00
ENDCHAR
STARTCHAR Upsilon
ENCODING 933
BBX 7 11 3 0
BITMAP
04
6A
90
10
10
10
10
10
10
10
38
ENDCHAR
STARTCHAR Phi
ENCODING 934
BBX 11 11 1 0
BITMAP
0E00
0400
3F80
4440
8420
8420
8420
4440
3F80
0400
0E00
ENDCHAR
STARTCHAR Chi
ENCODING 935
BBX 11 11 1 0
BITMAP
E0E0
4040
2080
1100
0A00
0400
0A00
1100
2080
4040
E0E0
ENDCHAR
STARTCHAR Psi
ENCODING 936
BBX 13 11 0 0
BITMAP
8708
4210
2220
2220
2220
2220
1FC0
0200
0200
0200
0700
ENDCHAR
STARTCHAR uni03A9
ENCODING 937
BBX 11 11 1 0
BITMAP
1F00
2080
4040
8020
8020
8020
8020
4040
2080
9120
F1E0
ENDCHAR
STARTCHAR alpha
ENCODING 945
BBX 9 9 2 1
BITMAP
3A00
4600
8200
8200
8200
8200
8200
4680
3900
ENDCHAR
STARTCHAR beta
ENCODING 946
BBX 7 14 3 -2
BITMAP
78
84
84
88
F0
8C
82
82
82
C4
B8
80
80
80
ENDCHAR
STARTCHAR gamma
ENCODING 947
BBX 10 11 1 -1
BITMAP
3040
4880
8880
0500
0500
0600
0600
0400
0400
0400
0400
ENDCHAR
STARTCHAR delta
ENCODING 948
BBX 7 11 3 1
BITMAP
38
44
20
10
28
44
82
82
82
44
38
ENDCHAR
STARTCHAR epsilon
ENCODING 949
BBX 6 10 4 1
BITMAP
70
88
80
40
30
40
80
84
88
70
ENDCHAR
STARTCHAR zeta
ENCODING 950
BBX 7 14 3 -2
BITMAP
20
44
4C
30
20
40
80
80
80
40
3C
02
02
3C
ENDCHAR
STARTCHAR eta
ENCODING 951
BBX 8 11 2 -1
BITMAP
0E
51
A1
21
21
21
21
21
01
01
01
ENDCHAR
STARTCHAR theta
ENCODING 952
BBX 7 11 3 1
BITMAP
38
44
82
82
82
FE
82
82
82
44
38
ENDCHAR
STARTCHAR iota
ENCODING 953
BBX 4 9 5 1
BITMAP
C0
40
40
40
40
40
40
50
60
ENDCHAR
STARTCHAR kappa
ENCODING 954
BBX 9 9 2 1
BITMAP
C180
4200
4400
6800
5000
4800
4400
4200
E380
ENDCHAR
STARTCHAR lambda
ENCODING 955
BBX 8 11 3 1
BITMAP
40
A0
20
10
10
30
28
28
45
45
82
ENDCHAR
STARTCHAR uni03BC
ENCODING 956
BBX 8 11 3 -1
BITMAP
84
84
84
84
84
84
CD
B2
80
80
80
ENDCHAR
STARTCHAR nu
ENCODING 957
BBX 9 9 2 1
BITMAP
C100
4080
2100
2100
2100
1200
1200
1400
0800
ENDCHAR
STARTCHAR xi
ENCODING 958
BBX 7 14 3 -2
BITMAP
30
40
3C
40
40
3C
40
80
80
80
7C
02
22
1C
ENDCHAR
STARTCHAR omicron
ENCODING 959
BBX 7 9 3 1
BITMAP
38
44
82
82
82
82
82
44
38
ENDCHAR
STARTCHAR pi
ENCODING 960
BBX 11 9 1 1
BITMAP
7FE0
9100
1100
1100
1100
1100
1100
2140
4080
ENDCHAR
STARTCHAR rho
ENCODING 961
BBX 7 11 3 -1
BITMAP
38
44
82
82
82
C2
A4
98
80
80
80
ENDCHAR
STARTCHAR sigma
ENCODING 963
BBX 8 9 3 1
BITMAP
3F
44
82
82
82
82
82
44
38
ENDCHAR
STARTCHAR tau
ENCODING 964
BBX 6 9 3 1
BITMAP
7C
90
10
10
10
10
10
14
08
ENDCHAR
STARTCHAR upsilon
ENCODING 965
BBX 8 9 2 1
BITMAP
42
A1
21
21
21
21
21
21
1E
ENDCHAR
STARTCHAR phi
ENCODING 966
BBX 9 13 2 -1
BITMAP
0800
0800
3E00
4900
8880
8880
8880
8880
4900
3E00
0800
0800
0800
ENDCHAR
STARTCHAR chi
ENCODING 967
BBX 9 11 2 1
BITMAP
4080
A100
2100
1200
1400
0800
1400
2400
4200
4280
8100
ENDCHAR
STARTCHAR psi
ENCODING 968
BBX 9 13 1 -1
BITMAP
0400
0400
4500
A480
2480
2480
2480
2480
2480
1F00
0400
0400
0400
ENDCHAR
STARTCHAR omega
ENCODING 969
BBX 9 9 2 1
BITMAP
2200
4100
8880
8880
8880
8880
8880
5500
2200
ENDCHAR
STARTCHAR uni0401
ENCODING 1025
BBX 10 12 1 0
BITMAP
1100
0000
FFC0
4040
4040
4100
7F00
4100
4000
4040
4040
FFC0
ENDCHAR
STARTCHAR uni0410
ENCODING 1040
BBX 13 11 0 0
BITMAP
0200
0500
0500
0880
0880
1040
1FC0
2020
2020
4010
E038
ENDCHAR
STARTCHAR uni0411
ENCODING 1041
BBX 10 11 1 0
BITMAP
FFC0
4040
4000
4000
4000
7F00
4080
4040
4040
4080
FF00
ENDCHAR
STARTCHAR uni0412
ENCODING 1042
BBX 10 11 1 0
BITMAP
FF00
4080
4040
4040
4080
7F00
4080
4040
4040
4040
FF80
ENDCHAR
STARTCHAR uni0413
ENCODING 1043
BBX 10 11 1 0
BITMAP
FFC0
4040
4000
4000
4000
4000
4000
4000
4000
4000
E000
ENDCHAR
STARTCHAR uni0414
ENCODING 1044
BBX 11 12 1 -1
BITMAP
3FC0
0880
0880
0880
0880
1080
1080
2080
4080
7FC0
8020
8020
ENDCHAR
STARTCHAR uni0415
ENCODING 1045
BBX 10 11 1 0
BITMAP
FFC0
4040
4000
4000
4100
7F00
4100
4000
4040
4040
FFC0
ENDCHAR
STARTCHAR uni0416
ENCODING 1046
BBX 13 11 0 0
BITMAP
4710
A228
1240
1240
0A80
0700
0A80
1240
2220
2220
C718
ENDCHAR
STARTCHAR uni0417
ENCODING 1047
BBX 9 11 2 0
BITMAP
5E00
6100
4080
0080
0100
0E00
0100
8080
8080
4100
3E00
ENDCHAR
STARTCHAR uni0418
ENCODING 1048
BBX 11 11 1 0
BITMAP
E060
40C0
4140
4240
4240
4440
4840
4840
5040
6040
C0E0
ENDCHAR
STARTCHAR uni0419
ENCODING 1049
BBX 11 12 1 0
BITMAP
0900
0900
E660
40C0
4140
4240
4440
4440
4840
5040
6040
C0E0
ENDCHAR
STARTCHAR uni041A
ENCODING 1050
BBX 10 11 1 0
BITMAP
E180
4240
4400
4400
4800
7800
4400
4200
4100
4100
E0C0
ENDCHAR
STARTCHAR uni041B
ENCODING 1051
BBX 11 11 1 0
BITMAP
7FE0
2040
2040
2040
2040
2040
2040
2040
2040
A040
40E0
ENDCHAR
STARTCHAR uni041C
ENCODING 1052
BBX 11 11 1 0
BITMAP
C0E0
60C0
5140
5140
4A40
4A40
4440
4440
4040
4040
E0E0
ENDCHAR
STARTCHAR uni041D
ENCODING 1053
BBX 11 11 1 0
BITMAP
E0E0
4040
4040
4040
4040
7FC0
4040
4040
4040
4040
E0E0
ENDCHAR
STARTCHAR uni041E
ENCODING 1054
BBX 10 11 2 0
BITMAP
3F00
4080
8040
8040
8040
8040
8040
8040
8040
4080
3F00
ENDCHAR
STARTCHAR uni041F
ENCODING 1055
BBX 11 11 1 0
BITMAP
FFE0
4040
4040
4040
4040
4040
4040
4040
4040
4040
E0E0
ENDCHAR
STARTCHAR uni0420
ENCODING 1056
BBX 10 11 1 0
BITMAP
FF00
4080
4040
4040
4080
7F00
4000
4000
4000
4000
E000
ENDCHAR
STARTCHAR uni0421
ENCODING 1057
BBX 10 11 2 0
BITMAP
3F40
40C0
8040
8040
8000
8000
8000
8000
8040
4080
3F00
ENDCHAR
STARTCHAR uni0422
ENCODING 1058
BBX 11 11 1 0
BITMAP
FFE0
8420
0400
0400
0400
0400
0400
0400
0400
0400
0E00
ENDCHAR
STARTCHAR uni0423
ENCODING 1059
BBX 10 11 1 0
BITMAP
71C0
2080
2080
1100
1100
0A00
0A00
0400
0800
9000
6000
ENDCHAR
STARTCHAR uni0424
ENCODING 1060
BBX 11 11 1 0
BITMAP
0E00
0400
3F80
4440
8420
8420
8420
4440
3F80
0400
0E00
ENDCHAR
STARTCHAR uni0425
ENCODING 1061
BBX 11 11 1 0
BITMAP
E0E0
4040
2080
1100
0A00
0400
0A00
1100
2080
4040
E0E0
ENDCHAR
STARTCHAR uni0426
ENCODING 1062
BBX 11 12 1 -1
BITMAP
E1C0
4080
4080
4080
4080
4080
4080
4080
4080
FFC0
0020
0020
ENDCHAR
STARTCHAR uni0427
ENCODING 1063
BBX 10 11 1 0
BITMAP
E1C0
4080
4080
4080
4080
2180
1E80
0080
0080
0080
01C0
ENDCHAR
STARTCHAR uni0428
ENCODING 1064
BBX 11 11 1 0
BITMAP
EEE0
4440
4440
4440
4440
4440
4440
4440
4440
4440
FFE0
ENDCHAR
STARTCHAR uni0429
ENCODING 1065
BBX 12 12 1 -1
BITMAP
EEE0
4440
4440
4440
4440
4440
4440
4440
4440
FFE0
0010
0010
ENDCHAR
STARTCHAR uni042A
ENCODING 1066
BBX 11 11 1 0
BITMAP
F800
9000
1000
1000
1F80
1040
1020
1020
1020
1040
3F80
ENDCHAR
STARTCHAR uni042B
ENCODING 1067
BBX 11 11 1 0
BITMAP
E0E0
4040
4040
4040
7840
4440
4240
4240
4240
4440
F8E0
ENDCHAR
STARTCHAR uni042C
ENCODING 1068
BBX 9 11 2 0
BITMAP
E000
4000
4000
4000
7E00
4100
4080
4080
4080
4100
FE00
ENDCHAR
STARTCHAR uni042D
ENCODING 1069
BBX 9 11 2 0
BITMAP
BC00
C200
8100
0080
0080
1F80
0080
0080
8100
4200
3C00
ENDCHAR
STARTCHAR uni042E
ENCODING 1070
BBX 11 11 1 0
BITMAP
E380
4440
4820
4820
4820
7820
4820
4820
4820
4440
E380
ENDCHAR
STARTCHAR uni042F
ENCODING 1071
BBX 11 11 1 0
BITMAP
1FE0
2040
4040
4040
2040
1FC0
0440
0840
1040
2040
C0E0
ENDCHAR
STARTCHAR uni0430
ENCODING 1072
BBX 8 9 3 1
BITMAP
78
84
04
3C
44
84
84
8D
72
ENDCHAR
STARTCHAR uni0431
ENCODING 1073
BBX 7 11 3 1
BITMAP
02
3C
40
80
B8
C4
82
82
82
44
38
ENDCHAR
STARTCHAR uni0432
ENCODING 1074
BBX 7 9 3 1
BITMAP
FC
42
42
42
7C
42
42
42
FC
ENDCHAR
STARTCHAR uni0433
ENCODING 1075
BBX 8 9 2 1
BITMAP
FF
41
40
40
40
40
40
40
E0
ENDCHAR
STARTCHAR uni0434
ENCODING 1076
BBX 9 10 2 0
BITMAP
3F80
1100
1100
1100
1100
2100
2100
4100
FF80
8080
ENDCHAR
STARTCHAR uni0435
ENCODING 1077
BBX 7 9 3 1
BITMAP
38
44
82
82
FE
80
80
42
3C
ENDCHAR
STARTCHAR uni0436
ENCODING 1078
BBX 11 9 1 1
BITMAP
CE60
2480
2480
1500
1F00
2480
2480
4440
8E20
ENDCHAR
STARTCHAR uni0437
ENCODING 1079
BBX 7 9 3 1
BITMAP
BC
C2
82
02
1C
02
02
82
7C
ENDCHAR
STARTCHAR uni0438
ENCODING 1080
BBX 10 9 1 1
BITMAP
E1C0
4080
4180
4280
4480
4880
5080
6080
C1C0
ENDCHAR
STARTCHAR uni0439
ENCODING 1081
BBX 10 11 1 1
BITMAP
1200
0C00
E1C0
4080
4180
4280
4480
4880
5080
6080
C1C0
ENDCHAR
STARTCHAR uni043A
ENCODING 1082
BBX 9 9 2 1
BITMAP
E300
4400
4400
4800
7000
4800
4400
4480
E300
ENDCHAR
STARTCHAR uni043B
ENCODING 1083
BBX 9 8 2 2
BITMAP
7F80
2100
2100
2100
2100
2100
A100
4380
ENDCHAR
STARTCHAR uni043C
ENCODING 1084
BBX 11 9 1 1
BITMAP
E0E0
60C0
5140
5140
4A40
4A40
4440
4040
E0E0
ENDCHAR
STARTCHAR uni043D
ENCODING 1085
BBX 9 9 2 1
BITMAP
E380
4100
4100
4100
7F00
4100
4100
4100
E380
ENDCHAR
STARTCHAR uni043E
ENCODING 1086
BBX 7 9 3 1
BITMAP
38
44
82
82
82
82
82
44
38
ENDCHAR
STARTCHAR uni043F
ENCODING 1087
BBX 9 9 2 1
BITMAP
FF80
4100
4100
4100
4100
4100
4100
4100
E380
ENDCHAR
STARTCHAR uni0440
ENCODING 1088
BBX 8 12 2 -2
BITMAP
5C
E2
41
41
41
41
62
5C
40
40
40
E0
ENDCHAR
STARTCHAR uni0441
ENCODING 1089
BBX 7 9 3 1
BITMAP
38
44
84
80
80
80
82
44
38
ENDCHAR
STARTCHAR uni0442
ENCODING 1090
BBX 9 9 2 1
BITMAP
FF80
8880
0800
0800
0800
0800
0800
0800
1C00
ENDCHAR
STARTCHAR uni0443
ENCODING 1091
BBX 9 12 2 -2
BITMAP
E380
4100
4100
2200
2200
1400
1400
0800
0800
1000
A000
4000
ENDCHAR
STARTCHAR uni0444
ENCODING 1092
BBX 9 14 2 -2
BITMAP
0800
1800
0800
6B00
9C80
8880
8880
8880
8880
9C80
6B00
0800
0800
1C00
ENDCHAR
STARTCHAR uni0445
ENCODING 1093
BBX 9 9 2 1
BITMAP
E380
4100
2200
1400
0800
1400
2200
4100
E380
ENDCHAR
STARTCHAR uni0446
ENCODING 1094
BBX 10 11 2 -1
BITMAP
E380
4100
4100
4100
4100
4100
4100
4100
FF80
0040
0040
ENDCHAR
STARTCHAR uni0447
ENCODING 1095
BBX 9 9 2 1
BITMAP
F380
4100
4100
4100
3F00
0100
0100
0100
0380
ENDCHAR
STARTCHAR uni0448
ENCODING 1096
BBX 11 9 1 1
BITMAP
EEE0
4440
4440
4440
4440
4440
4440
4440
FFE0
ENDCHAR
STARTCHAR uni0449
ENCODING 1097
BBX 12 11 1 -1
BITMAP
EEE0
4440
4440
4440
4440
4440
4440
4440
FFE0
0010
0010
ENDCHAR
STARTCHAR uni044A
ENCODING 1098
BBX 9 9 2 1
BITMAP
F000
A000
2000
2000
3F00
2080
2080
2080
7F00
ENDCHAR
STARTCHAR uni044B
ENCODING 1099
BBX 11 9 1 1
BITMAP
E0E0
4040
4040
4040
7C40
4240
4240
4240
FCE0
ENDCHAR
STARTCHAR uni044C
ENCODING 1100
BBX 8 9 2 1
BITMAP
E0
40
40
40
7E
41
41
41
FE
ENDCHAR
STARTCHAR uni044D
ENCODING 1101
BBX 7 9 3 1
BITMAP
78
84
02
02
1E
02
82
84
78
ENDCHAR
STARTCHAR uni044E
ENCODING 1102
BBX 10 9 1 1
BITMAP
E300
4480
4840
4840
7840
4840
4840
4480
E300
ENDCHAR
STARTCHAR uni044F
ENCODING 1103
BBX 8 9 3 1
BITMAP
3F
42
42
42
3E
12
22
A2
47
ENDCHAR
STARTCHAR uni0451
ENCODING 1105
BBX 7 11 3 1
BITMAP
44
00
38
44
82
82
FE
80
80
42
3C
ENDCHAR
STARTCHAR uni2010
ENCODING 8208
BBX 8 1 3 6
BITMAP
FF
ENDCHAR
STARTCHAR endash
ENCODING 8211
BBX 7 1 3 6
BITMAP
FE
ENDCHAR
STARTCHAR emdash
ENCODING 8212
BBX 11 1 1 5
BITMAP
FFE0
ENDCHAR
STARTCHAR uni2015
ENCODING 8213
BBX 13 1 0 6
BITMAP
FFF8
ENDCHAR
STARTCHAR uni2016
ENCODING 8214
BBX 4 12 5 -1
BITMAP
90
90
90
90
90
90
90
90
90
90
90
90
ENDCHAR
STARTCHAR quoteleft
ENCODING 8216
BBX 3 5 9 6
BITMAP
20
40
80
C0
C0
ENDCHAR
STARTCHAR quoteright
ENCODING 8217
BBX 3 5 1 6
BITMAP
60
60
20
40
80
ENDCHAR
STARTCHAR quotedblleft
ENCODING 8220
BBX 7 5 5 6
BITMAP
22
44
88
CC
CC
ENDCHAR
STARTCHAR quotedblright
ENCODING 8221
BBX 7 5 1 6
BITMAP
66
66
22
44
88
ENDCHAR
STARTCHAR twodotenleader
ENCODING 8229
BBX 9 2 2 5
BITMAP
C180
C180
ENDCHAR
STARTCHAR ellipsis
ENCODING 8230
BBX 10 2 1 4
BITMAP
CCC0
CCC0
ENDCHAR
STARTCHAR perthousand
ENCODING 8240
BBX 13 13 0 -1
BITMAP
3020
4840
4880
4900
4A00
3400
0800
1630
2948
4948
8948
0948
0630
ENDCHAR
STARTCHAR minute
ENCODING 8242
BBX 3 5 2 6
BITMAP
20
20
40
40
80
ENDCHAR
STARTCHAR second
ENCODING 8243
BBX 6 5 2 6
BITMAP
24
24
48
48
90
ENDCHAR
STARTCHAR uni2035
ENCODING 8245
BBX 2 5 6 6
BITMAP
C0
C0
C0
40
40
ENDCHAR
STARTCHAR uni203B
ENCODING 8251
BBX 12 12 1 -1
BITMAP
8610
4620
2040
1080
0900
C630
C630
0900
1080
2040
4620
8610
ENDCHAR
STARTCHAR Euro
ENCODING 8364
BBX 12 11 0 0
BITMAP
0FD0
1030
2010
2010
FFC0
2000
FF80
2000
2010
1020
0FC0
ENDCHAR
STARTCHAR uni2103
ENCODING 8451
BBX 13 13 0 -1
BITMAP
6000
9000
97E8
6818
1008
1008
1000
1000
1000
1000
1008
0810
07E0
ENDCHAR
STARTCHAR uni2105
ENCODING 8453
BBX 11 10 1 0
BITMAP
0080
7080
8100
8100
8A00
72C0
0520
0520
0920
08C0
ENDCHAR
STARTCHAR uni2109
ENCODING 8457
BBX 12 11 0 0
BITMAP
6FF0
9410
9400
6400
0440
07C0
0440
0400
0400
0400
0E00
ENDCHAR
STARTCHAR uni2116
ENCODING 8470
BBX 13 14 0 -2
BITMAP
C300
4200
6200
6200
5260
5290
5290
4A90
4A90
4A90
4660
4600
42F8
C200
ENDCHAR
STARTCHAR uni2121
ENCODING 8481
BBX 13 5 0 6
BITMAP
FBA0
2220
23A0
2220
23B8
ENDCHAR
STARTCHAR uni2160
ENCODING 8544
BBX 3 11 5 0
BITMAP
E0
40
40
40
40
40
40
40
40
40
E0
ENDCHAR
STARTCHAR uni2161
ENCODING 8545
BBX 7 11 3 0
BITMAP
EE
44
44
44
44
44
44
44
44
44
EE
ENDCHAR
STARTCHAR uni2162
ENCODING 8546
BBX 11 11 1 0
BITMAP
EEE0
4440
4440
4440
4440
4440
4440
4440
4440
4440
EEE0
ENDCHAR
STARTCHAR uni2163
ENCODING 8547
BBX 11 11 1 0
BITMAP
EEE0
4440
4440
4440
4440
4280
4280
4280
4280
4100
E100
ENDCHAR
STARTCHAR uni2164
ENCODING 8548
BBX 11 11 1 0
BITMAP
E0E0
4040
4040
2080
2080
1100
1100
0A00
0A00
0400
0400
ENDCHAR
STARTCHAR uni2165
ENCODING 8549
BBX 11 11 1 0
BITMAP
EEE0
4440
4440
4440
4440
2840
2840
2840
2840
1040
10E0
ENDCHAR
STARTCHAR uni2166
ENCODING 8550
BBX 13 11 0 0
BITMAP
CFF8
4490
4490
4490
4490
2890
2890
2890
2890
1090
11F8
ENDCHAR
STARTCHAR uni2167
ENCODING 8551
BBX 13 11 0 0
BITMAP
CFF8
4550
4550
4550
4550
2950
2950
2950
2950
1150
13F8
ENDCHAR
STARTCHAR uni2168
ENCODING 8552
BBX 11 11 1 0
BITMAP
EEE0
4440
4440
4280
4280
4100
4280
4280
4440
4440
EEE0
ENDCHAR
STARTCHAR uni2169
ENCODING 8553
BBX 11 11 1 0
BITMAP
E0E0
4040
2080
1100
0A00
0400
0A00
1100
2080
4040
E0E0
ENDCHAR
STARTCHAR uni216A
ENCODING 8554
BBX 11 11 1 0
BITMAP
EEE0
4440
4440
2840
2840
1040
2840
2840
4440
4440
EEE0
ENDCHAR
STARTCHAR uni216B
ENCODING 8555
BBX 13 11 0 0
BITMAP
EEF8
4450
4450
2850
2850
1050
2850
2850
4450
4450
EEF8
ENDCHAR
STARTCHAR uni2170
ENCODING 8560
BBX 3 10 5 1
BITMAP
40
00
40
C0
40
40
40
40
40
E0
ENDCHAR
STARTCHAR uni2171
ENCODING 8561
BBX 7 10 3 1
BITMAP
44
00
44
CC
44
44
44
44
44
EE
ENDCHAR
STARTCHAR uni2172
ENCODING 8562
BBX 11 10 1 1
BITMAP
4440
0000
4440
CCC0
4440
4440
4440
4440
4440
EEE0
ENDCHAR
STARTCHAR uni2173
ENCODING 8563
BBX 10 10 2 1
BITMAP
4000
0000
58C0
C880
4880
4500
4500
4500
4200
E200
ENDCHAR
STARTCHAR uni2174
ENCODING 8564
BBX 7 8 3 1
BITMAP
C6
44
44
28
28
28
10
10
ENDCHAR
STARTCHAR uni2175
ENCODING 8565
BBX 11 10 1 1
BITMAP
0040
0000
C640
44C0
4440
2840
2840
2840
1040
10E0
ENDCHAR
STARTCHAR uni2176
ENCODING 8566
BBX 13 10 0 1
BITMAP
0090
0000
C690
45B0
4490
2890
2890
2890
1090
11F8
ENDCHAR
STARTCHAR uni2177
ENCODING 8567
BBX 12 10 0 1
BITMAP
0150
0000
C750
4550
4550
2950
2950
2950
1150
1150
ENDCHAR
STARTCHAR uni2178
ENCODING 8568
BBX 11 10 1 1
BITMAP
4000
0000
4EE0
C440
4280
4100
4100
4280
4440
EEE0
ENDCHAR
STARTCHAR uni2179
ENCODING 8569
BBX 7 8 3 1
BITMAP
EE
44
28
10
10
28
44
EE
ENDCHAR
STARTCHAR arrowleft
ENCODING 8592
BBX 13 5 0 3
BITMAP
0800
3800
FFF8
3800
0800
ENDCHAR
STARTCHAR arrowup
ENCODING 8593
BBX 5 14 4 -2
BITMAP
20
20
70
70
F8
20
20
20
20
20
20
20
20
20
ENDCHAR
STARTCHAR arrowright
ENCODING 8594
BBX 13 5 0 3
BITMAP
0080
00E0
FFF8
00E0
0080
ENDCHAR
STARTCHAR arrowdown
ENCODING 8595
BBX 5 14 4 -2
BITMAP
20
20
20
20
20
20
20
20
20
F8
70
70
20
20
ENDCHAR
STARTCHAR uni2196
ENCODING 8598
BBX 12 12 1 -1
BITMAP
8000
6000
7C00
3000
2800
2400
0200
0100
0080
0040
0020
0010
ENDCHAR
STARTCHAR uni2197
ENCODING 8599
BBX 12 12 1 -1
BITMAP
0010
0060
03E0
00C0
0140
0240
0400
0800
1000
2000
4000
8000
ENDCHAR
STARTCHAR uni2198
ENCODING 8600
BBX 12 12 1 -1
BITMAP
8000
4000
2000
1000
0800
0400
0240
0140
00C0
03E0
0060
0010
ENDCHAR
STARTCHAR uni2199
ENCODING 8601
BBX 12 12 1 -1
BITMAP
0010
0020
0040
0080
0100
0200
2400
2800
3000
7C00
6000
8000
ENDCHAR
STARTCHAR element
ENCODING 8712
BBX 8 13 3 -1
BITMAP
0F
30
40
40
80
80
FF
80
80
40
40
30
0F
ENDCHAR
STARTCHAR product
ENCODING 8719
BBX 11 12 1 -1
BITMAP
FFE0
4040
4040
4040
4040
4040
4040
4040
4040
4040
4040
E0E0
ENDCHAR
STARTCHAR summation
ENCODING 8721
BBX 11 11 1 0
BITMAP
FFE0
4020
2000
1000
0800
0400
0800
1000
2000
4020
FFE0
ENDCHAR
STARTCHAR uni2215
ENCODING 8725
BBX 6 14 3 -2
BITMAP
04
04
08
08
10
10
10
20
20
20
40
40
80
80
ENDCHAR
STARTCHAR radical
ENCODING 8730
BBX 13 13 0 -1
BITMAP
0008
0008
0010
0010
0020
0020
0040
0080
0080
2100
5200
8A00
0400
ENDCHAR
STARTCHAR proportional
ENCODING 8733
BBX 13 6 0 2
BITMAP
3C78
4280
8100
8100
4280
3C78
ENDCHAR
STARTCHAR infinity
ENCODING 8734
BBX 13 6 0 2
BITMAP
38E0
4510
8208
8208
4510
38E0
ENDCHAR
STARTCHAR orthogonal
ENCODING 8735
BBX 11 13 2 -1
BITMAP
8000
8000
8000
8000
8000
8000
8000
8000
8000
8000
8000
8000
FFE0
ENDCHAR
STARTCHAR angle
ENCODING 8736
BBX 12 12 1 -1
BITMAP
0010
0020
0040
0080
0100
0200
0400
0800
1000
2000
4000
FFF0
ENDCHAR
STARTCHAR uni2223
ENCODING 8739
BBX 1 14 6 -2
BITMAP
80
80
80
80
80
80
80
80
80
80
80
80
80
80
ENDCHAR
STARTCHAR uni2225
ENCODING 8741
BBX 7 12 3 -1
BITMAP
22
22
22
22
44
44
44
44
88
88
88
88
ENDCHAR
STARTCHAR logicaland
ENCODING 8743
BBX 11 12 1 -1
BITMAP
0400
0400
0A00
0A00
1100
1100
2080
2080
4040
4040
8020
8020
ENDCHAR
STARTCHAR logicalor
ENCODING 8744
BBX 11 12 1 -1
BITMAP
8020
8020
4040
4040
2080
2080
1100
1100
0A00
0A00
0400
0400
ENDCHAR
STARTCHAR intersection
ENCODING 8745
BBX 11 12 1 -1
BITMAP
1F00
2080
4040
8020
8020
8020
8020
8020
8020
8020
8020
8020
ENDCHAR
STARTCHAR union
ENCODING 8746
BBX 11 12 1 -1
BITMAP
8020
8020
8020
8020
8020
8020
8020
8020
8020
4040
2080
1F00
ENDCHAR
STARTCHAR integral
ENCODING 8747
BBX 7 13 3 -1
BITMAP
0C
12
10
10
10
10
10
10
10
10
10
90
60
ENDCHAR
STARTCHAR uni222E
ENCODING 8750
BBX 7 13 3 -1
BITMAP
0C
12
10
10
7C
92
92
92
7C
10
10
90
60
ENDCHAR
STARTCHAR therefore
ENCODING 8756
BBX 10 10 2 0
BITMAP
0C00
0C00
0000
0000
0000
0000
0000
0000
C0C0
C0C0
ENDCHAR
STARTCHAR uni2235
ENCODING 8757
BBX 10 10 2 0
BITMAP
C0C0
C0C0
0000
0000
0000
0000
0000
0000
0C00
0C00
ENDCHAR
STARTCHAR uni2236
ENCODING 8758
BBX 2 9 4 1
BITMAP
C0
C0
00
00
00
00
00
C0
C0
ENDCHAR
STARTCHAR uni2237
ENCODING 8759
BBX 9 9 2 1
BITMAP
C180
C180
0000
0000
0000
0000
0000
C180
C180
ENDCHAR
STARTCHAR uni223D
ENCODING 8765
BBX 13 6 0 2
BITMAP
30E0
4110
8208
8208
4410
3860
ENDCHAR
STARTCHAR approxequal
ENCODING 8776
BBX 13 6 0 2
BITMAP
3808
4710
80E0
3808
4710
80E0
ENDCHAR
STARTCHAR uni224C
ENCODING 8780
BBX 13 10 0 0
BITMAP
30E0
4110
8208
8208
4410
3860
0000
FFF8
0000
FFF8
ENDCHAR
STARTCHAR uni2252
ENCODING 8786
BBX 13 8 0 1
BITMAP
4000
0000
FFF8
0000
0000
FFF8
0000
0010
ENDCHAR
STARTCHAR notequal
ENCODING 8800
BBX 13 14 0 -2
BITMAP
0080
0080
0100
0100
FFF8
0200
0200
0400
FFF8
0400
0800
0800
1000
1000
ENDCHAR
STARTCHAR equivalence
ENCODING 8801
BBX 11 7 1 1
BITMAP
FFE0
0000
0000
FFE0
0000
0000
FFE0
ENDCHAR
STARTCHAR lessequal
ENCODING 8804
BBX 11 11 1 0
BITMAP
0060
0380
1C00
E000
1C00
0380
0060
E000
1C00
0380
0060
ENDCHAR
STARTCHAR greaterequal
ENCODING 8805
BBX 11 11 1 0
BITMAP
C000
3800
0700
00E0
0700
3800
C000
00E0
0700
3800
C000
ENDCHAR
STARTCHAR uni2266
ENCODING 8806
BBX 11 12 1 -1
BITMAP
0060
0380
1C00
E000
1C00
0380
0060
0000
FFE0
0000
0000
FFE0
ENDCHAR
STARTCHAR uni2267
ENCODING 8807
BBX 11 12 1 -1
BITMAP
E000
1C00
0380
0060
0380
1C00
E000
0000
FFE0
0000
0000
FFE0
ENDCHAR
STARTCHAR uni226E
ENCODING 8814
BBX 12 14 0 -2
BITMAP
0200
0230
02C0
0300
0E00
3200
C200
3200
0E00
0300
02C0
0230
0200
0200
ENDCHAR
STARTCHAR uni226F
ENCODING 8815
BBX 12 14 1 -2
BITMAP
0400
C400
3400
0C00
0700
04C0
0430
04C0
0700
0C00
3400
C400
0400
0400
ENDCHAR
STARTCHAR circleplus
ENCODING 8853
BBX 9 9 2 0
BITMAP
3E00
4900
8880
8880
FF80
8880
8880
4900
3E00
ENDCHAR
STARTCHAR uni2299
ENCODING 8857
BBX 12 12 1 -1
BITMAP
0F00
30C0
4020
4020
8010
8610
8610
8010
4020
4020
30C0
0F00
ENDCHAR
STARTCHAR perpendicular
ENCODING 8869
BBX 11 13 1 -1
BITMAP
0400
0400
0400
0400
0400
0400
0400
0400
0400
0400
0400
0400
FFE0
ENDCHAR
STARTCHAR uni22BF
ENCODING 8895
BBX 8 12 3 -1
BITMAP
01
03
03
05
05
09
11
11
21
21
41
FF
ENDCHAR
STARTCHAR uni2312
ENCODING 8978
BBX 12 6 1 5
BITMAP
0F00
30C0
4020
4020
8010
8010
ENDCHAR
STARTCHAR uni2460
ENCODING 9312
BBX 13 13 0 -1
BITMAP
0F80
3060
4210
4610
8208
8208
8208
8208
8208
4210
4210
3060
0F80
ENDCHAR
STARTCHAR uni2461
ENCODING 9313
BBX 13 13 0 -1
BITMAP
0F80
3060
4710
4890
8888
8108
8208
8408
8808
4F90
4010
3060
0F80
ENDCHAR
STARTCHAR uni2462
ENCODING 9314
BBX 13 13 0 -1
BITMAP
0F80
3060
4010
4F90
8088
8108
8608
8108
8088
4890
4710
3060
0F80
ENDCHAR
STARTCHAR uni2463
ENCODING 9315
BBX 13 13 0 -1
BITMAP
0F80
3060
4210
4410
8508
8908
8908
9108
9FC8
4110
4110
3060
0F80
ENDCHAR
STARTCHAR uni2464
ENCODING 9316
BBX 13 13 0 -1
BITMAP
0F80
3060
4F90
4810
8808
8F08
8088
8088
8888
4710
4010
3060
0F80
ENDCHAR
STARTCHAR uni2465
ENCODING 9317
BBX 13 13 0 -1
BITMAP
0F80
3060
4210
4410
8808
8B08
8C88
8888
8888
4710
4010
3060
0F80
ENDCHAR
STARTCHAR uni2466
ENCODING 9318
BBX 13 13 0 -1
BITMAP
0F80
3060
4010
4F90
8088
8088
8108
8108
8208
4210
4210
3060
0F80
ENDCHAR
STARTCHAR uni2467
ENCODING 9319
BBX 13 13 0 -1
BITMAP
0F80
3060
4010
4710
8888
8888
8708
8888
8888
4710
4010
3060
0F80
ENDCHAR
STARTCHAR uni2468
ENCODING 9320
BBX 13 13 0 -1
BITMAP
0F80
3060
4710
4890
8888
8888
8788
8088
8108
4210
4410
3060
0F80
ENDCHAR
STARTCHAR uni2469
ENCODING 9321
BBX 13 13 0 -1
BITMAP
0F80
3060
4010
5190
B248
9248
9248
9248
9248
5190
4010
3060
0F80
ENDCHAR
STARTCHAR uni2474
ENCODING 9332
BBX 13 13 0 -1
BITMAP
2020
4010
4210
8608
8208
8208
8208
8208
8208
8208
4210
4010
2020
ENDCHAR
STARTCHAR uni2475
ENCODING 9333
BBX 13 13 0 -1
BITMAP
2020
4010
4710
8888
8888
8088
8108
8208
8408
8808
4F90
4010
2020
ENDCHAR
STARTCHAR uni2476
ENCODING 9334
BBX 13 13 0 -1
BITMAP
2020
4010
4F90
8088
8108
8208
8108
8088
8888
8888
4710
4010
2020
ENDCHAR
STARTCHAR uni2477
ENCODING 9335
BBX 13 13 0 -1
BITMAP
2020
4210
4210
8408
8508
8908
8908
9108
9FC8
8108
4110
4010
2020
ENDCHAR
STARTCHAR uni2478
ENCODING 9336
BBX 13 13 0 -1
BITMAP
2020
4010
4F90
8808
8808
8F08
8088
8088
8088
8888
4710
4010
2020
ENDCHAR
STARTCHAR uni2479
ENCODING 9337
BBX 13 13 0 -1
BITMAP
2020
4010
4210
8408
8408
8B08
8C88
8888
8888
8888
4710
4010
2020
ENDCHAR
STARTCHAR uni247A
ENCODING 9338
BBX 13 13 0 -1
BITMAP
2020
4010
4F90
8088
8108
8108
8208
8208
8408
8408
4410
4010
2020
ENDCHAR
STARTCHAR uni247B
ENCODING 9339
BBX 13 13 0 -1
BITMAP
2020
4010
4710
8888
8888
8888
8708
8888
8888
8888
4710
4010
2020
ENDCHAR
STARTCHAR uni247C
ENCODING 9340
BBX 13 13 0 -1
BITMAP
2020
4010
4710
8888
8888
8888
8988
8688
8108
8108
4210
4010
2020
ENDCHAR
STARTCHAR uni247D
ENCODING 9341
BBX 13 13 0 -1
BITMAP
2020
4010
5190
B248
9248
9248
9248
9248
9248
9248
5190
4010
2020
ENDCHAR
STARTCHAR uni247E
ENCODING 9342
BBX 13 13 0 -1
BITMAP
2020
4010
4890
9988
8888
8888
8888
8888
8888
8888
4890
4010
2020
ENDCHAR
STARTCHAR uni247F
ENCODING 9343
BBX 13 13 0 -1
BITMAP
2020
4010
5390
B448
9048
9048
9088
9108
9208
9408
57D0
4010
2020
ENDCHAR
STARTCHAR uni2480
ENCODING 9344
BBX 13 13 0 -1
BITMAP
2020
4010
57D0
B048
9088
9108
9088
9048
9448
9448
5390
4010
2020
ENDCHAR
STARTCHAR uni2481
ENCODING 9345
BBX 13 13 0 -1
BITMAP
2020
4010
5110
B108
9208
9288
9488
9488
97E8
9088
5090
4010
2020
ENDCHAR
STARTCHAR uni2482
ENCODING 9346
BBX 13 13 0 -1
BITMAP
2020
4010
57D0
B408
9408
9788
9048
9048
9048
9448
5390
4010
2020
ENDCHAR
STARTCHAR uni2483
ENCODING 9347
BBX 13 13 0 -1
BITMAP
2020
4010
5110
B208
9208
9588
9648
9448
9448
9448
5390
4010
2020
ENDCHAR
STARTCHAR uni2484
ENCODING 9348
BBX 13 13 0 -1
BITMAP
2020
4010
57D0
B048
9088
9088
9108
9108
9208
9208
5210
4010
2020
ENDCHAR
STARTCHAR uni2485
ENCODING 9349
BBX 13 13 0 -1
BITMAP
2020
4010
5390
B448
9448
9448
9388
9448
9448
9448
5390
4010
2020
ENDCHAR
STARTCHAR uni2486
ENCODING 9350
BBX 13 13 0 -1
BITMAP
2020
4010
5390
B448
9448
9448
94C8
9348
9088
9088
5110
4010
2020
ENDCHAR
STARTCHAR uni2487
ENCODING 9351
BBX 13 13 0 -1
BITMAP
2020
4010
58D0
A528
A528
8528
8928
9128
A128
A128
7CD0
4010
2020
ENDCHAR
STARTCHAR uni2488
ENCODING 9352
BBX 7 11 4 0
BITMAP
40
C0
40
40
40
40
40
40
40
46
46
ENDCHAR
STARTCHAR uni2489
ENCODING 9353
BBX 9 11 2 0
BITMAP
7800
8400
8400
0400
0800
1000
2000
4000
8000
8180
FD80
ENDCHAR
STARTCHAR uni248A
ENCODING 9354
BBX 9 12 2 -1
BITMAP
FC00
0400
0800
1000
3000
0800
0400
0400
0400
8400
7980
0180
ENDCHAR
STARTCHAR uni248B
ENCODING 9355
BBX 9 11 2 0
BITMAP
1000
1000
2000
2800
4800
4800
8800
FE00
0800
0980
0980
ENDCHAR
STARTCHAR uni248C
ENCODING 9356
BBX 9 11 2 0
BITMAP
FC00
8000
8000
8000
F000
0800
0400
0400
0400
8580
7980
ENDCHAR
STARTCHAR uni248D
ENCODING 9357
BBX 9 11 2 0
BITMAP
1000
2000
4000
4000
B800
C400
8400
8400
8400
8580
7980
ENDCHAR
STARTCHAR uni248E
ENCODING 9358
BBX 8 11 3 0
BITMAP
FC
04
08
08
10
10
10
20
20
23
23
ENDCHAR
STARTCHAR uni248F
ENCODING 9359
BBX 9 12 2 -1
BITMAP
7800
8400
8400
8400
4800
3000
4800
8400
8400
8400
7980
0180
ENDCHAR
STARTCHAR uni2490
ENCODING 9360
BBX 9 11 3 0
BITMAP
7800
8400
8400
8400
8400
8C00
7400
0800
0800
1180
2180
ENDCHAR
STARTCHAR uni2491
ENCODING 9361
BBX 12 11 1 0
BITMAP
4700
C880
4880
4880
4880
4880
4880
4880
4880
48B0
4730
ENDCHAR
STARTCHAR uni2492
ENCODING 9362
BBX 11 11 1 0
BITMAP
4200
C600
4200
4200
4200
4200
4200
4200
4200
4260
4260
ENDCHAR
STARTCHAR uni2493
ENCODING 9363
BBX 12 11 1 0
BITMAP
4700
C880
4880
4080
4080
4100
4200
4400
4800
4830
4FB0
ENDCHAR
STARTCHAR uni2494
ENCODING 9364
BBX 12 11 1 0
BITMAP
4F80
C080
4100
4200
4600
4100
4080
4080
4080
48B0
4730
ENDCHAR
STARTCHAR uni2495
ENCODING 9365
BBX 12 11 1 0
BITMAP
4200
C200
4400
4500
4900
4900
5100
5FC0
4100
4130
4130
ENDCHAR
STARTCHAR uni2496
ENCODING 9366
BBX 12 11 1 0
BITMAP
4F80
C800
4800
4800
4F00
4080
4080
4080
4080
48B0
4730
ENDCHAR
STARTCHAR uni2497
ENCODING 9367
BBX 12 11 1 0
BITMAP
4100
C200
4400
4400
4B00
4C80
4880
4880
4880
48B0
4730
ENDCHAR
STARTCHAR uni2498
ENCODING 9368
BBX 12 11 1 0
BITMAP
4FC0
C040
4080
4080
4100
4100
4100
4200
4200
4230
4230
ENDCHAR
STARTCHAR uni2499
ENCODING 9369
BBX 12 11 1 0
BITMAP
4700
C880
4880
4880
4880
4700
4880
4880
4880
48B0
4730
ENDCHAR
STARTCHAR uni249A
ENCODING 9370
BBX 12 11 1 0
BITMAP
4700
C880
4880
4880
4880
4980
4680
4100
4100
4230
4430
ENDCHAR
STARTCHAR uni249B
ENCODING 9371
BBX 12 11 1 0
BITMAP
6300
9480
9480
1480
2480
2480
4480
4480
8480
84B0
F330
ENDCHAR
STARTCHAR SF100000
ENCODING 9472
BBX 13 1 0 5
BITMAP
FFF8
ENDCHAR
STARTCHAR uni2501
ENCODING 9473
BBX 13 2 0 4
BITMAP
FFF8
FFF8
ENDCHAR
STARTCHAR SF110000
ENCODING 9474
BBX 1 14 6 -2
BITMAP
80
80
80
80
80
80
80
80
80
80
80
80
80
80
ENDCHAR
STARTCHAR uni2503
ENCODING 9475
BBX 2 14 6 -2
BITMAP
C0
C0
C0
C0
C0
C0
C0
C0
C0
C0
C0
C0
C0
C0
ENDCHAR
STARTCHAR uni2504
ENCODING 9476
BBX 13 1 0 5
BITMAP
E738
ENDCHAR
STARTCHAR uni2505
ENCODING 9477
BBX 13 2 0 4
BITMAP
E738
E738
ENDCHAR
STARTCHAR uni2506
ENCODING 9478
BBX 1 13 6 -1
BITMAP
80
80
80
00
00
80
80
80
00
00
80
80
80
ENDCHAR
STARTCHAR uni2507
ENCODING 9479
BBX 2 13 6 -1
BITMAP
C0
C0
C0
00
00
C0
C0
C0
00
00
C0
C0
C0
ENDCHAR
STARTCHAR uni2508
ENCODING 9480
BBX 13 1 0 5
BITMAP
D998
ENDCHAR
STARTCHAR uni2509
ENCODING 9481
BBX 13 2 0 4
BITMAP
D998
D998
ENDCHAR
STARTCHAR uni250A
ENCODING 9482
BBX 1 14 6 -2
BITMAP
80
80
00
00
80
80
00
00
80
80
00
00
80
80
ENDCHAR
STARTCHAR uni250B
ENCODING 9483
BBX 2 14 6 -2
BITMAP
C0
C0
00
00
C0
C0
00
00
C0
C0
00
00
C0
C0
ENDCHAR
STARTCHAR SF010000
ENCODING 9484
BBX 7 8 6 -2
BITMAP
FE
80
80
80
80
80
80
80
ENDCHAR
STARTCHAR uni250D
ENCODING 9485
BBX 7 8 6 -2
BITMAP
FE
FE
80
80
80
80
80
80
ENDCHAR
STARTCHAR uni250E
ENCODING 9486
BBX 7 8 6 -2
BITMAP
FE
C0
C0
C0
C0
C0
C0
C0
ENDCHAR
STARTCHAR uni250F
ENCODING 9487
BBX 7 8 6 -2
BITMAP
FE
FE
C0
C0
C0
C0
C0
C0
ENDCHAR
STARTCHAR SF030000
ENCODING 9488
BBX 7 8 0 -2
BITMAP
FE
02
02
02
02
02
02
02
ENDCHAR
STARTCHAR uni2511
ENCODING 9489
BBX 7 8 0 -2
BITMAP
FE
FE
02
02
02
02
02
02
ENDCHAR
STARTCHAR uni2512
ENCODING 9490
BBX 8 8 0 -2
BITMAP
FF
03
03
03
03
03
03
03
ENDCHAR
STARTCHAR uni2513
ENCODING 9491
BBX 8 8 0 -2
BITMAP
FF
FF
03
03
03
03
03
03
ENDCHAR
STARTCHAR SF020000
ENCODING 9492
BBX 7 7 6 5
BITMAP
80
80
80
80
80
80
FE
ENDCHAR
STARTCHAR uni2515
ENCODING 9493
BBX 7 8 6 4
BITMAP
80
80
80
80
80
80
FE
FE
ENDCHAR
STARTCHAR uni2516
ENCODING 9494
BBX 7 7 6 5
BITMAP
C0
C0
C0
C0
C0
C0
FE
ENDCHAR
STARTCHAR uni2517
ENCODING 9495
BBX 7 8 6 4
BITMAP
C0
C0
C0
C0
C0
C0
FE
FE
ENDCHAR
STARTCHAR SF040000
ENCODING 9496
BBX 7 7 0 5
BITMAP
02
02
02
02
02
02
FE
ENDCHAR
STARTCHAR uni2519
ENCODING 9497
BBX 7 8 0 4
BITMAP
02
02
02
02
02
02
FE
FE
ENDCHAR
STARTCHAR uni251A
ENCODING 9498
BBX 8 7 0 5
BITMAP
03
03
03
03
03
03
FF
ENDCHAR
STARTCHAR uni251B
ENCODING 9499
BBX 8 8 0 4
BITMAP
03
03
03
03
03
03
FF
FF
ENDCHAR
STARTCHAR SF080000
ENCODING 9500
BBX 7 14 6 -2
BITMAP
80
80
80
80
80
80
FE
80
80
80
80
80
80
80
ENDCHAR
STARTCHAR uni251D
ENCODING 9501
BBX 7 14 6 -2
BITMAP
80
80
80
80
80
80
FE
FE
80
80
80
80
80
80
ENDCHAR
STARTCHAR uni251E
ENCODING 9502
BBX 7 14 6 -2
BITMAP
C0
C0
C0
C0
C0
C0
FE
80
80
80
80
80
80
80
ENDCHAR
STARTCHAR uni251F
ENCODING 9503
BBX 7 14 6 -2
BITMAP
80
80
80
80
80
80
FE
C0
C0
C0
C0
C0
C0
C0
ENDCHAR
STARTCHAR uni2520
ENCODING 9504
BBX 7 14 6 -2
BITMAP
C0
C0
C0
C0
C0
C0
FE
C0
C0
C0
C0
C0
C0
C0
ENDCHAR
STARTCHAR uni2521
ENCODING 9505
BBX 7 14 6 -2
BITMAP
C0
C0
C0
C0
C0
C0
FE
FE
80
80
80
80
80
80
ENDCHAR
STARTCHAR uni2522
ENCODING 9506
BBX 7 14 6 -2
BITMAP
80
80
80
80
80
80
FE
FE
C0
C0
C0
C0
C0
C0
ENDCHAR
STARTCHAR uni2523
ENCODING 9507
BBX 7 14 6 -2
BITMAP
C0
C0
C0
C0
C0
C0
FE
FE
C0
C0
C0
C0
C0
C0
ENDCHAR
STARTCHAR SF090000
ENCODING 9508
BBX 7 14 0 -2
BITMAP
02
02
02
02
02
02
FE
02
02
02
02
02
02
02
ENDCHAR
STARTCHAR uni2525
ENCODING 9509
BBX 7 14 0 -2
BITMAP
02
02
02
02
02
02
FE
FE
02
02
02
02
02
02
ENDCHAR
STARTCHAR uni2526
ENCODING 9510
BBX 8 14 0 -2
BITMAP
03
03
03
03
03
03
FF
02
02
02
02
02
02
02
ENDCHAR
STARTCHAR uni2527
ENCODING 9511
BBX 8 14 0 -2
BITMAP
02
02
02
02
02
02
FF
03
03
03
03
03
03
03
ENDCHAR
STARTCHAR uni2528
ENCODING 9512
BBX 8 14 0 -2
BITMAP
03
03
03
03
03
03
FF
03
03
03
03
03
03
03
ENDCHAR
STARTCHAR uni2529
ENCODING 9513
BBX 8 14 0 -2
BITMAP
03
03
03
03
03
03
FF
FF
02
02
02
02
02
02
ENDCHAR
STARTCHAR uni252A
ENCODING 9514
BBX 8 14 0 -2
BITMAP
02
02
02
02
02
02
FF
FF
03
03
03
03
03
03
ENDCHAR
STARTCHAR uni252B
ENCODING 9515
BBX 8 14 0 -2
BITMAP
03
03
03
03
03
03
FF
FF
03
03
03
03
03
03
ENDCHAR
STARTCHAR SF060000
ENCODING 9516
BBX 13 8 0 -2
BITMAP
FFF8
0200
0200
0200
0200
0200
0200
0200
ENDCHAR
STARTCHAR uni252D
ENCODING 9517
BBX 13 8 0 -2
BITMAP
FFF8
FE00
0200
0200
0200
0200
0200
0200
ENDCHAR
STARTCHAR uni252E
ENCODING 9518
BBX 13 8 0 -2
BITMAP
FFF8
03F8
0200
0200
0200
0200
0200
0200
ENDCHAR
STARTCHAR uni252F
ENCODING 9519
BBX 13 8 0 -2
BITMAP
FFF8
FFF8
0200
0200
0200
0200
0200
0200
ENDCHAR
STARTCHAR uni2530
ENCODING 9520
BBX 13 8 0 -2
BITMAP
FFF8
0300
0300
0300
0300
0300
0300
0300
ENDCHAR
STARTCHAR uni2531
ENCODING 9521
BBX 13 8 0 -2
BITMAP
FFF8
FF00
0300
0300
0300
0300
0300
0300
ENDCHAR
STARTCHAR uni2532
ENCODING 9522
BBX 13 8 0 -2
BITMAP
FFF8
03F8
0300
0300
0300
0300
0300
0300
ENDCHAR
STARTCHAR uni2533
ENCODING 9523
BBX 13 8 0 -2
BITMAP
FFF8
FFF8
0300
0300
0300
0300
0300
0300
ENDCHAR
STARTCHAR SF070000
ENCODING 9524
BBX 13 7 0 5
BITMAP
0200
0200
0200
0200
0200
0200
FFF8
ENDCHAR
STARTCHAR uni2535
ENCODING 9525
BBX 13 8 0 4
BITMAP
0200
0200
0200
0200
0200
0200
FFF8
FE00
ENDCHAR
STARTCHAR uni2536
ENCODING 9526
BBX 13 8 0 4
BITMAP
0200
0200
0200
0200
0200
0200
FFF8
03F8
ENDCHAR
STARTCHAR uni2537
ENCODING 9527
BBX 13 8 0 4
BITMAP
0200
0200
0200
0200
0200
0200
FFF8
FFF8
ENDCHAR
STARTCHAR uni2538
ENCODING 9528
BBX 13 7 0 5
BITMAP
0300
0300
0300
0300
0300
0300
FFF8
ENDCHAR
STARTCHAR uni2539
ENCODING 9529
BBX 13 8 0 4
BITMAP
0300
0300
0300
0300
0300
0300
FFF8
FF00
ENDCHAR
STARTCHAR uni253A
ENCODING 9530
BBX 13 8 0 4
BITMAP
0300
0300
0300
0300
0300
0300
FFF8
03F8
ENDCHAR
STARTCHAR uni253B
ENCODING 9531
BBX 13 8 0 4
BITMAP
0300
0300
0300
0300
0300
0300
FFF8
FFF8
ENDCHAR
STARTCHAR SF050000
ENCODING 9532
BBX 13 14 0 -2
BITMAP
0200
0200
0200
0200
0200
0200
FFF8
0200
0200
0200
0200
0200
0200
0200
ENDCHAR
STARTCHAR uni253D
ENCODING 9533
BBX 13 14 0 -2
BITMAP
0200
0200
0200
0200
0200
0200
FFF8
FE00
0200
0200
0200
0200
0200
0200
ENDCHAR
STARTCHAR uni253E
ENCODING 9534
BBX 13 14 0 -2
BITMAP
0200
0200
0200
0200
0200
0200
FFF8
03F8
0200
0200
0200
0200
0200
0200
ENDCHAR
STARTCHAR uni253F
ENCODING 9535
BBX 13 14 0 -2
BITMAP
0200
0200
0200
0200
0200
0200
FFF8
FFF8
0200
0200
0200
0200
0200
0200
ENDCHAR
STARTCHAR uni2540
ENCODING 9536
BBX 13 14 0 -2
BITMAP
0300
0300
0300
0300
0300
0300
FFF8
0200
0200
0200
0200
0200
0200
0200
ENDCHAR
STARTCHAR uni2541
ENCODING 9537
BBX 13 14 0 -2
BITMAP
0200
0200
0200
0200
0200
0200
FFF8
0300
0300
0300
0300
0300
0300
0300
ENDCHAR
STARTCHAR uni2542
ENCODING 9538
BBX 13 14 0 -2
BITMAP
0300
0300
0300
0300
0300
0300
FFF8
0300
0300
0300
0300
0300
0300
0300
ENDCHAR
STARTCHAR uni2543
ENCODING 9539
BBX 13 14 0 -2
BITMAP
0300
0300
0300
0300
0300
0300
FFF8
FE00
0200
0200
0200
0200
0200
0200
ENDCHAR
STARTCHAR uni2544
ENCODING 9540
BBX 13 14 0 -2
BITMAP
0300
0300
0300
0300
0300
0300
FFF8
03F8
0200
0200
0200
0200
0200
0200
ENDCHAR
STARTCHAR uni2545
ENCODING 9541
BBX 13 14 0 -2
BITMAP
0200
0200
0200
0200
0200
0200
FFF8
FF00
0300
0300
0300
0300
0300
0300
ENDCHAR
STARTCHAR uni2546
ENCODING 9542
BBX 13 14 0 -2
BITMAP
0200
0200
0200
0200
0200
0200
FFF8
03F8
0300
0300
0300
0300
0300
0300
ENDCHAR
STARTCHAR uni2547
ENCODING 9543
BBX 13 14 0 -2
BITMAP
0300
0300
0300
0300
0300
0300
FFF8
FFF8
0200
0200
0200
0200
0200
0200
ENDCHAR
STARTCHAR uni2548
ENCODING 9544
BBX 13 14 0 -2
BITMAP
0200
0200
0200
0200
0200
0200
FFF8
FFF8
0300
0300
0300
0300
0300
0300
ENDCHAR
STARTCHAR uni2549
ENCODING 9545
BBX 13 14 0 -2
BITMAP
0300
0300
0300
0300
0300
0300
FFF8
FF00
0300
0300
0300
0300
0300
0300
ENDCHAR
STARTCHAR uni254A
ENCODING 9546
BBX 13 14 0 -2
BITMAP
0300
0300
0300
0300
0300
0300
FFF8
03F8
0300
0300
0300
0300
0300
0300
ENDCHAR
STARTCHAR uni254B
ENCODING 9547
BBX 13 14 0 -2
BITMAP
0300
0300
0300
0300
0300
0300
FFF8
FFF8
0300
0300
0300
0300
0300
0300
ENDCHAR
STARTCHAR SF430000
ENCODING 9552
BBX 13 3 0 4
BITMAP
FFF8
0000
FFF8
ENDCHAR
STARTCHAR SF240000
ENCODING 9553
BBX 3 14 5 -2
BITMAP
A0
A0
A0
A0
A0
A0
A0
A0
A0
A0
A0
A0
A0
A0
ENDCHAR
STARTCHAR SF510000
ENCODING 9554
BBX 6 9 7 -2
BITMAP
FC
80
FC
80
80
80
80
80
80
ENDCHAR
STARTCHAR SF520000
ENCODING 9555
BBX 8 7 5 -2
BITMAP
FF
A0
A0
A0
A0
A0
A0
ENDCHAR
STARTCHAR SF390000
ENCODING 9556
BBX 8 9 5 -2
BITMAP
FF
80
BF
A0
A0
A0
A0
A0
A0
ENDCHAR
STARTCHAR SF220000
ENCODING 9557
BBX 6 9 0 -2
BITMAP
FC
04
FC
04
04
04
04
04
04
ENDCHAR
STARTCHAR SF210000
ENCODING 9558
BBX 8 7 0 -2
BITMAP
FF
05
05
05
05
05
05
ENDCHAR
STARTCHAR SF250000
ENCODING 9559
BBX 8 9 0 -2
BITMAP
FF
01
FD
05
05
05
05
05
05
ENDCHAR
STARTCHAR SF500000
ENCODING 9560
BBX 6 8 7 4
BITMAP
80
80
80
80
80
FC
80
FC
ENDCHAR
STARTCHAR SF490000
ENCODING 9561
BBX 8 6 5 6
BITMAP
A0
A0
A0
A0
A0
FF
ENDCHAR
STARTCHAR SF380000
ENCODING 9562
BBX 8 8 5 4
BITMAP
A0
A0
A0
A0
A0
BF
80
FF
ENDCHAR
STARTCHAR SF280000
ENCODING 9563
BBX 6 8 0 4
BITMAP
04
04
04
04
04
FC
04
FC
ENDCHAR
STARTCHAR SF270000
ENCODING 9564
BBX 8 6 0 6
BITMAP
05
05
05
05
05
FF
ENDCHAR
STARTCHAR SF260000
ENCODING 9565
BBX 8 8 0 4
BITMAP
05
05
05
05
05
FD
01
FF
ENDCHAR
STARTCHAR SF360000
ENCODING 9566
BBX 6 14 7 -2
BITMAP
80
80
80
80
80
FC
80
FC
80
80
80
80
80
80
ENDCHAR
STARTCHAR SF370000
ENCODING 9567
BBX 8 14 5 -2
BITMAP
A0
A0
A0
A0
A0
BF
A0
A0
A0
A0
A0
A0
A0
A0
ENDCHAR
STARTCHAR SF420000
ENCODING 9568
BBX 8 14 5 -2
BITMAP
A0
A0
A0
A0
A0
BF
80
BF
A0
A0
A0
A0
A0
A0
ENDCHAR
STARTCHAR SF190000
ENCODING 9569
BBX 6 14 0 -2
BITMAP
04
04
04
04
04
FC
04
FC
04
04
04
04
04
04
ENDCHAR
STARTCHAR SF200000
ENCODING 9570
BBX 8 14 0 -2
BITMAP
05
05
05
05
05
FD
05
05
05
05
05
05
05
05
ENDCHAR
STARTCHAR SF230000
ENCODING 9571
BBX 8 14 0 -2
BITMAP
05
05
05
05
05
FD
01
FD
05
05
05
05
05
05
ENDCHAR
STARTCHAR SF470000
ENCODING 9572
BBX 13 9 0 -2
BITMAP
FFF8
0000
FFF8
0400
0400
0400
0400
0400
0400
ENDCHAR
STARTCHAR SF480000
ENCODING 9573
BBX 13 7 0 -2
BITMAP
FFF8
0500
0500
0500
0500
0500
0500
ENDCHAR
STARTCHAR SF410000
ENCODING 9574
BBX 13 9 0 -2
BITMAP
FFF8
0000
FDF8
0500
0500
0500
0500
0500
0500
ENDCHAR
STARTCHAR SF450000
ENCODING 9575
BBX 13 8 0 4
BITMAP
0400
0400
0400
0400
0400
FFF8
0000
FFF8
ENDCHAR
STARTCHAR SF460000
ENCODING 9576
BBX 13 6 0 6
BITMAP
0500
0500
0500
0500
0500
FFF8
ENDCHAR
STARTCHAR SF400000
ENCODING 9577
BBX 13 8 0 4
BITMAP
0500
0500
0500
0500
0500
FDF8
0000
FFF8
ENDCHAR
STARTCHAR SF540000
ENCODING 9578
BBX 13 14 0 -2
BITMAP
0400
0400
0400
0400
0400
FFF8
0400
FFF8
0400
0400
0400
0400
0400
0400
ENDCHAR
STARTCHAR SF530000
ENCODING 9579
BBX 13 14 0 -2
BITMAP
0500
0500
0500
0500
0500
0500
0500
FFF8
0500
0500
0500
0500
0500
0500
ENDCHAR
STARTCHAR SF440000
ENCODING 9580
BBX 13 14 0 -2
BITMAP
0500
0500
0500
0500
0500
FDF8
0000
FDF8
0500
0500
0500
0500
0500
0500
ENDCHAR
STARTCHAR uni256D
ENCODING 9581
BBX 7 7 0 0
BITMAP
06
18
20
40
40
80
80
ENDCHAR
STARTCHAR uni256E
ENCODING 9582
BBX 7 7 6 0
BITMAP
C0
30
08
04
04
02
02
ENDCHAR
STARTCHAR uni256F
ENCODING 9583
BBX 7 7 0 5
BITMAP
02
02
04
04
08
30
C0
ENDCHAR
STARTCHAR uni2570
ENCODING 9584
BBX 7 7 6 5
BITMAP
80
80
40
40
20
18
06
ENDCHAR
STARTCHAR uni2571
ENCODING 9585
BBX 13 13 0 -1
BITMAP
0008
0010
0020
0040
0080
0100
0200
0400
0800
1000
2000
4000
8000
ENDCHAR
STARTCHAR uni2572
ENCODING 9586
BBX 13 13 0 -1
BITMAP
8000
4000
2000
1000
0800
0400
0200
0100
0080
0040
0020
0010
0008
ENDCHAR
STARTCHAR uni2573
ENCODING 9587
BBX 13 13 0 -1
BITMAP
8008
4010
2020
1040
0880
0500
0200
0500
0880
1040
2020
4010
8008
ENDCHAR
STARTCHAR uni2581
ENCODING 9601
BBX 13 2 0 -2
BITMAP
FFF8
FFF8
ENDCHAR
STARTCHAR uni2582
ENCODING 9602
BBX 13 4 0 -2
BITMAP
FFF8
FFF8
FFF8
FFF8
ENDCHAR
STARTCHAR uni2583
ENCODING 9603
BBX 13 6 0 -2
BITMAP
FFF8
FFF8
FFF8
FFF8
FFF8
FFF8
ENDCHAR
STARTCHAR dnblock
ENCODING 9604
BBX 13 8 0 -2
BITMAP
FFF8
FFF8
FFF8
FFF8
FFF8
FFF8
FFF8
FFF8
ENDCHAR
STARTCHAR uni2585
ENCODING 9605
BBX 13 10 0 -2
BITMAP
FFF8
FFF8
FFF8
FFF8
FFF8
FFF8
FFF8
FFF8
FFF8
FFF8
ENDCHAR
STARTCHAR uni2586
ENCODING 9606
BBX 13 12 0 -2
BITMAP
FFF8
FFF8
FFF8
FFF8
FFF8
FFF8
FFF8
FFF8
FFF8
FFF8
FFF8
FFF8
ENDCHAR
STARTCHAR uni2587
ENCODING 9607
BBX 13 13 0 -2
BITMAP
FFF8
FFF8
FFF8
FFF8
FFF8
FFF8
FFF8
FFF8
FFF8
FFF8
FFF8
FFF8
FFF8
ENDCHAR
STARTCHAR block
ENCODING 9608
BBX 13 14 0 -2
BITMAP
FFF8
FFF8
FFF8
FFF8
FFF8
FFF8
FFF8
FFF8
FFF8
FFF8
FFF8
FFF8
FFF8
FFF8
ENDCHAR
STARTCHAR uni2589
ENCODING 9609
BBX 12 14 0 -2
BITMAP
FFF0
FFF0
FFF0
FFF0
FFF0
FFF0
FFF0
FFF0
FFF0
FFF0
FFF0
FFF0
FFF0
FFF0
ENDCHAR
STARTCHAR uni258A
ENCODING 9610
BBX 11 14 0 -2
BITMAP
FFE0
FFE0
FFE0
FFE0
FFE0
FFE0
FFE0
FFE0
FFE0
FFE0
FFE0
FFE0
FFE0
FFE0
ENDCHAR
STARTCHAR uni258B
ENCODING 9611
BBX 9 14 0 -2
BITMAP
FF80
FF80
FF80
FF80
FF80
FF80
FF80
FF80
FF80
FF80
FF80
FF80
FF80
FF80
ENDCHAR
STARTCHAR lfblock
ENCODING 9612
BBX 7 14 0 -2
BITMAP
FE
FE
FE
FE
FE
FE
FE
FE
FE
FE
FE
FE
FE
FE
ENDCHAR
STARTCHAR uni258D
ENCODING 9613
BBX 5 14 0 -2
BITMAP
F8
F8
F8
F8
F8
F8
F8
F8
F8
F8
F8
F8
F8
F8
ENDCHAR
STARTCHAR uni258E
ENCODING 9614
BBX 3 14 0 -2
BITMAP
E0
E0
E0
E0
E0
E0
E0
E0
E0
E0
E0
E0
E0
E0
ENDCHAR
STARTCHAR uni258F
ENCODING 9615
BBX 2 14 0 -2
BITMAP
C0
C0
C0
C0
C0
C0
C0
C0
C0
C0
C0
C0
C0
C0
ENDCHAR
STARTCHAR dkshade
ENCODING 9619
BBX 13 14 0 -2
BITMAP
FFF8
5550
FFF8
AAA8
FFF8
5550
FFF8
AAA8
FFF8
5550
FFF8
AAA8
FFF8
5550
ENDCHAR
STARTCHAR uni2594
ENCODING 9620
BBX 13 2 0 10
BITMAP
FFF8
FFF8
ENDCHAR
STARTCHAR uni2595
ENCODING 9621
BBX 2 14 11 -2
BITMAP
C0
C0
C0
C0
C0
C0
C0
C0
C0
C0
C0
C0
C0
C0
ENDCHAR
STARTCHAR filledbox
ENCODING 9632
BBX 11 12 1 -1
BITMAP
FFE0
FFE0
FFE0
FFE0
FFE0
FFE0
FFE0
FFE0
FFE0
FFE0
FFE0
FFE0
ENDCHAR
STARTCHAR H22073
ENCODING 9633
BBX 11 12 1 -1
BITMAP
FFE0
8020
8020
8020
8020
8020
8020
8020
8020
8020
8020
FFE0
ENDCHAR
STARTCHAR triagup
ENCODING 9650
BBX 13 11 0 0
BITMAP
0200
0700
0700
0F80
0F80
1FC0
1FC0
3FE0
3FE0
7FF0
FFF8
ENDCHAR
STARTCHAR uni25B3
ENCODING 9651
BBX 13 11 0 0
BITMAP
0200
0500
0500
0880
0880
1040
1040
2020
2020
4010
FFF8
ENDCHAR
STARTCHAR triagdn
ENCODING 9660
BBX 13 11 0 0
BITMAP
FFF8
7FF0
3FE0
3FE0
1FC0
1FC0
0F80
0F80
0700
0700
0200
ENDCHAR
STARTCHAR uni25BD
ENCODING 9661
BBX 13 11 0 0
BITMAP
FFF8
4010
2020
2020
1040
1040
0880
0880
0500
0500
0200
ENDCHAR
STARTCHAR uni25C6
ENCODING 9670
BBX 13 13 0 -1
BITMAP
0200
0700
0F80
1FC0
3FE0
7FF0
FFF8
7FF0
3FE0
1FC0
0F80
0700
0200
ENDCHAR
STARTCHAR uni25C7
ENCODING 9671
BBX 13 13 0 -1
BITMAP
0200
0500
0880
1040
2020
4010
8008
4010
2020
1040
0880
0500
0200
ENDCHAR
STARTCHAR circle
ENCODING 9675
BBX 12 12 1 -1
BITMAP
0F00
30C0
4020
4020
8010
8010
8010
8010
4020
4020
30C0
0F00
ENDCHAR
STARTCHAR uni25CE
ENCODING 9678
BBX 12 12 1 -1
BITMAP
0F00
30C0
4F20
50A0
A050
A050
A050
A050
50A0
4F20
30C0
0F00
ENDCHAR
STARTCHAR H18533
ENCODING 9679
BBX 12 12 1 -1
BITMAP
0F00
3FC0
7FE0
7FE0
FFF0
FFF0
FFF0
FFF0
7FE0
7FE0
3FC0
0F00
ENDCHAR
STARTCHAR uni25E2
ENCODING 9698
BBX 7 7 6 -2
BITMAP
02
06
0E
1E
3E
7E
FE
ENDCHAR
STARTCHAR uni25E3
ENCODING 9699
BBX 7 7 0 -2
BITMAP
80
C0
E0
F0
F8
FC
FE
ENDCHAR
STARTCHAR uni25E4
ENCODING 9700
BBX 7 7 0 5
BITMAP
FE
FC
F8
F0
E0
C0
80
ENDCHAR
STARTCHAR uni25E5
ENCODING 9701
BBX 7 7 6 5
BITMAP
FE
7E
3E
1E
0E
06
02
ENDCHAR
STARTCHAR uni2605
ENCODING 9733
BBX 13 14 0 -2
BITMAP
0200
0200
0700
0700
0F80
FFF8
7FF0
3FE0
1FC0
1FC0
1FC0
3DE0
3060
4010
ENDCHAR
STARTCHAR uni2606
ENCODING 9734
BBX 13 14 0 -2
BITMAP
0200
0200
0500
0500
0880
F078
4010
2020
1040
1040
2220
2DA0
3060
4010
ENDCHAR
STARTCHAR uni2609
ENCODING 9737
BBX 7 7 3 1
BITMAP
38
44
82
92
82
44
38
ENDCHAR
STARTCHAR female
ENCODING 9792
BBX 7 13 3 -1
BITMAP
38
44
44
44
38
10
10
10
FE
10
10
10
10
ENDCHAR
STARTCHAR male
ENCODING 9794
BBX 7 13 3 -1
BITMAP
10
38
54
92
10
10
10
10
38
44
44
44
38
ENDCHAR
STARTCHAR uni2E81
ENCODING 11905
BBX 12 14 0 -2
BITMAP
00F0
3F00
2000
2000
2000
2000
2000
2000
2000
2000
2000
4000
4000
8000
ENDCHAR
STARTCHAR uni2E84
ENCODING 11908
BBX 12 13 1 -2
BITMAP
FF80
0080
0080
0080
0080
0080
0080
0080
0080
0040
0050
0030
0010
ENDCHAR
STARTCHAR uni2E88
ENCODING 11912
BBX 11 5 0 7
BITMAP
1000
1FE0
2040
4080
8000
ENDCHAR
STARTCHAR uni2E8B
ENCODING 11915
BBX 12 13 1 -2
BITMAP
FF80
8080
8080
8080
8080
8080
8080
8300
8000
8010
8010
8010
7FF0
ENDCHAR
STARTCHAR uni2E8C
ENCODING 11916
BBX 11 5 1 7
BITMAP
0400
8420
4440
2480
0400
ENDCHAR
STARTCHAR uni2E97
ENCODING 11927
BBX 13 14 0 -2
BITMAP
0800
0800
0800
0840
2A20
2920
4910
4890
8888
8888
0800
0800
0800
3800
ENDCHAR
STARTCHAR uni2EA7
ENCODING 11943
BBX 13 6 0 6
BITMAP
0200
2200
3FE0
4200
0200
FFF8
ENDCHAR
STARTCHAR uni2EAA
ENCODING 11946
BBX 6 12 0 -1
BITMAP
7C
04
08
10
50
5C
50
50
50
50
5C
E0
ENDCHAR
STARTCHAR uni2EAE
ENCODING 11950
BBX 13 6 0 6
BITMAP
2080
2080
3EF8
5120
4A10
8010
ENDCHAR
STARTCHAR uni2EB3
ENCODING 11955
BBX 13 6 0 5
BITMAP
FFF8
8008
8008
0880
1040
2020
ENDCHAR
STARTCHAR uni2EB6
ENCODING 11958
BBX 13 10 0 2
BITMAP
1040
0880
7FF0
0200
3FE0
0400
FFF8
1000
2000
C000
ENDCHAR
STARTCHAR uni2EB7
ENCODING 11959
BBX 13 10 0 2
BITMAP
1040
0840
0880
7FF0
0200
0200
3FE0
0200
0200
FFF8
ENDCHAR
STARTCHAR uni2EBB
ENCODING 11963
BBX 13 8 0 4
BITMAP
0200
3FE0
0220
FFF8
0220
3FE0
0200
FFF8
ENDCHAR
STARTCHAR uni2ECA
ENCODING 11978
BBX 6 12 0 -1
BITMAP
78
48
48
48
78
10
50
5C
50
50
5C
E0
ENDCHAR
STARTCHAR uni2FF0
ENCODING 12272
BBX 13 13 0 -1
BITMAP
AAA8
0000
8208
0000
8208
0000
8208
0000
8208
0000
8208
0000
AAA8
ENDCHAR
STARTCHAR uni2FF1
ENCODING 12273
BBX 13 13 0 -1
BITMAP
AAA8
0000
8008
0000
8008
0000
AAA8
0000
8008
0000
8008
0000
AAA8
ENDCHAR
STARTCHAR uni2FF2
ENCODING 12274
BBX 13 13 0 -1
BITMAP
AAA8
0000
8888
0000
8888
0000
8888
0000
8888
0000
8888
0000
AAA8
ENDCHAR
STARTCHAR uni2FF3
ENCODING 12275
BBX 13 13 0 -1
BITMAP
AAA8
0000
8008
0000
AAA8
0000
8008
0000
AAA8
0000
8008
0000
AAA8
ENDCHAR
STARTCHAR uni2FF4
ENCODING 12276
BBX 13 13 0 -1
BITMAP
AAA8
0000
8008
0A80
8008
0880
8008
0880
8008
0A80
8008
0000
AAA8
ENDCHAR
STARTCHAR uni2FF5
ENCODING 12277
BBX 13 13 0 -1
BITMAP
AAA8
0000
8008
0000
8A88
0000
8888
0000
8888
0000
8888
0000
AAA8
ENDCHAR
STARTCHAR uni2FF6
ENCODING 12278
BBX 13 13 0 -1
BITMAP
AAA8
0000
8888
0000
8888
0000
8888
0000
8A88
0000
8008
0000
AAA8
ENDCHAR
STARTCHAR uni2FF7
ENCODING 12279
BBX 13 13 0 -1
BITMAP
AAA8
0000
8008
0000
8AA8
0000
8808
0000
8AA8
0000
8008
0000
AAA8
ENDCHAR
STARTCHAR uni2FF8
ENCODING 12280
BBX 13 13 0 -1
BITMAP
AAA8
0000
8008
0000
8008
0000
82A8
0000
8208
0000
8208
0000
AAA8
ENDCHAR
STARTCHAR uni2FF9
ENCODING 12281
BBX 13 13 0 -1
BITMAP
AAA8
0000
8008
0000
8008
0000
AA08
0000
8208
0000
8208
0000
AAA8
ENDCHAR
STARTCHAR uni2FFA
ENCODING 12282
BBX 13 13 0 -1
BITMAP
AAA8
0000
8208
0000
8208
0000
82A8
0000
8008
0000
8008
0000
AAA8
ENDCHAR
STARTCHAR uni2FFB
ENCODING 12283
BBX 13 13 0 -1
BITMAP
AA80
0000
8080
0000
8AA8
0000
8888
0000
AA88
0000
0808
0000
0AA8
ENDCHAR
STARTCHAR uni3001
ENCODING 12289
BBX 3 4 2 -1
BITMAP
80
40
60
20
ENDCHAR
STARTCHAR uni3002
ENCODING 12290
BBX 4 4 2 0
BITMAP
60
90
90
60
ENDCHAR
STARTCHAR uni3003
ENCODING 12291
BBX 6 6 3 3
BITMAP
24
24
24
48
48
90
ENDCHAR
STARTCHAR uni3005
ENCODING 12293
BBX 9 11 2 0
BITMAP
1000
1000
3F80
4080
8100
0200
0400
2800
1000
0800
0400
ENDCHAR
STARTCHAR uni3006
ENCODING 12294
BBX 9 13 3 -1
BITMAP
0400
0380
0180
0100
0200
0E00
3200
4500
8400
8800
9000
5000
2000
ENDCHAR
STARTCHAR uni3007
ENCODING 12295
BBX 12 12 1 -1
BITMAP
0F00
30C0
4020
4020
8010
8010
8010
8010
4020
4020
30C0
0F00
ENDCHAR
STARTCHAR uni3008
ENCODING 12296
BBX 7 13 4 -1
BITMAP
02
04
08
10
20
40
80
40
20
10
08
04
02
ENDCHAR
STARTCHAR uni3009
ENCODING 12297
BBX 7 13 2 -1
BITMAP
80
40
20
10
08
04
02
04
08
10
20
40
80
ENDCHAR
STARTCHAR uni300A
ENCODING 12298
BBX 9 13 2 -1
BITMAP
0200
0480
0900
1200
2400
4800
9000
4800
2400
1200
0900
0480
0200
ENDCHAR
STARTCHAR uni300B
ENCODING 12299
BBX 9 13 2 -1
BITMAP
2000
9000
4800
2400
1200
0900
0480
0900
1200
2400
4800
9000
2000
ENDCHAR
STARTCHAR uni300C
ENCODING 12300
BBX 4 13 6 -1
BITMAP
F0
80
80
80
80
80
80
80
80
80
80
80
80
ENDCHAR
STARTCHAR uni300D
ENCODING 12301
BBX 4 13 3 -1
BITMAP
10
10
10
10
10
10
10
10
10
10
10
10
F0
ENDCHAR
STARTCHAR uni300E
ENCODING 12302
BBX 5 13 6 -1
BITMAP
F8
88
B8
A0
A0
A0
A0
A0
A0
A0
A0
A0
E0
ENDCHAR
STARTCHAR uni300F
ENCODING 12303
BBX 5 13 2 -1
BITMAP
38
28
28
28
28
28
28
28
28
28
E8
88
F8
ENDCHAR
STARTCHAR uni3010
ENCODING 12304
BBX 6 13 6 -1
BITMAP
FC
F8
F0
F0
E0
E0
E0
E0
E0
F0
F0
F8
FC
ENDCHAR
STARTCHAR uni3011
ENCODING 12305
BBX 6 13 1 -1
BITMAP
FC
7C
3C
3C
1C
1C
1C
1C
1C
3C
3C
7C
FC
ENDCHAR
STARTCHAR uni3012
ENCODING 12306
BBX 11 11 1 -1
BITMAP
FFE0
0000
0000
FFE0
0400
0400
0400
0400
0400
0400
0400
ENDCHAR
STARTCHAR uni3013
ENCODING 12307
BBX 11 9 1 1
BITMAP
FFE0
FFE0
FFE0
0000
0000
0000
FFE0
FFE0
FFE0
ENDCHAR
STARTCHAR uni3014
ENCODING 12308
BBX 3 13 8 -1
BITMAP
20
40
80
80
80
80
80
80
80
80
80
40
20
ENDCHAR
STARTCHAR uni3015
ENCODING 12309
BBX 3 13 2 -1
BITMAP
80
40
20
20
20
20
20
20
20
20
20
40
80
ENDCHAR
STARTCHAR uni3016
ENCODING 12310
BBX 7 13 5 -1
BITMAP
FE
84
88
88
90
90
90
90
90
88
88
84
FE
ENDCHAR
STARTCHAR uni3017
ENCODING 12311
BBX 7 13 1 -1
BITMAP
FE
42
22
22
12
12
12
12
12
22
22
42
FE
ENDCHAR
STARTCHAR uni301D
ENCODING 12317
BBX 8 5 3 6
BITMAP
44
CC
66
22
11
ENDCHAR
STARTCHAR uni301E
ENCODING 12318
BBX 8 5 2 6
BITMAP
22
33
66
44
88
ENDCHAR
STARTCHAR uni3021
ENCODING 12321
BBX 1 12 6 -1
BITMAP
80
80
80
80
80
80
80
80
80
80
80
80
ENDCHAR
STARTCHAR uni3022
ENCODING 12322
BBX 5 12 4 -1
BITMAP
08
88
88
88
88
88
88
88
88
88
88
08
ENDCHAR
STARTCHAR uni3023
ENCODING 12323
BBX 9 12 2 -1
BITMAP
8080
8880
8880
8880
8880
8880
8880
8880
8880
8880
8880
8080
ENDCHAR
STARTCHAR uni3024
ENCODING 12324
BBX 11 12 0 -1
BITMAP
0020
0020
0020
0840
0440
0280
0100
0280
0440
0820
3020
C000
ENDCHAR
STARTCHAR uni3025
ENCODING 12325
BBX 9 13 2 -1
BITMAP
2080
2080
4100
4100
F200
0C00
1200
2100
4100
4100
4100
2200
1C00
ENDCHAR
STARTCHAR uni3026
ENCODING 12326
BBX 11 7 1 4
BITMAP
0400
0400
0400
0400
0400
0400
FFE0
ENDCHAR
STARTCHAR uni3027
ENCODING 12327
BBX 11 8 1 3
BITMAP
0400
0400
0400
0400
FFE0
0000
0000
FFE0
ENDCHAR
STARTCHAR uni3028
ENCODING 12328
BBX 11 11 1 0
BITMAP
0400
0400
0400
0400
FFE0
0000
0000
FFE0
0000
0000
FFE0
ENDCHAR
STARTCHAR uni3029
ENCODING 12329
BBX 10 13 1 -1
BITMAP
1000
1000
1000
3FC0
2100
4100
9200
0A00
0400
0A00
1100
2100
4000
ENDCHAR
STARTCHAR uni303E
ENCODING 12350
BBX 13 13 0 -1
BITMAP
AAA8
0000
8C28
1240
A188
0000
8088
3FE0
8208
3FE0
8808
0000
AAA8
ENDCHAR
STARTCHAR uni3041
ENCODING 12353
BBX 11 13 1 -2
BITMAP
1000
1000
1780
F800
1200
1F80
3240
5220
8C20
8820
9440
6080
0300
ENDCHAR
STARTCHAR uni3042
ENCODING 12354
BBX 13 14 0 -2
BITMAP
0800
08C0
0F00
7800
0880
0880
3FE0
4890
8508
8508
8208
4508
3810
0060
ENDCHAR
STARTCHAR uni3043
ENCODING 12355
BBX 10 9 2 0
BITMAP
8000
C100
8080
8040
80C0
8080
8800
5000
3000
ENDCHAR
STARTCHAR uni3044
ENCODING 12356
BBX 11 11 1 -1
BITMAP
8100
C080
8040
8020
8020
8060
8040
8400
8800
5000
3000
ENDCHAR
STARTCHAR uni3045
ENCODING 12357
BBX 8 11 3 -1
BITMAP
78
04
18
00
8E
71
01
02
04
18
60
ENDCHAR
STARTCHAR uni3046
ENCODING 12358
BBX 10 13 2 -1
BITMAP
3E00
0100
0600
0000
8780
7840
0040
0080
0080
0100
0200
0C00
3000
ENDCHAR
STARTCHAR uni3047
ENCODING 12359
BBX 11 12 1 -1
BITMAP
1C00
0200
0400
0000
0F00
7200
0400
0C00
1200
2200
4100
80E0
ENDCHAR
STARTCHAR uni3048
ENCODING 12360
BBX 12 13 1 -1
BITMAP
3C00
0200
0400
0000
0F00
F200
0400
0800
0E00
1200
2200
4100
80F0
ENDCHAR
STARTCHAR uni3049
ENCODING 12361
BBX 12 12 1 -1
BITMAP
1000
1040
1020
FC10
1020
1F80
1040
3020
5020
D020
54C0
2300
ENDCHAR
STARTCHAR uni304A
ENCODING 12362
BBX 13 14 0 -2
BITMAP
0800
0820
0F10
7808
0830
0B80
0C40
1820
2810
4810
C810
6A20
19C0
0800
ENDCHAR
STARTCHAR uni304B
ENCODING 12363
BBX 13 14 0 -2
BITMAP
0400
0400
0400
0400
47A0
3890
0888
08A8
0898
1080
1100
2100
4500
8200
ENDCHAR
STARTCHAR uni304C
ENCODING 12364
BBX 13 14 0 -2
BITMAP
0820
0810
0848
0820
8F10
7140
1120
1110
1108
1128
2218
2200
4A00
8400
ENDCHAR
STARTCHAR uni304D
ENCODING 12365
BBX 8 14 2 -2
BITMAP
10
13
1C
E8
07
1C
E2
02
1F
01
80
80
40
3E
ENDCHAR
STARTCHAR uni304E
ENCODING 12366
BBX 12 14 1 -2
BITMAP
1040
1320
1C90
E840
0720
1C00
E200
0200
1F00
0100
8000
8000
4000
3E00
ENDCHAR
STARTCHAR uni304F
ENCODING 12367
BBX 6 14 3 -2
BITMAP
08
04
04
08
10
20
40
80
40
20
10
08
04
04
ENDCHAR
STARTCHAR uni3050
ENCODING 12368
BBX 12 14 1 -2
BITMAP
0840
0420
0510
0880
1040
2000
4000
8000
4000
2000
1000
0800
0400
0400
ENDCHAR
STARTCHAR uni3051
ENCODING 12369
BBX 11 14 1 -2
BITMAP
0100
4080
2080
2080
40E0
4F80
8080
8080
8080
A080
A080
4100
4100
0200
ENDCHAR
STARTCHAR uni3052
ENCODING 12370
BBX 13 14 0 -2
BITMAP
0220
4110
2148
2120
41D0
5F00
8100
8100
8100
A100
A100
4200
4200
0400
ENDCHAR
STARTCHAR uni3053
ENCODING 12371
BBX 10 10 2 1
BITMAP
4000
3F00
0200
0C00
1000
0000
8000
8000
4080
3FC0
ENDCHAR
STARTCHAR uni3054
ENCODING 12372
BBX 12 10 1 1
BITMAP
4040
3F20
0210
0C80
1040
0020
8000
8000
4080
3FC0
ENDCHAR
STARTCHAR uni3055
ENCODING 12373
BBX 10 14 1 -2
BITMAP
1000
08C0
0B00
FC00
0400
0200
0100
0780
2080
4000
4000
4000
2000
1F80
ENDCHAR
STARTCHAR uni3056
ENCODING 12374
BBX 13 14 0 -2
BITMAP
1020
0810
0B48
0C20
F410
0200
0100
0780
2080
4000
4000
4000
2000
1F80
ENDCHAR
STARTCHAR uni3057
ENCODING 12375
BBX 9 13 2 -1
BITMAP
C000
6000
4000
4000
4000
4000
4000
4000
4080
4100
4200
4C00
3000
ENDCHAR
STARTCHAR uni3058
ENCODING 12376
BBX 11 13 2 -1
BITMAP
C080
6040
4120
4080
4040
4000
4000
4000
4080
4100
4200
4C00
3000
ENDCHAR
STARTCHAR uni3059
ENCODING 12377
BBX 11 14 1 -2
BITMAP
0800
0400
0400
07E0
FC00
0400
1C00
2600
2600
1A00
0200
0400
0800
3000
ENDCHAR
STARTCHAR uni305A
ENCODING 12378
BBX 12 14 1 -2
BITMAP
1040
0820
0890
0F40
F820
0800
3800
4C00
4C00
3400
0400
0800
1000
6000
ENDCHAR
STARTCHAR uni305B
ENCODING 12379
BBX 11 13 1 -1
BITMAP
0200
2100
1100
1100
17E0
F900
1100
1100
1500
1200
1000
1000
0FC0
ENDCHAR
STARTCHAR uni305C
ENCODING 12380
BBX 13 14 0 -2
BITMAP
0020
0210
2148
1120
1110
17E0
F900
1100
1100
1500
1200
1000
1000
0FC0
ENDCHAR
STARTCHAR uni305D
ENCODING 12381
BBX 10 13 1 -1
BITMAP
4000
3C00
0200
0C00
3000
43C0
FC00
8800
1000
2000
2000
1000
0F80
ENDCHAR
STARTCHAR uni305E
ENCODING 12382
BBX 12 14 1 -2
BITMAP
0040
4020
3C90
0240
0C20
3000
43C0
FC00
8800
1000
2000
2000
1000
0F80
ENDCHAR
STARTCHAR uni305F
ENCODING 12383
BBX 12 13 1 -1
BITMAP
1000
0800
0800
4E00
3800
1380
10C0
1100
2000
2400
4400
4220
81F0
ENDCHAR
STARTCHAR uni3060
ENCODING 12384
BBX 13 13 0 -1
BITMAP
1020
0810
0848
4E20
3810
1380
10C0
1100
2000
2400
4400
4220
81F0
ENDCHAR
STARTCHAR uni3061
ENCODING 12385
BBX 10 14 1 -2
BITMAP
1000
0800
0A00
8F00
7800
1000
1700
1880
3040
2040
0040
0080
0300
0C00
ENDCHAR
STARTCHAR uni3062
ENCODING 12386
BBX 13 14 0 -2
BITMAP
1020
0810
0A48
8F20
7810
1000
1700
1880
3040
2040
0040
0080
0300
0C00
ENDCHAR
STARTCHAR uni3063
ENCODING 12387
BBX 9 8 2 -1
BITMAP
0600
F900
4080
0080
0080
0100
0200
0C00
ENDCHAR
STARTCHAR uni3064
ENCODING 12388
BBX 11 10 1 -1
BITMAP
0380
0C40
F020
4020
0020
0020
0040
0080
0300
0C00
ENDCHAR
STARTCHAR uni3065
ENCODING 12389
BBX 13 14 0 -2
BITMAP
0020
0010
0048
0020
0390
0C40
F020
4020
0020
0020
0040
0080
0300
0C00
ENDCHAR
STARTCHAR uni3066
ENCODING 12390
BBX 10 12 0 -1
BITMAP
0080
07C0
FE00
4400
0800
1000
1000
1000
1000
1000
0800
07C0
ENDCHAR
STARTCHAR uni3067
ENCODING 12391
BBX 13 12 0 -1
BITMAP
0080
07C0
FE00
4420
0810
1048
1020
1010
1000
1000
0800
07C0
ENDCHAR
STARTCHAR uni3068
ENCODING 12392
BBX 9 13 2 -2
BITMAP
1000
0800
0800
0800
0A00
0700
1800
2000
4000
8000
8000
4000
3F80
ENDCHAR
STARTCHAR uni3069
ENCODING 12393
BBX 11 14 2 -2
BITMAP
0080
1040
0920
0880
0840
0A00
0700
1800
2000
4000
8000
8000
4000
3F80
ENDCHAR
STARTCHAR uni306A
ENCODING 12394
BBX 12 14 1 -2
BITMAP
1000
0800
0800
8E80
7840
1040
1080
1100
2100
2080
4780
48C0
88A0
0710
ENDCHAR
STARTCHAR uni306B
ENCODING 12395
BBX 12 12 1 -1
BITMAP
4000
20E0
2740
4080
4100
8000
8000
8400
A400
A220
41F0
4000
ENDCHAR
STARTCHAR uni306C
ENCODING 12396
BBX 12 13 1 -1
BITMAP
0800
0400
4400
2780
2C40
3420
2420
6820
A9A0
9240
9240
AAA0
4110
ENDCHAR
STARTCHAR uni306D
ENCODING 12397
BBX 13 14 0 -2
BITMAP
1000
0800
0800
0CC0
7B20
0C10
0810
1810
2810
49D0
CA20
AA50
1988
0808
ENDCHAR
STARTCHAR uni306E
ENCODING 12398
BBX 11 10 1 0
BITMAP
1F00
2480
4440
8420
8820
8820
9020
6040
0080
0300
ENDCHAR
STARTCHAR uni306F
ENCODING 12399
BBX 11 13 1 -1
BITMAP
0200
4100
2100
21C0
4F00
4100
8100
8100
8100
A700
A980
4940
4620
ENDCHAR
STARTCHAR uni3070
ENCODING 12400
BBX 13 13 0 -1
BITMAP
0020
4210
2148
2120
41D0
4F00
8100
8100
8100
A700
A980
4940
4620
ENDCHAR
STARTCHAR uni3071
ENCODING 12401
BBX 13 13 0 -1
BITMAP
0030
4248
2148
2130
41C0
4F00
8100
8100
8100
A700
A980
4940
4620
ENDCHAR
STARTCHAR uni3072
ENCODING 12402
BBX 11 11 1 -1
BITMAP
9300
7100
2180
4140
4120
8200
8200
8200
8400
4400
3800
ENDCHAR
STARTCHAR uni3073
ENCODING 12403
BBX 12 14 1 -2
BITMAP
0040
0020
0090
9340
7120
2180
4140
4120
8200
8200
8200
8400
4400
3800
ENDCHAR
STARTCHAR uni3074
ENCODING 12404
BBX 12 14 1 -2
BITMAP
0060
0090
0090
9360
7100
2180
4140
4120
8200
8200
8200
8400
4400
3800
ENDCHAR
STARTCHAR uni3075
ENCODING 12405
BBX 12 13 0 -2
BITMAP
0800
0600
0300
0400
0800
0400
0380
0E60
1210
2230
E240
5A00
0400
ENDCHAR
STARTCHAR uni3076
ENCODING 12406
BBX 13 14 0 -2
BITMAP
0020
0810
0648
0320
0410
0800
0400
0380
0E60
1210
2230
E240
5A00
0400
ENDCHAR
STARTCHAR uni3077
ENCODING 12407
BBX 13 14 0 -2
BITMAP
0030
0848
0648
0330
0400
0800
0400
0380
0E60
1210
2230
E240
5A00
0400
ENDCHAR
STARTCHAR uni3078
ENCODING 12408
BBX 12 6 0 3
BITMAP
0C00
1200
2100
C080
0040
0030
ENDCHAR
STARTCHAR uni3079
ENCODING 12409
BBX 13 9 0 3
BITMAP
0020
0010
0048
0C20
1210
2100
C080
0040
0030
ENDCHAR
STARTCHAR uni307A
ENCODING 12410
BBX 12 9 0 3
BITMAP
0060
0090
0090
0C60
1200
2100
C080
0040
0030
ENDCHAR
STARTCHAR uni307B
ENCODING 12411
BBX 11 13 1 -1
BITMAP
0180
4700
2100
2100
41C0
4F00
8100
8100
8100
A700
A980
4940
4620
ENDCHAR
STARTCHAR uni307C
ENCODING 12412
BBX 13 13 0 -1
BITMAP
01A0
4710
2148
2120
41D0
4F00
8100
8100
8100
A700
A980
4940
4620
ENDCHAR
STARTCHAR uni307D
ENCODING 12413
BBX 13 13 0 -1
BITMAP
01B0
4748
2148
2130
41C0
4F00
8100
8100
8100
A700
A980
4940
4620
ENDCHAR
STARTCHAR uni307E
ENCODING 12414
BBX 11 14 1 -2
BITMAP
0400
0400
07C0
FC00
0400
0780
7C00
0400
0400
0400
7C00
8700
84C0
7820
ENDCHAR
STARTCHAR uni307F
ENCODING 12415
BBX 13 14 0 -2
BITMAP
2700
1900
0100
0200
0220
0220
0420
3420
4F40
88E0
9050
6088
0100
0200
ENDCHAR
STARTCHAR uni3080
ENCODING 12416
BBX 12 14 1 -2
BITMAP
1000
0800
0900
0F80
F800
0800
3840
48A0
4910
4930
3090
1080
1040
0FC0
ENDCHAR
STARTCHAR uni3081
ENCODING 12417
BBX 11 14 1 -2
BITMAP
0200
4100
2100
2100
1F80
3240
5220
8A20
8420
8A20
9020
6040
0080
0300
ENDCHAR
STARTCHAR uni3082
ENCODING 12418
BBX 10 14 2 -2
BITMAP
1000
0800
0800
4E00
3800
1000
5080
9E40
7040
1040
1040
1040
1080
0F00
ENDCHAR
STARTCHAR uni3083
ENCODING 12419
BBX 11 12 1 -1
BITMAP
0800
0400
0200
0CC0
9320
7C20
0820
0940
0480
0400
0200
0100
ENDCHAR
STARTCHAR uni3084
ENCODING 12420
BBX 12 13 0 -2
BITMAP
0200
0100
0480
0B00
10C0
9320
7C10
1010
0920
08C0
0400
0200
0100
ENDCHAR
STARTCHAR uni3085
ENCODING 12421
BBX 11 13 1 -2
BITMAP
0400
0200
0200
8780
4A40
5220
9220
A220
AA20
4640
4380
0400
0800
ENDCHAR
STARTCHAR uni3086
ENCODING 12422
BBX 12 14 1 -2
BITMAP
0200
0100
8100
43C0
4520
8910
9110
9110
A110
A910
4560
4380
0400
1800
ENDCHAR
STARTCHAR uni3087
ENCODING 12423
BBX 10 12 2 -1
BITMAP
1000
0800
0980
0E00
0800
0800
0800
0800
7800
8E00
8980
7040
ENDCHAR
STARTCHAR uni3088
ENCODING 12424
BBX 13 14 0 -2
BITMAP
0400
0200
0200
0220
0270
0380
0200
0200
0200
3E00
4380
8260
8410
7808
ENDCHAR
STARTCHAR uni3089
ENCODING 12425
BBX 10 14 2 -2
BITMAP
E000
1000
1000
2000
4000
8000
8700
9880
A040
C040
0040
0180
0600
1800
ENDCHAR
STARTCHAR uni308A
ENCODING 12426
BBX 8 14 3 -2
BITMAP
80
44
4A
51
51
91
A1
A1
C1
42
02
04
08
10
ENDCHAR
STARTCHAR uni308B
ENCODING 12427
BBX 11 13 1 -1
BITMAP
4600
3900
0200
0400
0800
1780
3840
4020
8020
0C20
1240
1280
0F00
ENDCHAR
STARTCHAR uni308C
ENCODING 12428
BBX 13 14 0 -2
BITMAP
1000
0800
0880
0D40
7A40
0C80
0880
1880
2880
4880
C888
A890
1860
0800
ENDCHAR
STARTCHAR uni308D
ENCODING 12429
BBX 11 13 1 -1
BITMAP
4600
3900
0200
0400
0800
1780
3840
4020
8020
0020
0040
0080
0700
ENDCHAR
STARTCHAR uni308E
ENCODING 12430
BBX 11 12 1 -1
BITMAP
2000
1000
1000
1C00
F3C0
1C20
3020
5020
9020
D040
3080
1300
ENDCHAR
STARTCHAR uni308F
ENCODING 12431
BBX 13 14 0 -2
BITMAP
1000
0800
0800
0C00
79E0
0E10
0808
1808
2808
4808
C810
A810
1820
08C0
ENDCHAR
STARTCHAR uni3090
ENCODING 12432
BBX 12 13 0 -2
BITMAP
4E00
3200
0200
0400
07C0
1820
2810
4810
9010
9190
A250
4220
01C0
ENDCHAR
STARTCHAR uni3091
ENCODING 12433
BBX 12 14 0 -2
BITMAP
2180
1F00
0200
07C0
0C20
1020
2620
4940
0780
0400
0800
30E0
4910
8630
ENDCHAR
STARTCHAR uni3092
ENCODING 12434
BBX 11 14 1 -2
BITMAP
1000
0800
8F00
7800
1000
10C0
1D20
2240
2380
4600
0A00
1200
1000
0FE0
ENDCHAR
STARTCHAR uni3093
ENCODING 12435
BBX 10 14 2 -2
BITMAP
2000
1000
1000
1000
2000
2000
3800
6400
4200
4200
8200
8240
8280
8100
ENDCHAR
STARTCHAR uni309B
ENCODING 12443
BBX 6 4 3 6
BITMAP
90
48
6C
24
ENDCHAR
STARTCHAR uni309C
ENCODING 12444
BBX 4 4 5 7
BITMAP
60
90
90
60
ENDCHAR
STARTCHAR uni309D
ENCODING 12445
BBX 9 9 2 1
BITMAP
8000
4000
2000
1800
0C00
0600
0300
3180
0F80
ENDCHAR
STARTCHAR uni309E
ENCODING 12446
BBX 8 13 2 -1
BITMAP
10
0C
06
23
19
8C
46
22
18
0C
06
33
0F
ENDCHAR
STARTCHAR uni30A1
ENCODING 12449
BBX 9 11 2 -1
BITMAP
FF80
0080
1300
0C00
0800
0800
0800
1000
1000
2000
4000
ENDCHAR
STARTCHAR uni30A2
ENCODING 12450
BBX 11 13 1 -2
BITMAP
FFE0
0040
0080
0B00
0400
0400
0400
0400
0400
0800
0800
1000
2000
ENDCHAR
STARTCHAR uni30A3
ENCODING 12451
BBX 5 11 2 -1
BITMAP
08
08
10
30
50
90
10
10
10
10
10
ENDCHAR
STARTCHAR uni30A4
ENCODING 12452
BBX 7 14 1 -2
BITMAP
02
02
04
08
18
28
48
88
08
08
08
08
08
08
ENDCHAR
STARTCHAR uni30A5
ENCODING 12453
BBX 9 11 2 0
BITMAP
0800
0800
FF80
8080
8100
0100
0200
0400
0800
1000
6000
ENDCHAR
STARTCHAR uni30A6
ENCODING 12454
BBX 11 14 1 -2
BITMAP
0400
0400
0400
FFE0
8020
8020
8040
0040
0080
0100
0200
0400
1800
6000
ENDCHAR
STARTCHAR uni30A7
ENCODING 12455
BBX 11 7 1 2
BITMAP
7FC0
0400
0400
0400
0400
0400
FFE0
ENDCHAR
STARTCHAR uni30A8
ENCODING 12456
BBX 13 8 0 1
BITMAP
7FF0
0200
0200
0200
0200
0200
0200
FFF8
ENDCHAR
STARTCHAR uni30A9
ENCODING 12457
BBX 11 12 1 -1
BITMAP
0400
0400
0400
FFE0
0C00
1400
2400
4400
8400
0400
1400
0800
ENDCHAR
STARTCHAR uni30AA
ENCODING 12458
BBX 13 14 0 -2
BITMAP
0100
0100
0100
0100
FFF8
0100
0300
0500
0900
1100
2100
4100
8500
0200
ENDCHAR
STARTCHAR uni30AB
ENCODING 12459
BBX 10 14 1 -2
BITMAP
0400
0400
0400
0400
7FC0
0840
0840
0840
1040
1040
2040
2080
4280
8100
ENDCHAR
STARTCHAR uni30AC
ENCODING 12460
BBX 13 14 0 -2
BITMAP
0420
0410
0448
0420
7FD0
0840
0840
0840
1040
1040
2040
2080
4280
8100
ENDCHAR
STARTCHAR uni30AD
ENCODING 12461
BBX 10 13 1 -2
BITMAP
2000
2000
1000
1380
FC00
0800
0400
05C0
FE00
0200
0100
0100
0080
ENDCHAR
STARTCHAR uni30AE
ENCODING 12462
BBX 13 14 0 -2
BITMAP
0020
2010
2048
1020
1790
F800
0800
0400
05C0
FE00
0200
0100
0100
0080
ENDCHAR
STARTCHAR uni30AF
ENCODING 12463
BBX 9 13 2 -1
BITMAP
0800
0800
0800
1F80
2080
4080
8100
0100
0200
0400
0800
3000
C000
ENDCHAR
STARTCHAR uni30B0
ENCODING 12464
BBX 13 14 0 -2
BITMAP
0020
0810
0848
0820
1F90
2080
4080
8100
0100
0200
0400
0800
3000
C000
ENDCHAR
STARTCHAR uni30B1
ENCODING 12465
BBX 10 13 1 -1
BITMAP
1000
1000
1000
3FC0
2100
4100
8200
0200
0400
0800
1000
2000
4000
ENDCHAR
STARTCHAR uni30B2
ENCODING 12466
BBX 13 14 0 -2
BITMAP
0020
1010
1048
1020
3FD0
2100
4100
8200
0200
0400
0800
1000
2000
4000
ENDCHAR
STARTCHAR uni30B3
ENCODING 12467
BBX 9 7 2 1
BITMAP
FF80
0080
0080
0080
0100
0100
FF80
ENDCHAR
STARTCHAR uni30B4
ENCODING 12468
BBX 12 11 1 1
BITMAP
0040
0020
0090
0040
FFA0
0080
0080
0080
0100
0100
FF80
ENDCHAR
STARTCHAR uni30B5
ENCODING 12469
BBX 11 13 1 -2
BITMAP
0100
1100
1100
1100
FFE0
1100
1100
1100
1100
1100
0200
0200
0400
ENDCHAR
STARTCHAR uni30B6
ENCODING 12470
BBX 13 14 0 -2
BITMAP
0020
0110
1148
1120
1110
FFE0
1100
1100
1100
1100
1100
0200
0200
0400
ENDCHAR
STARTCHAR uni30B7
ENCODING 12471
BBX 10 12 2 -1
BITMAP
2000
1000
0800
0000
4040
2080
1100
0200
0400
8800
5000
2000
ENDCHAR
STARTCHAR uni30B8
ENCODING 12472
BBX 12 14 1 -2
BITMAP
0040
0020
2090
1040
0820
0000
4040
2080
1100
0200
0400
8800
5000
2000
ENDCHAR
STARTCHAR uni30B9
ENCODING 12473
BBX 11 10 1 0
BITMAP
7F80
0080
0100
0100
0200
0500
0880
1040
2020
C020
ENDCHAR
STARTCHAR uni30BA
ENCODING 12474
BBX 13 13 0 -1
BITMAP
0020
0010
0048
7FA0
0090
0100
0100
0200
0500
0880
1040
2020
C020
ENDCHAR
STARTCHAR uni30BB
ENCODING 12475
BBX 11 12 1 -1
BITMAP
2000
1000
1000
1180
1E40
F040
1080
1100
1000
1000
1000
0FE0
ENDCHAR
STARTCHAR uni30BC
ENCODING 12476
BBX 13 13 0 -1
BITMAP
0020
2010
1048
1020
1190
1E40
F040
1080
1100
1000
1000
1000
0FE0
ENDCHAR
STARTCHAR uni30BD
ENCODING 12477
BBX 9 12 2 -1
BITMAP
0100
8080
4080
2100
2100
0200
0200
0400
0800
1000
2000
C000
ENDCHAR
STARTCHAR uni30BE
ENCODING 12478
BBX 13 14 0 -2
BITMAP
0020
0010
0148
80A0
4090
2100
2100
0200
0200
0400
0800
1000
2000
C000
ENDCHAR
STARTCHAR uni30BF
ENCODING 12479
BBX 9 13 2 -1
BITMAP
0800
0800
0800
1F80
2080
4080
8900
0500
0200
0500
0880
3080
C000
ENDCHAR
STARTCHAR uni30C0
ENCODING 12480
BBX 13 14 0 -2
BITMAP
0020
0810
0848
0820
1F90
2080
4080
8900
0500
0200
0500
0880
3080
C000
ENDCHAR
STARTCHAR uni30C1
ENCODING 12481
BBX 11 14 1 -2
BITMAP
0380
3C00
0400
0400
0400
FFE0
0400
0400
0400
0800
0800
1000
2000
4000
ENDCHAR
STARTCHAR uni30C2
ENCODING 12482
BBX 13 14 0 -2
BITMAP
03A0
7C10
0448
0420
0410
FFE0
0400
0400
0400
0800
0800
1000
2000
4000
ENDCHAR
STARTCHAR uni30C3
ENCODING 12483
BBX 9 10 2 -1
BITMAP
1100
8880
4880
4100
0100
0200
0400
0800
1000
6000
ENDCHAR
STARTCHAR uni30C4
ENCODING 12484
BBX 9 12 2 -1
BITMAP
1100
8880
4480
2500
2100
0200
0200
0400
0800
1000
2000
C000
ENDCHAR
STARTCHAR uni30C5
ENCODING 12485
BBX 13 14 0 -2
BITMAP
0020
0010
1148
88A0
4490
2500
2100
0200
0200
0400
0800
1000
2000
C000
ENDCHAR
STARTCHAR uni30C6
ENCODING 12486
BBX 11 13 1 -2
BITMAP
3F80
0000
0000
0000
FFE0
0200
0200
0400
0400
0800
1000
2000
4000
ENDCHAR
STARTCHAR uni30C7
ENCODING 12487
BBX 13 14 0 -2
BITMAP
0020
3F10
0048
0020
0010
FFE0
0200
0200
0400
0400
0800
1000
2000
4000
ENDCHAR
STARTCHAR uni30C8
ENCODING 12488
BBX 5 14 4 -2
BITMAP
80
80
80
80
C0
A0
90
88
88
80
80
80
80
80
ENDCHAR
STARTCHAR uni30C9
ENCODING 12489
BBX 9 14 4 -2
BITMAP
8200
8100
8480
8200
C100
A000
9000
8800
8800
8000
8000
8000
8000
8000
ENDCHAR
STARTCHAR uni30CA
ENCODING 12490
BBX 11 13 1 -2
BITMAP
0400
0400
0400
0400
FFE0
0400
0400
0400
0800
0800
1000
2000
4000
ENDCHAR
STARTCHAR uni30CB
ENCODING 12491
BBX 13 6 0 2
BITMAP
3FE0
0000
0000
0000
0000
FFF8
ENDCHAR
STARTCHAR uni30CC
ENCODING 12492
BBX 10 11 1 -1
BITMAP
3FC0
0040
0040
0080
0880
0500
0200
0500
0880
3080
C000
ENDCHAR
STARTCHAR uni30CD
ENCODING 12493
BBX 10 14 1 -2
BITMAP
0800
0600
0200
0000
7F00
0200
0400
0C00
1500
24C0
4440
8400
0400
0400
ENDCHAR
STARTCHAR uni30CE
ENCODING 12494
BBX 10 12 0 -1
BITMAP
0040
0040
0040
0080
0080
0100
0200
0400
0800
1000
2000
C000
ENDCHAR
STARTCHAR uni30CF
ENCODING 12495
BBX 12 9 0 0
BITMAP
0900
0880
0840
1040
1020
2020
2010
4010
8000
ENDCHAR
STARTCHAR uni30D0
ENCODING 12496
BBX 13 12 0 0
BITMAP
0020
0010
0048
0920
0890
0840
1040
1020
2020
2010
4010
8000
ENDCHAR
STARTCHAR uni30D1
ENCODING 12497
BBX 13 12 0 0
BITMAP
0030
0048
0048
0930
0880
0840
1040
1020
2020
2010
4010
8000
ENDCHAR
STARTCHAR uni30D2
ENCODING 12498
BBX 8 11 2 0
BITMAP
80
80
84
86
98
E0
80
80
80
80
7F
ENDCHAR
STARTCHAR uni30D3
ENCODING 12499
BBX 11 12 2 0
BITMAP
0080
8040
8120
8480
8640
9800
E000
8000
8000
8000
8000
7F00
ENDCHAR
STARTCHAR uni30D4
ENCODING 12500
BBX 11 12 2 0
BITMAP
00C0
8120
8120
84C0
8600
9800
E000
8000
8000
8000
8000
7F00
ENDCHAR
STARTCHAR uni30D5
ENCODING 12501
BBX 9 10 2 -1
BITMAP
FF80
0080
0080
0100
0100
0200
0400
0800
3000
C000
ENDCHAR
STARTCHAR uni30D6
ENCODING 12502
BBX 13 13 0 -1
BITMAP
0020
0010
0048
FFA0
0090
0080
0100
0100
0200
0400
0800
3000
C000
ENDCHAR
STARTCHAR uni30D7
ENCODING 12503
BBX 13 13 0 -1
BITMAP
0030
0048
0048
FFB0
0080
0080
0100
0100
0200
0400
0800
3000
C000
ENDCHAR
STARTCHAR uni30D8
ENCODING 12504
BBX 13 6 0 2
BITMAP
3000
4800
8400
0300
00C0
0038
ENDCHAR
STARTCHAR uni30D9
ENCODING 12505
BBX 13 10 0 2
BITMAP
0020
0010
0048
0020
3010
4800
8400
0300
00C0
0038
ENDCHAR
STARTCHAR uni30DA
ENCODING 12506
BBX 13 10 0 2
BITMAP
0030
0048
0048
0030
3000
4800
8400
0200
0180
0070
ENDCHAR
STARTCHAR uni30DB
ENCODING 12507
BBX 11 13 1 -2
BITMAP
0400
0400
0400
0400
FFE0
0400
2480
2440
4420
8420
0400
1400
0800
ENDCHAR
STARTCHAR uni30DC
ENCODING 12508
BBX 12 14 1 -2
BITMAP
0040
0520
0490
0440
0400
FFE0
0400
2480
2440
4420
8420
0400
1400
0800
ENDCHAR
STARTCHAR uni30DD
ENCODING 12509
BBX 12 14 1 -2
BITMAP
0060
0490
0490
0460
0400
FFE0
0400
2480
2440
4420
8420
0400
1400
0800
ENDCHAR
STARTCHAR uni30DE
ENCODING 12510
BBX 10 8 1 1
BITMAP
FFC0
0040
0080
0100
0A00
0400
0200
0100
ENDCHAR
STARTCHAR uni30DF
ENCODING 12511
BBX 9 12 2 -1
BITMAP
7000
0C00
0300
0100
7000
0C00
0300
0100
E000
1C00
0380
0080
ENDCHAR
STARTCHAR uni30E0
ENCODING 12512
BBX 11 13 1 -2
BITMAP
0400
0400
0400
0400
0800
0800
0800
1000
1000
2080
4040
FFE0
0020
ENDCHAR
STARTCHAR uni30E1
ENCODING 12513
BBX 10 12 0 -1
BITMAP
0040
0040
0040
1080
0880
0500
0200
0500
0880
1040
2000
C000
ENDCHAR
STARTCHAR uni30E2
ENCODING 12514
BBX 12 11 0 -1
BITMAP
03C0
7C00
0400
0400
07F0
FC00
0400
0400
0400
0400
03F0
ENDCHAR
STARTCHAR uni30E3
ENCODING 12515
BBX 11 10 1 0
BITMAP
2000
1000
17E0
F820
0840
0480
0400
0200
0200
0100
ENDCHAR
STARTCHAR uni30E4
ENCODING 12516
BBX 12 14 0 -2
BITMAP
2000
1000
1000
0800
0BF0
FC10
0420
0240
0200
0100
0100
0080
0080
0040
ENDCHAR
STARTCHAR uni30E5
ENCODING 12517
BBX 11 7 1 1
BITMAP
3F80
0080
0080
0080
0100
0100
FFE0
ENDCHAR
STARTCHAR uni30E6
ENCODING 12518
BBX 13 8 0 1
BITMAP
3FC0
0040
0040
0040
0080
0080
0080
FFF8
ENDCHAR
STARTCHAR uni30E7
ENCODING 12519
BBX 8 7 2 2
BITMAP
FF
01
01
7F
01
01
FF
ENDCHAR
STARTCHAR uni30E8
ENCODING 12520
BBX 10 9 1 1
BITMAP
FFC0
0040
0040
0040
7FC0
0040
0040
0040
FFC0
ENDCHAR
STARTCHAR uni30E9
ENCODING 12521
BBX 9 13 2 -2
BITMAP
3F00
0000
0000
0000
FF80
0080
0100
0100
0200
0400
0800
1000
6000
ENDCHAR
STARTCHAR uni30EA
ENCODING 12522
BBX 6 14 3 -2
BITMAP
04
44
44
44
44
44
44
48
08
10
10
20
40
80
ENDCHAR
STARTCHAR uni30EB
ENCODING 12523
BBX 12 12 0 -1
BITMAP
0100
0900
0900
0900
0900
0900
0910
1120
1140
2180
4100
8000
ENDCHAR
STARTCHAR uni30EC
ENCODING 12524
BBX 9 10 2 0
BITMAP
8000
8000
8000
8080
8100
8200
8400
8800
9000
6000
ENDCHAR
STARTCHAR uni30ED
ENCODING 12525
BBX 8 9 2 1
BITMAP
FF
81
81
81
81
82
82
FF
80
ENDCHAR
STARTCHAR uni30EE
ENCODING 12526
BBX 9 9 2 0
BITMAP
FF80
8080
8100
0100
0200
0400
0800
1000
6000
ENDCHAR
STARTCHAR uni30EF
ENCODING 12527
BBX 11 11 1 -2
BITMAP
FFE0
8020
8020
8040
0040
0080
0100
0200
0400
1800
6000
ENDCHAR
STARTCHAR uni30F0
ENCODING 12528
BBX 13 14 0 -2
BITMAP
0200
0200
0200
3FC0
2200
2200
2200
2200
FFF8
0200
0200
0200
0200
0200
ENDCHAR
STARTCHAR uni30F1
ENCODING 12529
BBX 13 8 0 2
BITMAP
3FC0
0080
0500
0200
0200
0200
0200
FFF8
ENDCHAR
STARTCHAR uni30F2
ENCODING 12530
BBX 11 11 1 -1
BITMAP
3FC0
0040
0040
0080
FFE0
0100
0200
0400
0800
3000
C000
ENDCHAR
STARTCHAR uni30F3
ENCODING 12531
BBX 11 12 1 -1
BITMAP
2000
1000
0800
0020
0040
0080
0100
0200
0400
8800
5000
2000
ENDCHAR
STARTCHAR uni30F4
ENCODING 12532
BBX 13 13 0 -1
BITMAP
0020
0010
0848
0820
FF90
8080
8100
0100
0200
0400
0800
1000
6000
ENDCHAR
STARTCHAR uni30F5
ENCODING 12533
BBX 7 11 3 0
BITMAP
10
10
10
FE
12
12
22
22
22
54
88
ENDCHAR
STARTCHAR uni30F6
ENCODING 12534
BBX 9 11 2 0
BITMAP
1000
1000
1000
1F80
2200
4200
8400
0400
0800
1000
2000
ENDCHAR
STARTCHAR uni30FC
ENCODING 12540
BBX 13 3 0 5
BITMAP
07F0
FC78
6000
ENDCHAR
STARTCHAR uni30FD
ENCODING 12541
BBX 4 5 5 6
BITMAP
80
40
60
30
20
ENDCHAR
STARTCHAR uni30FE
ENCODING 12542
BBX 9 13 2 -1
BITMAP
1000
0C00
0600
4300
3180
1900
0C00
8600
6400
3000
1800
0C00
0800
ENDCHAR
STARTCHAR uni3105
ENCODING 12549
BBX 11 13 1 -2
BITMAP
2000
2000
4000
FFE0
0020
0020
0020
0020
0020
0040
0040
0280
0100
ENDCHAR
STARTCHAR uni3106
ENCODING 12550
BBX 10 13 1 -2
BITMAP
1000
1000
2000
7FC0
0040
0040
0880
0500
0200
0500
0880
3080
C000
ENDCHAR
STARTCHAR uni3107
ENCODING 12551
BBX 11 8 1 1
BITMAP
FFE0
8020
8020
8020
8020
8020
8020
8020
ENDCHAR
STARTCHAR uni3108
ENCODING 12552
BBX 11 11 1 -1
BITMAP
FFE0
4000
4000
4000
4000
4000
4000
4000
4000
4000
3FE0
ENDCHAR
STARTCHAR uni3109
ENCODING 12553
BBX 12 13 0 -2
BITMAP
1000
1000
2000
7FF0
0410
0410
0410
0810
0810
1020
2020
4140
8080
ENDCHAR
STARTCHAR uni310A
ENCODING 12554
BBX 13 13 0 -2
BITMAP
0200
0200
0200
0200
FFF8
0400
0400
0800
0800
1040
2020
7FF0
0010
ENDCHAR
STARTCHAR uni310B
ENCODING 12555
BBX 11 13 1 -2
BITMAP
FF00
0100
0200
0400
0FE0
0020
0020
0020
0020
0040
0040
0280
0100
ENDCHAR
STARTCHAR uni310C
ENCODING 12556
BBX 12 14 0 -2
BITMAP
0200
1200
1200
2200
7FF0
0410
0410
0410
0810
0810
1020
2020
4140
8080
ENDCHAR
STARTCHAR uni310D
ENCODING 12557
BBX 8 13 2 -2
BITMAP
11
11
22
22
44
44
88
44
44
22
22
11
11
ENDCHAR
STARTCHAR uni310E
ENCODING 12558
BBX 13 13 0 -2
BITMAP
FFF8
0400
0400
0800
1000
3FE0
0020
0020
0020
0020
0020
0140
0080
ENDCHAR
STARTCHAR uni310F
ENCODING 12559
BBX 13 12 0 -2
BITMAP
3FF8
1000
1000
1000
1000
1000
1000
1000
2000
2000
4000
8000
ENDCHAR
STARTCHAR uni3110
ENCODING 12560
BBX 8 13 2 -2
BITMAP
01
41
41
41
41
41
87
99
E1
01
01
01
01
ENDCHAR
STARTCHAR uni3111
ENCODING 12561
BBX 4 13 4 -2
BITMAP
10
10
20
20
40
40
80
40
40
20
20
10
10
ENDCHAR
STARTCHAR uni3112
ENCODING 12562
BBX 11 12 1 -2
BITMAP
FFE0
0400
0400
0400
0400
0400
0400
0400
0400
0400
0400
0400
ENDCHAR
STARTCHAR uni3113
ENCODING 12563
BBX 13 12 0 -1
BITMAP
0200
0200
2220
2220
2220
2220
2220
3FE0
0200
0200
0200
FFF8
ENDCHAR
STARTCHAR uni3114
ENCODING 12564
BBX 7 14 2 -2
BITMAP
04
08
10
22
44
88
18
28
48
88
08
08
08
08
ENDCHAR
STARTCHAR uni3115
ENCODING 12565
BBX 12 13 0 -2
BITMAP
3FF0
0010
0010
0010
3FF0
2000
2000
2000
2000
2000
4000
4000
8000
ENDCHAR
STARTCHAR uni3116
ENCODING 12566
BBX 9 12 2 -1
BITMAP
FF80
8080
8080
A080
9080
8880
8480
8280
8080
8080
8080
FF80
ENDCHAR
STARTCHAR uni3117
ENCODING 12567
BBX 10 12 1 -2
BITMAP
FFC0
1040
1040
1040
1040
1040
1440
1280
1100
1000
1000
1000
ENDCHAR
STARTCHAR uni3118
ENCODING 12568
BBX 13 14 0 -2
BITMAP
0400
0400
0400
FFF8
0800
0800
0800
1FE0
0020
0020
0040
0040
0080
0100
ENDCHAR
STARTCHAR uni3119
ENCODING 12569
BBX 11 13 1 -2
BITMAP
0400
0400
0400
0400
0800
0800
0800
1000
1000
2080
4040
FFE0
0020
ENDCHAR
STARTCHAR uni311A
ENCODING 12570
BBX 10 13 2 -2
BITMAP
8040
4080
2100
1200
0400
0800
0800
0800
0800
0800
0800
0800
0800
ENDCHAR
STARTCHAR uni311B
ENCODING 12571
BBX 12 11 0 -1
BITMAP
FFF0
0200
0200
0200
1E00
2000
4000
4000
4020
2040
1F80
ENDCHAR
STARTCHAR uni311C
ENCODING 12572
BBX 12 12 0 -1
BITMAP
0200
0200
FFF0
0200
0200
1E00
2000
4000
4000
4020
2040
1F80
ENDCHAR
STARTCHAR uni311D
ENCODING 12573
BBX 13 12 0 -1
BITMAP
1080
1080
1080
FFF8
1080
1080
1080
1100
1100
1200
1000
0FE0
ENDCHAR
STARTCHAR uni311E
ENCODING 12574
BBX 13 13 0 -2
BITMAP
FFF8
1200
1200
1200
2200
3FF0
0210
0410
0410
0820
1020
2040
4080
ENDCHAR
STARTCHAR uni311F
ENCODING 12575
BBX 11 12 2 -1
BITMAP
F800
0800
0800
0800
0800
0800
0400
0400
0200
0100
0080
0060
ENDCHAR
STARTCHAR uni3120
ENCODING 12576
BBX 9 13 2 -2
BITMAP
1000
1000
2100
2100
4200
8200
FC00
0800
1000
2200
4100
FF80
0080
ENDCHAR
STARTCHAR uni3121
ENCODING 12577
BBX 11 12 0 -1
BITMAP
3FE0
0020
0020
0840
0440
0280
0100
0280
0440
0820
3020
C000
ENDCHAR
STARTCHAR uni3122
ENCODING 12578
BBX 11 13 1 -2
BITMAP
FF80
2080
2080
2100
4100
7FE0
0020
0020
0020
0020
0040
0040
0080
ENDCHAR
STARTCHAR uni3123
ENCODING 12579
BBX 10 13 2 -2
BITMAP
4000
4000
4000
4000
8000
FFC0
0040
0040
0040
0080
0080
0100
0200
ENDCHAR
STARTCHAR uni3124
ENCODING 12580
BBX 13 14 0 -2
BITMAP
0400
0400
0400
0400
FFF8
0900
0900
0900
0900
1100
1100
2100
40F8
8000
ENDCHAR
STARTCHAR uni3125
ENCODING 12581
BBX 11 12 1 -1
BITMAP
0400
0400
0400
0400
0800
0800
0800
1000
1000
2000
4000
FFE0
ENDCHAR
STARTCHAR uni3126
ENCODING 12582
BBX 13 13 0 -2
BITMAP
0880
0880
0880
0880
0880
0880
0880
0880
1088
1088
2088
4078
8000
ENDCHAR
STARTCHAR uni3127
ENCODING 12583
BBX 1 14 6 -2
BITMAP
80
80
80
80
80
80
80
80
80
80
80
80
80
80
ENDCHAR
STARTCHAR uni3128
ENCODING 12584
BBX 11 12 0 -1
BITMAP
0020
0020
0020
0840
0440
0280
0100
0280
0440
0820
3020
C000
ENDCHAR
STARTCHAR uni3129
ENCODING 12585
BBX 10 11 2 -1
BITMAP
0040
4040
4040
4040
4040
4040
8040
87C0
F840
0040
0040
ENDCHAR
STARTCHAR uni3220
ENCODING 12832
BBX 13 13 0 -1
BITMAP
2020
4010
4010
8008
8008
8008
BFE8
8008
8008
8008
4010
4010
2020
ENDCHAR
STARTCHAR uni3221
ENCODING 12833
BBX 13 13 0 -1
BITMAP
2020
4010
4010
9FC8
8008
8008
8008
8008
8008
BFE8
4010
4010
2020
ENDCHAR
STARTCHAR uni3222
ENCODING 12834
BBX 13 13 0 -1
BITMAP
2020
4010
5FD0
8008
8008
8008
8F88
8008
8008
8008
5FD0
4010
2020
ENDCHAR
STARTCHAR uni3223
ENCODING 12835
BBX 13 13 0 -1
BITMAP
2020
4010
5FD0
9548
9548
9548
95C8
9848
9048
9FC8
4010
4010
2020
ENDCHAR
STARTCHAR uni3224
ENCODING 12836
BBX 13 13 0 -1
BITMAP
2020
4010
5FD0
8408
8408
9F88
8888
8888
8888
BFE8
4010
4010
2020
ENDCHAR
STARTCHAR uni3225
ENCODING 12837
BBX 13 13 0 -1
BITMAP
2020
4010
4410
8208
8008
BFE8
8008
8008
8888
8848
5050
4010
2020
ENDCHAR
STARTCHAR uni3226
ENCODING 12838
BBX 13 13 0 -1
BITMAP
2020
4410
4410
8408
84C8
8708
BC08
8408
8448
8448
43D0
4010
2020
ENDCHAR
STARTCHAR uni3227
ENCODING 12839
BBX 13 13 0 -1
BITMAP
2020
4110
4910
8908
8908
8888
8888
9088
9048
A028
8008
4010
2020
ENDCHAR
STARTCHAR uni3228
ENCODING 12840
BBX 13 13 0 -1
BITMAP
2020
4410
4410
8408
9F08
8508
8508
8508
8948
8948
50D0
4010
2020
ENDCHAR
STARTCHAR uni3229
ENCODING 12841
BBX 13 13 0 -1
BITMAP
2020
4210
4210
8208
8208
BFE8
8208
8208
8208
8208
4210
4010
2020
ENDCHAR
STARTCHAR uni3231
ENCODING 12849
BBX 13 14 0 -2
BITMAP
2020
5090
5290
BBE8
9488
9088
BBE8
B488
D1C8
92A8
9488
5090
5090
2020
ENDCHAR
STARTCHAR uni32A3
ENCODING 12963
BBX 12 12 1 -1
BITMAP
0F00
30C0
4020
5FA0
8210
8B90
8A10
8A10
5FA0
4020
30C0
0F00
ENDCHAR
STARTCHAR uni338E
ENCODING 13198
BBX 12 11 0 -2
BITMAP
A8D0
5520
5520
5520
54C0
5480
54E0
5510
0110
0110
00E0
ENDCHAR
STARTCHAR uni338F
ENCODING 13199
BBX 11 14 1 -2
BITMAP
8000
8000
8000
89A0
9240
A240
C240
A180
9100
89C0
8220
0220
0220
01C0
ENDCHAR
STARTCHAR uni339C
ENCODING 13212
BBX 13 8 0 1
BITMAP
A950
54A8
54A8
54A8
54A8
54A8
54A8
54A8
ENDCHAR
STARTCHAR uni339D
ENCODING 13213
BBX 13 8 0 1
BITMAP
75B0
8A48
8248
8248
8248
8248
8A48
7248
ENDCHAR
STARTCHAR uni339E
ENCODING 13214
BBX 13 11 0 1
BITMAP
8000
8000
8000
89B0
9248
A248
C248
A248
9248
8A48
8648
ENDCHAR
STARTCHAR uni33A1
ENCODING 13217
BBX 13 11 0 1
BITMAP
0030
0048
0008
B610
4920
4978
4900
4900
4900
4900
4900
ENDCHAR
STARTCHAR uni33C4
ENCODING 13252
BBX 11 8 1 1
BITMAP
71C0
8A20
8200
8200
8200
8200
8A20
71C0
ENDCHAR
STARTCHAR uni33CE
ENCODING 13262
BBX 12 11 0 1
BITMAP
9410
9630
A630
A550
C550
A550
A490
A490
9490
9410
9410
ENDCHAR
STARTCHAR uni33D1
ENCODING 13265
BBX 9 11 2 1
BITMAP
8000
8000
8000
9700
8880
8880
8880
8880
8880
8880
8880
ENDCHAR
STARTCHAR uni33D2
ENCODING 13266
BBX 11 14 1 -2
BITMAP
8000
8000
8000
91A0
AA40
AA40
AA40
A980
A900
A9C0
9220
0220
0220
01C0
ENDCHAR
STARTCHAR uni33D5
ENCODING 13269
BBX 12 11 0 1
BITMAP
0010
0010
0090
A810
5490
5490
5490
5490
5490
5490
5490
ENDCHAR
STARTCHAR uni3400
ENCODING 13312
BBX 13 14 0 -2
BITMAP
0880
0880
0880
0880
0880
0880
78F0
0880
0880
0880
0880
0880
0880
FFF8
ENDCHAR
STARTCHAR uni3401
ENCODING 13313
BBX 13 13 0 -2
BITMAP
FFF8
0200
0200
7FF0
4210
4210
4510
4490
4850
5050
4010
7FF0
4010
ENDCHAR
STARTCHAR uni3402
ENCODING 13314
BBX 13 14 0 -2
BITMAP
0400
05F8
FE00
0410
0410
03F0
2080
2080
38B8
E3C0
2088
2888
3078
2000
ENDCHAR
STARTCHAR uni3403
ENCODING 13315
BBX 13 14 0 -2
BITMAP
0200
0500
0880
1040
2020
4010
FFF8
0200
0200
0200
0200
0200
0200
0200
ENDCHAR
STARTCHAR uni3404
ENCODING 13316
BBX 12 14 1 -2
BITMAP
0400
0400
0400
FFE0
0400
4400
4400
8400
FFF0
0400
0400
0400
0400
0400
ENDCHAR
STARTCHAR uni3405
ENCODING 13317
BBX 11 14 1 -2
BITMAP
0040
0040
4040
2080
1080
0900
0500
0200
0500
0880
1040
2040
4020
8020
ENDCHAR
STARTCHAR uni3406
ENCODING 13318
BBX 12 14 0 -2
BITMAP
00F0
3F00
2000
3FE0
2020
3FE0
2020
3FE0
2000
3FF0
2010
4010
4010
8060
ENDCHAR
STARTCHAR uni3407
ENCODING 13319
BBX 13 14 0 -2
BITMAP
0400
0400
7F80
0880
0880
1090
2070
C000
7FE0
0180
0E08
3008
4008
3FF8
ENDCHAR
STARTCHAR uni3408
ENCODING 13320
BBX 13 14 0 -2
BITMAP
0C00
0200
0500
0880
3060
C018
0000
7FE0
0180
0600
1808
2008
2008
1FF8
ENDCHAR
STARTCHAR uni3409
ENCODING 13321
BBX 13 13 0 -2
BITMAP
FFF8
0200
0200
0200
0200
0E00
0000
7FE0
0180
0E08
3008
4008
3FF8
ENDCHAR
STARTCHAR uni340A
ENCODING 13322
BBX 13 14 0 -2
BITMAP
0200
0200
FFF8
0200
0200
7FF0
0000
0000
7FE0
0180
0E08
3008
4008
3FF8
ENDCHAR
STARTCHAR uni340B
ENCODING 13323
BBX 13 14 0 -2
BITMAP
0200
0200
3FE0
0200
0200
FFF8
0000
0000
7FE0
0180
0E08
3008
4008
3FF8
ENDCHAR
STARTCHAR uni340C
ENCODING 13324
BBX 13 14 0 -2
BITMAP
1000
1000
3FF0
4200
8200
2260
23A0
2E20
F220
2220
2268
2008
2008
1FF8
ENDCHAR
STARTCHAR uni340D
ENCODING 13325
BBX 12 14 1 -2
BITMAP
01E0
FE00
0000
4840
2440
2480
0000
FFC0
0300
0C00
3010
4010
4010
3FF0
ENDCHAR
STARTCHAR uni340E
ENCODING 13326
BBX 13 14 0 -2
BITMAP
0400
0200
FFF8
1040
0880
0700
18C0
E038
0000
FFE0
0380
3C08
4008
3FF8
ENDCHAR
STARTCHAR uni340F
ENCODING 13327
BBX 13 13 0 -2
BITMAP
7FF0
0400
0400
3FE0
0820
0820
FFF8
0000
FFE0
0380
3C08
4008
3FF8
ENDCHAR
STARTCHAR uni3410
ENCODING 13328
BBX 13 14 0 -2
BITMAP
2000
FDF0
2510
4510
28A0
1040
28A0
C318
0000
FFE0
0380
3C08
4008
3FF8
ENDCHAR
STARTCHAR uni3411
ENCODING 13329
BBX 13 14 0 -2
BITMAP
1000
1FE0
3040
4880
0700
1AC0
E138
0400
0200
FFE0
0380
3C08
4008
3FF8
ENDCHAR
STARTCHAR uni3412
ENCODING 13330
BBX 13 14 0 -2
BITMAP
7FF0
0810
3060
C000
1FE0
1020
1FE0
0000
7FE0
0180
0E08
3008
4008
3FF8
ENDCHAR
STARTCHAR uni3413
ENCODING 13331
BBX 13 13 0 -2
BITMAP
FFF8
0020
3E20
2220
3E20
00E0
0000
7FE0
0180
0E08
3008
4008
3FF8
ENDCHAR
STARTCHAR uni3414
ENCODING 13332
BBX 13 14 0 -2
BITMAP
0400
0200
FFF8
0000
3FE0
2020
3FE0
0000
7FE0
0180
0E08
3008
4008
3FF8
ENDCHAR
STARTCHAR uni3415
ENCODING 13333
BBX 12 14 1 -2
BITMAP
0400
0400
FFE0
8420
FFE0
8420
FFE0
0000
FFC0
0300
1C10
6010
8010
7FF0
ENDCHAR
STARTCHAR uni3416
ENCODING 13334
BBX 13 14 0 -2
BITMAP
1080
1080
FE80
1080
1080
7E80
0080
0080
7E80
4280
4280
4288
7E88
4278
ENDCHAR
STARTCHAR uni3417
ENCODING 13335
BBX 13 14 0 -2
BITMAP
0420
3F40
0480
FFF8
0220
0FC0
3010
CFF0
0000
FFE0
0380
3C08
4008
3FF8
ENDCHAR
STARTCHAR uni3418
ENCODING 13336
BBX 13 14 0 -2
BITMAP
0200
2220
1240
7FF0
0A80
3260
C218
0000
7FE0
0180
0E08
3008
4008
3FF8
ENDCHAR
STARTCHAR uni3419
ENCODING 13337
BBX 13 13 0 -2
BITMAP
7FF0
0000
3FE0
2020
3FE0
1040
FFF8
0000
FFE0
0380
3C08
4008
3FF8
ENDCHAR
STARTCHAR uni341A
ENCODING 13338
BBX 13 14 0 -2
BITMAP
7FF0
0400
3FE0
0820
FFF8
0000
3FE0
2020
3FE0
0000
7FE0
1E00
6008
1FF8
ENDCHAR
STARTCHAR uni341B
ENCODING 13339
BBX 13 14 0 -2
BITMAP
1100
1100
2FF8
6200
A7F0
2A10
2210
23F0
0000
FFE0
0380
3C08
4008
3FF8
ENDCHAR
STARTCHAR uni341C
ENCODING 13340
BBX 13 14 0 -2
BITMAP
1480
1280
1080
FDE0
10A0
94A0
58A0
10A0
38A0
54A0
9320
1128
1228
7418
ENDCHAR
STARTCHAR uni341D
ENCODING 13341
BBX 13 14 0 -2
BITMAP
2200
F3F0
2410
33D0
E250
23D0
2010
E060
0000
FFE0
0380
3C08
4008
3FF8
ENDCHAR
STARTCHAR uni341E
ENCODING 13342
BBX 13 14 0 -2
BITMAP
1040
7FF0
1040
1FC0
1040
1FC0
1040
FFF8
2020
7FD0
8188
0E10
1010
0FF0
ENDCHAR
STARTCHAR uni341F
ENCODING 13343
BBX 12 14 1 -2
BITMAP
1100
F1E0
1100
71C0
1100
F1E0
1100
0000
FFC0
0300
1C10
6010
8010
7FF0
ENDCHAR
STARTCHAR uni3420
ENCODING 13344
BBX 13 14 0 -2
BITMAP
0740
F840
5240
7E40
0440
FF48
0848
3838
0000
FFE0
0380
3C08
4008
3FF8
ENDCHAR
STARTCHAR uni3421
ENCODING 13345
BBX 13 14 0 -2
BITMAP
2000
23F8
2040
F880
2BF8
2AA8
2AA8
2A18
2840
2BF8
28A0
4910
4808
87F8
ENDCHAR
STARTCHAR uni3422
ENCODING 13346
BBX 13 14 0 -2
BITMAP
4070
2F80
8520
47E0
0040
2FF8
4080
8380
0000
FFE0
0380
3C08
4008
3FF8
ENDCHAR
STARTCHAR uni3423
ENCODING 13347
BBX 13 14 0 -2
BITMAP
0100
7FF8
4100
7FF8
5110
5FF0
5110
7FF8
4100
5FE0
40C0
4708
4808
87F8
ENDCHAR
STARTCHAR uni3424
ENCODING 13348
BBX 13 14 0 -2
BITMAP
2080
27F0
2080
FBE0
2A20
2BE0
2A20
2BE0
2A20
2BE0
2A20
4FF0
4948
87F8
ENDCHAR
STARTCHAR uni3425
ENCODING 13349
BBX 13 14 0 -2
BITMAP
2020
5720
7578
A728
7528
2F28
7528
35A8
CE58
0000
7FE0
1E00
6008
1FF8
ENDCHAR
STARTCHAR uni3426
ENCODING 13350
BBX 13 14 0 -2
BITMAP
2730
4410
7770
4110
FFF8
2120
5FD0
8508
0200
FFE0
0380
3C08
4008
3FF8
ENDCHAR
STARTCHAR uni3427
ENCODING 13351
BBX 13 14 0 -2
BITMAP
0100
2100
1100
1100
0100
FFF8
0310
0520
0900
1100
2100
C100
0100
0700
ENDCHAR
STARTCHAR uni3428
ENCODING 13352
BBX 12 13 0 -2
BITMAP
7DF0
0410
28A0
1040
FDF0
1450
1040
1040
1040
1040
1040
1040
71C0
ENDCHAR
STARTCHAR uni3429
ENCODING 13353
BBX 13 14 0 -2
BITMAP
28A0
28A0
28A0
7DF0
28A0
28A0
28A0
FDF8
28A0
28A0
28A0
4920
4920
8A20
ENDCHAR
STARTCHAR uni342A
ENCODING 13354
BBX 13 14 0 -2
BITMAP
0400
0200
FFF8
0000
0200
2220
2220
2220
3FE0
0200
0500
0880
3060
C018
ENDCHAR
STARTCHAR uni342B
ENCODING 13355
BBX 13 14 0 -2
BITMAP
0400
0200
0200
FFF8
0080
0080
4910
4510
4210
4510
4890
5010
7FF0
0010
ENDCHAR
STARTCHAR uni342C
ENCODING 13356
BBX 13 14 0 -2
BITMAP
0400
0200
FFF8
0800
1040
2020
7FF0
0010
1240
1240
1240
2240
2248
4238
ENDCHAR
STARTCHAR uni342D
ENCODING 13357
BBX 13 14 0 -2
BITMAP
0400
0200
FFF8
0000
7FF0
4010
4F90
4890
4890
4890
4F90
4010
7FF0
4010
ENDCHAR
STARTCHAR uni342E
ENCODING 13358
BBX 13 14 0 -2
BITMAP
0400
0200
FFF8
2010
C888
7FF0
0880
3FE0
0880
FFF8
0910
38A0
CC60
0818
ENDCHAR
STARTCHAR uni342F
ENCODING 13359
BBX 13 14 0 -2
BITMAP
0200
FFF8
1040
3FE0
2020
3FE0
0000
3FE0
0200
FFF8
1240
3FE0
D058
1FC0
ENDCHAR
STARTCHAR uni3430
ENCODING 13360
BBX 13 14 0 -2
BITMAP
1000
17F8
2408
2408
6408
A408
2408
2408
2408
2408
2408
2408
27F8
2408
ENDCHAR
STARTCHAR uni3431
ENCODING 13361
BBX 13 14 0 -2
BITMAP
0200
0200
0500
0880
1140
2220
CC98
3100
0200
0C40
3080
0100
0600
1800
ENDCHAR
STARTCHAR uni3432
ENCODING 13362
BBX 13 14 0 -2
BITMAP
1080
1080
1080
2080
2FF8
6080
A080
2140
2140
2140
2220
2220
2410
2808
ENDCHAR
STARTCHAR uni3433
ENCODING 13363
BBX 13 14 0 -2
BITMAP
1000
17F8
2220
2220
6220
A220
2220
2220
2220
2220
2220
2428
2428
2818
ENDCHAR
STARTCHAR uni3434
ENCODING 13364
BBX 12 14 0 -2
BITMAP
1100
1100
1100
21F0
2210
6210
A510
28A0
20A0
2040
2080
2100
2200
2400
ENDCHAR
STARTCHAR uni3435
ENCODING 13365
BBX 13 14 0 -2
BITMAP
1000
17F0
1080
2080
2080
6080
AFF8
2080
2080
2080
2080
2080
2080
2380
ENDCHAR
STARTCHAR uni3436
ENCODING 13366
BBX 13 14 0 -2
BITMAP
1000
17F0
1410
2410
2410
6410
A410
27F0
2400
2400
2400
2408
2408
23F8
ENDCHAR
STARTCHAR uni3437
ENCODING 13367
BBX 13 14 0 -2
BITMAP
1000
17E0
1020
2220
2220
6220
A3F8
2008
2008
27E8
2008
2008
2008
2030
ENDCHAR
STARTCHAR uni3438
ENCODING 13368
BBX 13 14 0 -2
BITMAP
1200
1200
1200
23F8
2408
6410
A880
2080
2080
2140
2140
2220
2410
2808
ENDCHAR
STARTCHAR uni3439
ENCODING 13369
BBX 13 14 0 -2
BITMAP
1200
1200
23F0
2400
6BE0
A000
27E0
2020
2020
2020
2028
2028
2018
2008
ENDCHAR
STARTCHAR uni343A
ENCODING 13370
BBX 13 14 0 -2
BITMAP
1240
1240
1440
2440
2C40
7440
A440
2440
24A0
24A0
24A0
2510
2510
2608
ENDCHAR
STARTCHAR uni343B
ENCODING 13371
BBX 12 14 0 -2
BITMAP
1080
1080
1080
27F0
2490
6490
A490
2550
2630
2410
2410
2410
2410
2470
ENDCHAR
STARTCHAR uni343C
ENCODING 13372
BBX 13 14 0 -2
BITMAP
1020
10A0
1720
2120
2120
6120
A7F8
2120
2120
2120
2120
2220
2220
2420
ENDCHAR
STARTCHAR uni343D
ENCODING 13373
BBX 13 14 0 -2
BITMAP
1000
17E0
1420
2420
2660
6560
A4A0
24A0
2560
2668
2428
2428
2818
3008
ENDCHAR
STARTCHAR uni343E
ENCODING 13374
BBX 13 14 0 -2
BITMAP
1000
13F0
1000
2000
2000
67F8
A120
2120
2120
2120
2220
2228
2428
2818
ENDCHAR
STARTCHAR uni343F
ENCODING 13375
BBX 13 14 0 -2
BITMAP
1000
1070
1780
2080
2080
67F0
A080
2080
2FF8
2080
2080
2080
2080
2380
ENDCHAR
STARTCHAR uni3440
ENCODING 13376
BBX 13 14 0 -2
BITMAP
1080
1080
1080
2080
27F8
6080
A080
2140
2140
2140
2220
2320
2490
2808
ENDCHAR
STARTCHAR uni3441
ENCODING 13377
BBX 13 14 0 -2
BITMAP
1080
1080
1488
2488
2488
6488
A7F8
2080
2488
2488
2488
2488
27F8
2008
ENDCHAR
STARTCHAR uni3442
ENCODING 13378
BBX 13 14 0 -2
BITMAP
2000
2FF8
2080
4080
4FF8
C888
4888
4948
4A28
4C18
4808
4808
4808
4838
ENDCHAR
STARTCHAR uni3443
ENCODING 13379
BBX 13 14 0 -2
BITMAP
1020
1220
1220
2420
2578
6F28
A228
2228
2528
2F48
2148
2088
2108
2230
ENDCHAR
STARTCHAR uni3444
ENCODING 13380
BBX 13 14 0 -2
BITMAP
1000
13F0
1290
2250
2210
6FF8
A410
2490
2450
2410
27F8
2010
2010
2060
ENDCHAR
STARTCHAR uni3445
ENCODING 13381
BBX 13 14 0 -2
BITMAP
1200
1200
1200
23F8
2480
6480
A880
2080
20F0
2080
2080
2080
2080
2FF8
ENDCHAR
STARTCHAR uni3446
ENCODING 13382
BBX 13 14 0 -2
BITMAP
1000
17F0
2410
2410
6410
A410
27F0
2240
2240
2240
2240
2448
2448
2838
ENDCHAR
STARTCHAR uni3447
ENCODING 13383
BBX 13 14 0 -2
BITMAP
1200
1200
13F0
2410
2820
67F8
A008
2008
23F8
2008
2008
2008
27F8
2008
ENDCHAR
STARTCHAR uni3448
ENCODING 13384
BBX 12 14 0 -2
BITMAP
1100
1100
17F0
2200
2280
6480
A480
27F0
2080
24A0
2490
2890
2080
2380
ENDCHAR
STARTCHAR uni3449
ENCODING 13385
BBX 13 14 0 -2
BITMAP
2000
3FE0
3020
5020
57A0
D220
5220
53A0
54A0
5AA8
5128
5128
5218
6408
ENDCHAR
STARTCHAR uni344A
ENCODING 13386
BBX 13 14 0 -2
BITMAP
1080
1040
1000
27F8
2120
6120
A120
2530
2528
2928
2120
2220
2220
24E0
ENDCHAR
STARTCHAR uni344B
ENCODING 13387
BBX 13 14 0 -2
BITMAP
1140
1140
1140
2FF8
2948
6948
A948
2FF8
2948
2948
2948
2948
2FF8
2808
ENDCHAR
STARTCHAR uni344C
ENCODING 13388
BBX 13 14 0 -2
BITMAP
1000
17F8
1400
25F0
2440
6440
A440
25F0
2440
2440
2440
25F0
2400
27F8
ENDCHAR
STARTCHAR uni344D
ENCODING 13389
BBX 13 14 0 -2
BITMAP
1080
1080
17F0
2080
23E0
6080
AFF8
21C0
22A0
22A0
2490
2888
2080
2080
ENDCHAR
STARTCHAR uni344E
ENCODING 13390
BBX 13 14 0 -2
BITMAP
1248
1490
2920
2490
6248
A248
2000
2080
2888
2888
2888
2888
2FF8
2008
ENDCHAR
STARTCHAR uni344F
ENCODING 13391
BBX 13 14 0 -2
BITMAP
1080
1040
17F8
2408
2020
6020
A7F8
2020
2220
2120
2020
2020
2020
20E0
ENDCHAR
STARTCHAR uni3450
ENCODING 13392
BBX 13 14 0 -2
BITMAP
1080
1080
10F0
2080
2080
6FF8
A000
2080
24A0
2490
2890
2080
2080
2380
ENDCHAR
STARTCHAR uni3451
ENCODING 13393
BBX 13 14 0 -2
BITMAP
1080
1100
17F8
2408
2408
67F8
A408
2408
27F8
2408
2408
2408
27F8
2408
ENDCHAR
STARTCHAR uni3452
ENCODING 13394
BBX 13 14 0 -2
BITMAP
0200
0500
0880
3060
DFD8
0200
3FE0
2220
2220
3FE0
0500
0880
1040
6030
ENDCHAR
STARTCHAR uni3453
ENCODING 13395
BBX 13 14 0 -2
BITMAP
1100
1240
2420
2FF0
6110
A100
2FF8
2200
23E0
2620
2940
3080
2360
2C18
ENDCHAR
STARTCHAR uni3454
ENCODING 13396
BBX 13 14 0 -2
BITMAP
1000
17F8
2080
2100
67F0
A410
2490
2490
2490
2490
2490
2140
2220
2410
ENDCHAR
STARTCHAR uni3455
ENCODING 13397
BBX 12 14 0 -2
BITMAP
1080
1490
1490
27F0
2100
6100
A1F0
2210
2520
28A0
2040
2080
2300
2C00
ENDCHAR
STARTCHAR uni3456
ENCODING 13398
BBX 12 14 0 -2
BITMAP
1240
1240
1440
25F0
2D50
7550
A550
2550
25F0
2550
2440
2440
2440
2440
ENDCHAR
STARTCHAR uni3457
ENCODING 13399
BBX 13 14 0 -2
BITMAP
1080
1100
17E0
2420
27E0
6420
A7E8
2430
2FE0
2060
20A0
2320
2C20
20E0
ENDCHAR
STARTCHAR uni3458
ENCODING 13400
BBX 13 14 0 -2
BITMAP
1050
1048
1040
27F8
2040
6550
A550
2FD0
2550
2520
2528
2528
2958
2088
ENDCHAR
STARTCHAR uni3459
ENCODING 13401
BBX 13 14 0 -2
BITMAP
1000
1FF0
1500
2520
2720
6520
A520
2720
2520
2520
25A0
2F28
2128
2118
ENDCHAR
STARTCHAR uni345A
ENCODING 13402
BBX 13 14 0 -2
BITMAP
1000
1F78
2548
2548
6548
AF50
2550
2548
2F48
2548
2548
2970
2940
3640
ENDCHAR
STARTCHAR uni345B
ENCODING 13403
BBX 13 14 0 -2
BITMAP
1080
1080
2FF8
2080
6080
A7F0
2490
2490
27F0
21C0
22A0
2490
2888
2080
ENDCHAR
STARTCHAR uni345C
ENCODING 13404
BBX 13 14 0 -2
BITMAP
1418
14E0
2480
2E80
6480
A4F8
2490
2690
2C90
2490
2490
2490
2490
2D10
ENDCHAR
STARTCHAR uni345D
ENCODING 13405
BBX 13 14 0 -2
BITMAP
1000
1FF8
1080
27F0
2080
6080
AFF8
2000
2220
2FF8
2220
2220
2420
2820
ENDCHAR
STARTCHAR uni345E
ENCODING 13406
BBX 13 14 0 -2
BITMAP
1080
1290
2290
24A0
6140
A220
2C18
2220
2220
2FF8
2220
2220
2420
2820
ENDCHAR
STARTCHAR uni345F
ENCODING 13407
BBX 13 14 0 -2
BITMAP
1000
1060
1780
2400
2400
67F0
A440
2440
2440
3FF8
2000
2240
2420
2810
ENDCHAR
STARTCHAR uni3460
ENCODING 13408
BBX 13 14 0 -2
BITMAP
1200
12F0
2A50
2A50
6A50
AA20
2A50
2288
2080
27F0
2080
2080
2080
2FF8
ENDCHAR
STARTCHAR uni3461
ENCODING 13409
BBX 13 14 0 -2
BITMAP
1000
17B8
14A8
24A8
27A8
64A8
A4A8
27A8
2528
24A8
2578
2660
2420
2020
ENDCHAR
STARTCHAR uni3462
ENCODING 13410
BBX 13 14 0 -2
BITMAP
1200
1278
1248
2748
2248
6248
AFC8
2248
2248
2448
2558
2740
2040
2040
ENDCHAR
STARTCHAR uni3463
ENCODING 13411
BBX 13 14 0 -2
BITMAP
1220
1220
2220
2F78
6220
A660
2770
2AB0
2AA8
3320
2220
2220
2220
2220
ENDCHAR
STARTCHAR uni3464
ENCODING 13412
BBX 13 14 0 -2
BITMAP
1220
1220
17F8
2220
2000
67F0
A490
2490
27F0
2490
2490
2490
27F0
2410
ENDCHAR
STARTCHAR uni3465
ENCODING 13413
BBX 12 14 0 -2
BITMAP
1000
17E0
1420
27E0
2420
67E0
A200
27F0
2950
3250
2490
2910
2210
2060
ENDCHAR
STARTCHAR uni3466
ENCODING 13414
BBX 13 14 0 -2
BITMAP
1100
1080
17F0
2410
2410
67F0
A4A0
2490
27F8
2480
2540
2940
2A20
3418
ENDCHAR
STARTCHAR uni3467
ENCODING 13415
BBX 13 14 0 -2
BITMAP
10E0
1780
1080
2FF8
22A0
6490
A888
27E0
2040
2080
2FF8
2080
2080
2380
ENDCHAR
STARTCHAR uni3468
ENCODING 13416
BBX 13 14 0 -2
BITMAP
1000
17F0
1410
2410
27F0
6200
A3F0
2480
2080
27F8
2080
2140
2220
2C18
ENDCHAR
STARTCHAR uni3469
ENCODING 13417
BBX 12 14 0 -2
BITMAP
1000
17F0
1550
2550
27F0
6080
A100
23F0
2410
2A20
2140
2080
2300
2C00
ENDCHAR
STARTCHAR uni346A
ENCODING 13418
BBX 13 14 0 -2
BITMAP
1100
1080
17F8
2220
2140
6080
A360
2C18
2220
23E0
2220
23E0
2420
2820
ENDCHAR
STARTCHAR uni346B
ENCODING 13419
BBX 13 14 0 -2
BITMAP
1080
1080
1140
2220
2518
6880
A3E0
2020
2040
2080
2050
2548
2528
28E0
ENDCHAR
STARTCHAR uni346C
ENCODING 13420
BBX 13 14 0 -2
BITMAP
2420
2420
2420
5EF8
4A20
CA20
4A20
4AF8
5288
4A88
4488
4A88
4AF8
5088
ENDCHAR
STARTCHAR uni346D
ENCODING 13421
BBX 13 14 0 -2
BITMAP
1000
17F0
1490
2490
27F0
6490
A490
27F0
2000
2FF8
2220
2220
2220
2420
ENDCHAR
STARTCHAR uni346E
ENCODING 13422
BBX 13 14 0 -2
BITMAP
1000
1FF8
2888
27F0
6080
A7F0
2490
27F0
2490
27F0
2080
2FF8
2080
2080
ENDCHAR
STARTCHAR uni346F
ENCODING 13423
BBX 13 14 0 -2
BITMAP
1000
17F8
2080
2100
67F0
A410
27F0
2410
27F0
2410
27F0
2220
2410
2808
ENDCHAR
STARTCHAR uni3470
ENCODING 13424
BBX 13 14 0 -2
BITMAP
1100
11E0
1220
23C0
2040
6FF8
A100
2288
2550
22E0
2550
2250
2448
2180
ENDCHAR
STARTCHAR uni3471
ENCODING 13425
BBX 13 14 0 -2
BITMAP
1000
13F0
10A0
2040
27F8
6148
A250
24C0
2080
27F8
21C0
22A0
2C98
2080
ENDCHAR
STARTCHAR uni3472
ENCODING 13426
BBX 13 14 0 -2
BITMAP
1080
1080
2FF8
2080
6080
AFF8
2A28
2948
2BE8
2888
2BE8
2888
2888
2838
ENDCHAR
STARTCHAR uni3473
ENCODING 13427
BBX 12 14 0 -2
BITMAP
1200
17F0
1910
2550
27D0
6210
A460
2200
27F0
2910
2550
27D0
2210
2460
ENDCHAR
STARTCHAR uni3474
ENCODING 13428
BBX 13 14 0 -2
BITMAP
17F0
1010
13F0
2010
27F0
6000
AFF8
2888
27F0
2490
23E0
2220
21C0
2E38
ENDCHAR
STARTCHAR uni3475
ENCODING 13429
BBX 13 14 0 -2
BITMAP
1040
1020
13F8
2200
2A40
6670
A2A0
2620
2AF8
2220
2220
2450
2450
2888
ENDCHAR
STARTCHAR uni3476
ENCODING 13430
BBX 13 14 0 -2
BITMAP
1200
13F0
2400
2BE0
6000
A7E0
2120
2560
23A0
2128
27E8
2398
2548
2100
ENDCHAR
STARTCHAR uni3477
ENCODING 13431
BBX 13 14 0 -2
BITMAP
1440
1450
2460
2940
6F48
A038
2F00
2948
2F50
2960
2F40
2948
2948
2B38
ENDCHAR
STARTCHAR uni3478
ENCODING 13432
BBX 13 14 0 -2
BITMAP
1080
17F8
2080
27F0
6410
A7F0
2000
2FF8
2010
27D0
2450
27D0
2410
2070
ENDCHAR
STARTCHAR uni3479
ENCODING 13433
BBX 13 14 0 -2
BITMAP
0200
0500
0880
3FE0
C218
3FE0
2220
3FE0
2220
3FE0
1040
1FC0
1040
1FC0
ENDCHAR
STARTCHAR uni347A
ENCODING 13434
BBX 13 14 0 -2
BITMAP
1280
13F0
1640
27F0
2A40
63F0
A240
23F8
2200
27F0
2120
2178
2208
2430
ENDCHAR
STARTCHAR uni347B
ENCODING 13435
BBX 13 14 0 -2
BITMAP
1100
1080
2FF8
2908
60A0
A540
2590
2928
26E8
2080
2490
2490
27F0
2010
ENDCHAR
STARTCHAR uni347C
ENCODING 13436
BBX 13 14 0 -2
BITMAP
2040
2040
3F70
5590
5550
D520
5F50
5588
5570
5550
5F50
5150
4070
4050
ENDCHAR
STARTCHAR uni347D
ENCODING 13437
BBX 13 14 0 -2
BITMAP
1080
1490
22A0
2FF8
6808
A3E0
2220
2220
23E0
2080
27F0
2080
2080
2FF8
ENDCHAR
STARTCHAR uni347E
ENCODING 13438
BBX 13 14 0 -2
BITMAP
1100
13F0
24A0
3A40
6180
AFF8
2000
27F0
2000
27F0
2000
27F0
2410
27F0
ENDCHAR
STARTCHAR uni347F
ENCODING 13439
BBX 13 14 0 -2
BITMAP
1490
1920
2490
27F0
6490
A7F0
2490
27F0
2080
27F8
21C0
22A0
2C98
2080
ENDCHAR
STARTCHAR uni3480
ENCODING 13440
BBX 13 14 0 -2
BITMAP
1100
1080
2FF8
2220
6140
AFF8
2888
2BE8
2888
2BE8
2A28
2BE8
2808
2838
ENDCHAR
STARTCHAR uni3481
ENCODING 13441
BBX 13 14 0 -2
BITMAP
1000
1FF8
2888
2BE8
6888
AFF8
2A28
2948
2BE8
2888
2FF8
2888
2888
2FF8
ENDCHAR
STARTCHAR uni3482
ENCODING 13442
BBX 13 14 0 -2
BITMAP
1120
17F8
2120
2088
63F0
A0A0
27F8
2080
23F0
2610
23F0
2210
23F0
2210
ENDCHAR
STARTCHAR uni3483
ENCODING 13443
BBX 13 14 0 -2
BITMAP
1028
17F8
1020
27A0
2020
67A0
A020
27A0
24A0
27A0
24A8
27A8
2318
2488
ENDCHAR
STARTCHAR uni3484
ENCODING 13444
BBX 13 14 0 -2
BITMAP
1420
1430
2728
2520
65F8
AB20
2520
2250
2490
2908
2000
2550
24A8
28A8
ENDCHAR
STARTCHAR uni3485
ENCODING 13445
BBX 13 14 0 -2
BITMAP
1040
17F8
1080
21F0
2720
60C0
A720
20F8
2710
20A0
27C8
2350
2D20
2198
ENDCHAR
STARTCHAR uni3486
ENCODING 13446
BBX 13 14 0 -2
BITMAP
1080
1140
2220
2DD8
6000
A7F0
2410
27F0
2000
2F78
2948
2528
2948
2318
ENDCHAR
STARTCHAR uni3487
ENCODING 13447
BBX 13 14 0 -2
BITMAP
1400
17F8
2D50
3550
6550
AFF8
2550
2550
2550
2FF8
2000
2550
24A8
28A8
ENDCHAR
STARTCHAR uni3488
ENCODING 13448
BBX 13 14 0 -2
BITMAP
1020
1720
2140
2278
6F90
A550
2750
2550
2750
2520
25A0
2F50
2150
2188
ENDCHAR
STARTCHAR uni3489
ENCODING 13449
BBX 13 14 0 -2
BITMAP
1080
1490
22A0
2FF8
6808
A3E0
2220
23E0
2080
2FF8
21C0
22A0
2C98
2080
ENDCHAR
STARTCHAR uni348A
ENCODING 13450
BBX 13 14 0 -2
BITMAP
2000
2F78
2528
4D68
55A8
C528
4B58
4000
4210
4250
4B58
4A50
4B50
5CF8
ENDCHAR
STARTCHAR uni348B
ENCODING 13451
BBX 13 14 0 -2
BITMAP
1518
1560
2FC0
2540
6540
A778
2550
2750
2550
2550
2FD0
2050
2550
2890
ENDCHAR
STARTCHAR uni348C
ENCODING 13452
BBX 13 14 0 -2
BITMAP
1220
16A8
2B70
2220
6550
A888
27F8
2408
2000
23E0
2220
2220
2228
2418
ENDCHAR
STARTCHAR uni348D
ENCODING 13453
BBX 13 14 0 -2
BITMAP
1100
1220
17F0
2000
2528
6F78
A100
2220
27C0
2110
2FF8
2080
24A0
2990
ENDCHAR
STARTCHAR uni348E
ENCODING 13454
BBX 13 14 0 -2
BITMAP
1000
17F0
1080
2FF8
2220
6D58
A140
2F78
2140
2770
2140
2F78
2140
2140
ENDCHAR
STARTCHAR uni348F
ENCODING 13455
BBX 13 14 0 -2
BITMAP
1100
1080
2FF8
2948
67F0
A140
27F0
2140
2FF8
2220
2590
2868
2380
2060
ENDCHAR
STARTCHAR uni3490
ENCODING 13456
BBX 13 14 0 -2
BITMAP
1220
17B8
2A60
2110
6400
A7F0
2810
27D0
2450
27D0
2450
27D0
2010
2060
ENDCHAR
STARTCHAR uni3491
ENCODING 13457
BBX 13 14 0 -2
BITMAP
1000
1FF8
2800
2C60
6A50
A8F8
2DA0
2AF8
28A0
2AF8
2CA0
28F8
2880
2FF8
ENDCHAR
STARTCHAR uni3492
ENCODING 13458
BBX 13 14 0 -2
BITMAP
1550
1360
2140
27F8
6210
A120
27F0
2080
23F0
2080
27F8
22A0
2490
2888
ENDCHAR
STARTCHAR uni3493
ENCODING 13459
BBX 13 14 0 -2
BITMAP
1840
15F0
2440
23F8
6110
ACA0
25F8
2440
25F0
2440
27F8
2440
2440
2BF8
ENDCHAR
STARTCHAR uni3494
ENCODING 13460
BBX 13 14 0 -2
BITMAP
1000
1FF8
2948
2FF8
6400
A7F8
2908
27C8
2548
27C8
2128
2FF8
2008
2030
ENDCHAR
STARTCHAR uni3495
ENCODING 13461
BBX 13 14 0 -2
BITMAP
1100
1080
2FF8
2220
6220
A550
2F78
22D0
2578
2F50
2278
2250
2478
2840
ENDCHAR
STARTCHAR uni3496
ENCODING 13462
BBX 13 14 0 -2
BITMAP
1220
1FF8
1220
27F0
2490
67F0
A490
27F0
2080
2FF8
28A8
2BE8
2828
2818
ENDCHAR
STARTCHAR uni3497
ENCODING 13463
BBX 13 14 0 -2
BITMAP
1220
1FF8
2220
23E0
6220
A3E0
2220
2FF8
2928
23F0
2080
23F0
2080
2FF8
ENDCHAR
STARTCHAR uni3498
ENCODING 13464
BBX 13 14 0 -2
BITMAP
1000
1F70
2A50
2F50
6950
AF20
2A20
2F50
2108
2080
27F0
2220
2140
2FF8
ENDCHAR
STARTCHAR uni3499
ENCODING 13465
BBX 13 14 0 -2
BITMAP
1420
1440
28F8
2A88
6EF8
A488
24F8
2A20
2EF8
20A8
21A8
2AA8
2AB8
2820
ENDCHAR
STARTCHAR uni349A
ENCODING 13466
BBX 13 14 0 -2
BITMAP
1038
17D0
22A0
27F0
6080
AFF8
2000
27F0
2010
23F0
2010
27F0
22A0
29E8
ENDCHAR
STARTCHAR uni349B
ENCODING 13467
BBX 13 14 0 -2
BITMAP
1770
1110
2550
2330
6550
A120
23F8
2640
2BF0
2240
23F0
2240
23F8
2200
ENDCHAR
STARTCHAR uni349C
ENCODING 13468
BBX 13 14 0 -2
BITMAP
1280
14B0
14D0
2490
26B0
6490
A4D0
2670
2550
2550
2FF8
2000
2220
2410
ENDCHAR
STARTCHAR uni349D
ENCODING 13469
BBX 13 14 0 -2
BITMAP
1220
1FF8
2220
27F0
6550
A550
27F0
20A0
27F8
2490
26A0
2548
24A8
2918
ENDCHAR
STARTCHAR uni349E
ENCODING 13470
BBX 13 14 0 -2
BITMAP
1490
17F0
2120
23F8
6640
ABF0
2240
23F0
2240
23F8
2200
2738
25E8
2418
ENDCHAR
STARTCHAR uni349F
ENCODING 13471
BBX 13 14 0 -2
BITMAP
1080
1FF8
2000
27F0
6480
A7F0
2480
27F0
2480
27F8
2AA8
2158
2620
2B18
ENDCHAR
STARTCHAR uni34A0
ENCODING 13472
BBX 13 14 0 -2
BITMAP
2200
2378
2A28
4F28
5510
C228
4540
4F78
4140
4770
4140
4F78
4140
5FF8
ENDCHAR
STARTCHAR uni34A1
ENCODING 13473
BBX 13 14 0 -2
BITMAP
2330
3C60
4120
5550
CAF0
4820
5F50
44F8
5F28
4420
5570
55A8
5720
5960
ENDCHAR
STARTCHAR uni34A2
ENCODING 13474
BBX 13 14 0 -2
BITMAP
1080
1140
2220
2DD8
6000
A7F0
2550
27F0
2000
27F0
2550
27F0
2550
2430
ENDCHAR
STARTCHAR uni34A3
ENCODING 13475
BBX 13 14 0 -2
BITMAP
2080
2FF0
4AA0
4AF0
CFA0
4AF0
4AA0
4AF0
4AA0
4AF0
4880
4A50
4AA8
5460
ENDCHAR
STARTCHAR uni34A4
ENCODING 13476
BBX 13 14 0 -2
BITMAP
2FF0
2420
47E0
4438
DFE0
4020
5FF8
4A50
4E70
4A50
4E70
4B58
5EF0
4210
ENDCHAR
STARTCHAR uni34A5
ENCODING 13477
BBX 13 14 0 -2
BITMAP
12A0
17F0
2AA8
2FF8
6AA8
AFF8
2AA8
2FF8
2000
27F0
2410
27F0
2220
2FF8
ENDCHAR
STARTCHAR uni34A6
ENCODING 13478
BBX 13 14 0 -2
BITMAP
1000
17F0
1490
27F0
2490
6FF8
AAA8
2FF8
2AA8
2F78
2080
27F0
2080
2FF8
ENDCHAR
STARTCHAR uni34A7
ENCODING 13479
BBX 13 14 0 -2
BITMAP
2430
3FA8
4A20
5578
DB50
51D0
5F78
4450
5F50
5578
5B50
5F50
5178
5340
ENDCHAR
STARTCHAR uni34A8
ENCODING 13480
BBX 13 14 0 -2
BITMAP
2898
33E8
5238
5B68
D2A8
5B78
4220
5FF8
4420
4FF0
5428
47E0
4410
43F0
ENDCHAR
STARTCHAR uni34A9
ENCODING 13481
BBX 13 14 0 -2
BITMAP
11E0
1220
11C0
27F8
2290
6560
A2D8
2540
22A0
2FF8
2AA8
2FF8
22A8
2FF8
ENDCHAR
STARTCHAR uni34AA
ENCODING 13482
BBX 13 14 0 -2
BITMAP
0700
18C0
FDF8
5140
7DF0
4510
7DF0
5140
7FF0
1140
5AA8
5170
5AA8
E160
ENDCHAR
STARTCHAR uni34AB
ENCODING 13483
BBX 13 13 0 -2
BITMAP
1FE0
1000
1000
1FE0
1000
1000
FFF8
0880
0880
0880
1088
2088
C078
ENDCHAR
STARTCHAR uni34AC
ENCODING 13484
BBX 13 13 0 -2
BITMAP
79F0
0040
0040
0040
FDF0
2840
2840
2840
2840
29F0
4808
4808
87F8
ENDCHAR
STARTCHAR uni34AD
ENCODING 13485
BBX 13 13 0 -2
BITMAP
7DF0
4510
4510
4510
4510
7DF0
28A0
28A0
28A0
2AA0
4CA8
48A8
8118
ENDCHAR
STARTCHAR uni34AE
ENCODING 13486
BBX 13 13 0 -2
BITMAP
7BF8
0080
0148
FE50
48A0
4930
4A68
48A8
4B20
48C0
4808
4808
87F8
ENDCHAR
STARTCHAR uni34AF
ENCODING 13487
BBX 13 14 0 -2
BITMAP
2140
27F0
A940
77F0
22A0
FAA0
57F8
52A0
52A0
57F0
5080
5FF8
5080
8080
ENDCHAR
STARTCHAR uni34B0
ENCODING 13488
BBX 13 14 0 -2
BITMAP
0C00
0200
0500
0880
3060
C018
0000
3FE0
0200
0200
0200
0200
0200
FFF8
ENDCHAR
STARTCHAR uni34B1
ENCODING 13489
BBX 13 14 0 -2
BITMAP
0C00
0200
0500
0880
3460
C418
0FE0
1020
6840
0480
0100
0600
1800
E000
ENDCHAR
STARTCHAR uni34B2
ENCODING 13490
BBX 13 14 0 -2
BITMAP
0C00
0200
0500
0880
3060
C018
3FE0
2020
2020
3FE0
2020
2020
3FE0
2020
ENDCHAR
STARTCHAR uni34B3
ENCODING 13491
BBX 11 13 1 -2
BITMAP
FFE0
8420
8420
A520
94A0
94A0
AD60
AD60
C620
8420
8420
8420
84E0
ENDCHAR
STARTCHAR uni34B4
ENCODING 13492
BBX 13 14 0 -2
BITMAP
0C00
0200
0500
0880
3060
C218
2220
2220
3FE0
0200
4210
4210
7FF0
0010
ENDCHAR
STARTCHAR uni34B5
ENCODING 13493
BBX 13 14 0 -2
BITMAP
0800
1000
7FF0
4010
4010
7FF0
4010
4010
7FF0
0000
1040
2020
4010
8008
ENDCHAR
STARTCHAR uni34B6
ENCODING 13494
BBX 13 14 0 -2
BITMAP
0880
0880
1040
2020
4210
8408
3FE0
2020
2020
3FE0
2020
2020
3FE0
2020
ENDCHAR
STARTCHAR uni34B7
ENCODING 13495
BBX 13 13 0 -2
BITMAP
3FE0
2020
2220
2220
2220
2520
28A0
2020
FFF8
0000
1040
2020
4010
ENDCHAR
STARTCHAR uni34B8
ENCODING 13496
BBX 13 14 0 -2
BITMAP
1040
0880
FFF8
0400
0C00
1220
6540
0980
1340
6540
0920
3110
C108
0600
ENDCHAR
STARTCHAR uni34B9
ENCODING 13497
BBX 13 14 0 -2
BITMAP
1040
7DF0
1040
7DF0
4510
7DF0
4510
7DF0
4510
7DF0
4510
FFF8
28A0
4510
ENDCHAR
STARTCHAR uni34BA
ENCODING 13498
BBX 12 13 1 -2
BITMAP
FFF0
8010
9090
8910
BFD0
8210
A210
A510
A890
A010
BFD0
8010
8070
ENDCHAR
STARTCHAR uni34BB
ENCODING 13499
BBX 13 14 0 -2
BITMAP
7FF0
4010
5FD0
4010
5FD0
0000
3FE0
2020
3FE0
2020
3FE0
0880
1088
E078
ENDCHAR
STARTCHAR uni34BC
ENCODING 13500
BBX 13 14 0 -2
BITMAP
1040
1040
FFF8
1040
1FC0
0200
7FF0
4210
5290
4A50
56B0
6310
4210
4070
ENDCHAR
STARTCHAR uni34BD
ENCODING 13501
BBX 13 14 0 -2
BITMAP
7FF0
4010
5FD0
4010
5FD0
1240
7FF0
0800
FFF8
2020
DFD8
1040
1190
0FF0
ENDCHAR
STARTCHAR uni34BE
ENCODING 13502
BBX 13 14 0 -2
BITMAP
3FE0
2020
2FA0
2020
2FA0
0000
2100
FDF8
2200
38B0
2AD0
4FB0
4A88
99F8
ENDCHAR
STARTCHAR uni34BF
ENCODING 13503
BBX 13 14 0 -2
BITMAP
3FF0
2010
2FD0
1000
FE60
2850
92F8
ABA0
FEF0
10A0
FEF0
AAA0
BAF8
8680
ENDCHAR
STARTCHAR uni34C0
ENCODING 13504
BBX 13 13 0 -2
BITMAP
FFF8
8008
8408
0400
0400
0500
0480
0440
0420
0400
0400
0400
0400
ENDCHAR
STARTCHAR uni34C1
ENCODING 13505
BBX 13 6 0 5
BITMAP
FFF8
8008
8008
1040
2020
4010
ENDCHAR
STARTCHAR uni34C2
ENCODING 13506
BBX 13 13 0 -2
BITMAP
FFF8
8008
0040
7C40
03F8
0090
FD10
29A0
2860
2890
2B08
4808
87F8
ENDCHAR
STARTCHAR uni34C3
ENCODING 13507
BBX 13 13 0 -2
BITMAP
FFF8
A008
1000
FC70
0380
7880
0080
78F8
0780
7880
4888
7888
4878
ENDCHAR
STARTCHAR uni34C4
ENCODING 13508
BBX 13 14 0 -2
BITMAP
2040
4440
FE40
45F8
AB48
FE40
2840
4440
92A0
68A0
10A0
64A0
18A8
E118
ENDCHAR
STARTCHAR uni34C5
ENCODING 13509
BBX 12 13 1 -2
BITMAP
8000
5FF0
4100
0100
0100
0100
2100
2100
4100
4100
8100
8100
0700
ENDCHAR
STARTCHAR uni34C6
ENCODING 13510
BBX 13 14 0 -2
BITMAP
0080
4080
2140
2140
0220
0410
0A08
2220
2240
4380
4200
8210
8210
01F0
ENDCHAR
STARTCHAR uni34C7
ENCODING 13511
BBX 12 13 1 -2
BITMAP
80E0
4F00
4100
0100
0100
0FF0
2100
2100
4280
4280
8440
8820
1010
ENDCHAR
STARTCHAR uni34C8
ENCODING 13512
BBX 12 13 1 -2
BITMAP
8FF0
4100
4100
0200
0200
07F0
2610
2A10
5210
4210
8210
83F0
0210
ENDCHAR
STARTCHAR uni34C9
ENCODING 13513
BBX 12 13 1 -2
BITMAP
80E0
4F00
4100
0100
1FF0
0100
2100
2FE0
4820
4820
8820
8FE0
0820
ENDCHAR
STARTCHAR uni34CA
ENCODING 13514
BBX 13 13 0 -2
BITMAP
4FF8
2808
2808
0BE8
0808
0BE8
2A28
2A28
4A28
4BE8
8808
8808
0838
ENDCHAR
STARTCHAR uni34CB
ENCODING 13515
BBX 13 14 0 -2
BITMAP
0220
4220
2220
27F0
0220
0220
0220
2220
2FF8
4000
4220
8210
8408
0808
ENDCHAR
STARTCHAR uni34CC
ENCODING 13516
BBX 12 14 1 -2
BITMAP
0100
8100
4280
4440
0820
1010
0FE0
2100
2100
4FE0
4100
8100
8100
1FF0
ENDCHAR
STARTCHAR uni34CD
ENCODING 13517
BBX 12 14 1 -2
BITMAP
0200
8100
4000
4FF0
0200
0240
0420
2FE0
22A0
4280
4480
8490
8890
1070
ENDCHAR
STARTCHAR uni34CE
ENCODING 13518
BBX 13 14 0 -2
BITMAP
07F0
4010
23F0
2010
07F0
0000
0FF8
2808
23E0
4220
4140
8080
8360
0C18
ENDCHAR
STARTCHAR uni34CF
ENCODING 13519
BBX 12 13 1 -2
BITMAP
8FF0
4810
4A90
0A50
0C30
0BD0
2A50
2A50
4BD0
4810
8810
8810
0870
ENDCHAR
STARTCHAR uni34D0
ENCODING 13520
BBX 13 14 0 -2
BITMAP
0080
4080
27F0
2080
0080
0FF8
0220
2490
2888
43E0
4080
8080
8080
0FF8
ENDCHAR
STARTCHAR uni34D1
ENCODING 13521
BBX 12 14 1 -2
BITMAP
0100
8100
4FE0
4100
1FF0
0440
0280
2FE0
2100
4100
5FF0
8100
8100
0100
ENDCHAR
STARTCHAR uni34D2
ENCODING 13522
BBX 13 14 0 -2
BITMAP
4080
2080
00F0
1788
2088
4278
8500
0880
3060
C218
12A0
2250
4250
0E00
ENDCHAR
STARTCHAR uni34D3
ENCODING 13523
BBX 13 14 0 -2
BITMAP
0080
4080
2FF8
2080
0080
0FF8
0A28
2948
2BE8
4888
4BE8
8888
8888
0838
ENDCHAR
STARTCHAR uni34D4
ENCODING 13524
BBX 13 14 0 -2
BITMAP
0210
8410
4F10
4910
0F78
0910
0F10
4950
5F30
4310
8510
8910
9110
0370
ENDCHAR
STARTCHAR uni34D5
ENCODING 13525
BBX 13 14 0 -2
BITMAP
0028
4020
2FF8
2820
0BA0
0928
0928
2B68
2DB0
4930
4AA8
92A8
9458
2088
ENDCHAR
STARTCHAR uni34D6
ENCODING 13526
BBX 13 13 0 -2
BITMAP
47F0
2490
27F0
0490
07F0
02A0
2FF8
22A0
47F0
4080
8FF8
8080
0080
ENDCHAR
STARTCHAR uni34D7
ENCODING 13527
BBX 12 14 1 -2
BITMAP
0400
8EF0
4450
4E50
0490
1E30
0500
2220
27C0
4110
4FF0
8080
84A0
0990
ENDCHAR
STARTCHAR uni34D8
ENCODING 13528
BBX 13 14 0 -2
BITMAP
7FE0
4020
5FA0
4420
4FA0
54A0
4320
4C20
5FA0
4420
5FA8
4528
5FD8
8008
ENDCHAR
STARTCHAR uni34D9
ENCODING 13529
BBX 13 14 0 -2
BITMAP
0400
0200
0200
BFE8
8088
8088
8908
8508
8208
8508
8888
9048
FFF8
0008
ENDCHAR
STARTCHAR uni34DA
ENCODING 13530
BBX 13 14 0 -2
BITMAP
0008
0008
7E08
1048
1048
1048
1048
1048
1048
1048
1E08
F008
0008
0038
ENDCHAR
STARTCHAR uni34DB
ENCODING 13531
BBX 12 13 0 -2
BITMAP
07F0
F910
2110
2110
2110
2110
2110
2110
3A10
E210
0410
0810
1060
ENDCHAR
STARTCHAR uni34DC
ENCODING 13532
BBX 13 14 0 -2
BITMAP
1000
1000
11F8
2088
2488
4488
F888
0888
1088
2088
4888
FD08
0508
0230
ENDCHAR
STARTCHAR uni34DD
ENCODING 13533
BBX 12 14 0 -2
BITMAP
2410
2410
2410
FE90
2490
2490
2490
FF90
2490
2490
2410
4410
4410
8470
ENDCHAR
STARTCHAR uni34DE
ENCODING 13534
BBX 13 14 0 -2
BITMAP
1000
1000
11F8
FE88
1088
1088
7C88
1088
1088
FE88
1088
1108
1108
1230
ENDCHAR
STARTCHAR uni34DF
ENCODING 13535
BBX 12 14 0 -2
BITMAP
0810
0810
7E10
4A90
4890
4890
7E90
4290
6290
5490
4810
9410
2410
4070
ENDCHAR
STARTCHAR uni34E0
ENCODING 13536
BBX 12 14 1 -2
BITMAP
2010
2010
2010
3E90
2090
2090
2090
FC90
8490
8490
8410
8410
FC10
8470
ENDCHAR
STARTCHAR uni34E1
ENCODING 13537
BBX 13 14 0 -2
BITMAP
2008
2008
3F08
4848
8848
0848
FF48
0848
4948
4948
4908
4F08
7908
0038
ENDCHAR
STARTCHAR uni34E2
ENCODING 13538
BBX 12 14 0 -2
BITMAP
2010
2010
3C10
4490
A890
1090
2890
4490
8090
7C90
4410
4410
7C10
4470
ENDCHAR
STARTCHAR uni34E3
ENCODING 13539
BBX 12 14 0 -2
BITMAP
1010
1010
2810
4490
8290
7C90
0090
0090
7C90
4490
4410
4410
7C10
4470
ENDCHAR
STARTCHAR uni34E4
ENCODING 13540
BBX 13 14 0 -2
BITMAP
0808
0808
FF08
0848
0848
7F48
0048
0048
7F48
4148
4108
4108
7F08
4138
ENDCHAR
STARTCHAR uni34E5
ENCODING 13541
BBX 12 14 0 -2
BITMAP
1010
9210
5210
5490
FE90
0290
0290
0290
FE90
0290
0210
0210
FE10
0270
ENDCHAR
STARTCHAR uni34E6
ENCODING 13542
BBX 13 14 0 -2
BITMAP
0008
FF08
1008
2048
FE48
8248
8248
8248
FE48
8248
8208
8208
FE08
8238
ENDCHAR
STARTCHAR uni34E7
ENCODING 13543
BBX 12 14 0 -2
BITMAP
1010
1010
2810
4490
9290
0890
7C90
0490
0890
7E90
4210
4210
7E10
4270
ENDCHAR
STARTCHAR uni34E8
ENCODING 13544
BBX 13 14 0 -2
BITMAP
0808
0808
FF08
0848
2A48
2A48
2A48
5D48
88C8
1448
1208
2108
4108
8038
ENDCHAR
STARTCHAR uni34E9
ENCODING 13545
BBX 12 14 0 -2
BITMAP
2010
3E10
4250
8450
7F50
4950
4950
7F50
4950
4950
7F10
4910
4910
8370
ENDCHAR
STARTCHAR uni34EA
ENCODING 13546
BBX 13 14 0 -2
BITMAP
2000
1000
FDF8
8488
8488
FC88
8488
8488
FC88
A088
9088
A908
C508
8230
ENDCHAR
STARTCHAR uni34EB
ENCODING 13547
BBX 12 14 0 -2
BITMAP
1010
1010
FF50
2450
4250
8050
7E50
2450
2450
FF50
2410
2410
4410
8470
ENDCHAR
STARTCHAR uni34EC
ENCODING 13548
BBX 13 14 0 -2
BITMAP
0808
4908
2A08
7F28
1028
FFA8
2228
4128
BEA8
1228
1208
2208
2208
4C38
ENDCHAR
STARTCHAR uni34ED
ENCODING 13549
BBX 12 14 0 -2
BITMAP
0010
7E10
4250
7E50
4250
7E50
2050
7F50
8950
5550
4110
7D10
0110
0670
ENDCHAR
STARTCHAR uni34EE
ENCODING 13550
BBX 13 14 0 -2
BITMAP
0008
7F88
4888
48A8
5EA8
48A8
7FA8
40A8
5EA8
52A8
5288
5E88
4088
83B8
ENDCHAR
STARTCHAR uni34EF
ENCODING 13551
BBX 12 14 0 -2
BITMAP
4910
4910
9250
4950
4950
0050
7F50
4950
4950
7F50
4910
4910
7F10
4170
ENDCHAR
STARTCHAR uni34F0
ENCODING 13552
BBX 13 14 0 -2
BITMAP
0008
FF88
0808
3E28
2A28
AAA8
BEA8
AAA8
AAA8
AAA8
BE88
8088
8F88
F0B8
ENDCHAR
STARTCHAR uni34F1
ENCODING 13553
BBX 13 14 0 -2
BITMAP
0808
1408
2208
4128
BEA8
0028
78A8
4AA8
7AA8
4AA8
7A88
4A88
4888
5BB8
ENDCHAR
STARTCHAR uni34F2
ENCODING 13554
BBX 12 14 0 -2
BITMAP
1010
0810
7E50
4250
4250
7E50
4050
7F50
5550
5550
7F10
D510
5510
4370
ENDCHAR
STARTCHAR uni34F3
ENCODING 13555
BBX 13 14 0 -2
BITMAP
0010
7C10
4410
7C90
4490
7C90
0090
FC90
1090
5010
5C10
5070
B000
8FF8
ENDCHAR
STARTCHAR uni34F4
ENCODING 13556
BBX 13 14 0 -2
BITMAP
0008
FE08
1008
2048
FE48
AA48
AA48
AA48
8648
1048
FF08
2808
4408
8238
ENDCHAR
STARTCHAR uni34F5
ENCODING 13557
BBX 12 14 0 -2
BITMAP
0010
EE10
AA50
AA50
EE50
0050
7C50
0050
FF50
4050
7E10
0210
0210
0C70
ENDCHAR
STARTCHAR uni34F6
ENCODING 13558
BBX 12 14 0 -2
BITMAP
4010
5E10
EA10
4A90
EA90
4A90
EA90
5690
1090
FE90
1010
2810
4410
8270
ENDCHAR
STARTCHAR uni34F7
ENCODING 13559
BBX 12 14 0 -2
BITMAP
1010
7C10
4410
7C90
4490
7C90
4490
7C90
1090
FE90
3810
5410
9010
1070
ENDCHAR
STARTCHAR uni34F8
ENCODING 13560
BBX 12 14 0 -2
BITMAP
0010
EE10
AA10
AA90
EE90
2890
2890
EE90
8290
EE90
2810
2810
2E10
F070
ENDCHAR
STARTCHAR uni34F9
ENCODING 13561
BBX 12 14 0 -2
BITMAP
7F90
4410
5550
5650
6450
4A50
5150
6450
5550
5650
6410
8A10
1110
2070
ENDCHAR
STARTCHAR uni34FA
ENCODING 13562
BBX 12 14 0 -2
BITMAP
0810
0F10
0850
7F50
4950
4C50
7950
4750
4850
4450
7F10
9210
8C10
3270
ENDCHAR
STARTCHAR uni34FB
ENCODING 13563
BBX 13 14 0 -2
BITMAP
0008
7F88
5288
52A8
7FA8
0028
7FA8
0428
0428
2728
2408
2408
2788
F838
ENDCHAR
STARTCHAR uni34FC
ENCODING 13564
BBX 12 14 0 -2
BITMAP
1010
1010
FE10
3890
5490
9090
2890
5490
9290
5490
3810
5410
9210
3070
ENDCHAR
STARTCHAR uni34FD
ENCODING 13565
BBX 12 14 0 -2
BITMAP
1010
9210
9210
FE90
2090
1090
FE90
8290
7C90
0090
FE10
5410
9210
3070
ENDCHAR
STARTCHAR uni34FE
ENCODING 13566
BBX 13 14 0 -2
BITMAP
0008
7F88
4088
7FA8
4428
64A8
5528
60A8
5428
5F28
6408
9F88
8408
0438
ENDCHAR
STARTCHAR uni34FF
ENCODING 13567
BBX 12 14 0 -2
BITMAP
0E10
7810
0850
FF50
2A50
4950
9450
2A50
C950
4A50
2C10
4A10
8910
3870
ENDCHAR
STARTCHAR uni3500
ENCODING 13568
BBX 12 14 0 -2
BITMAP
7C10
4410
7C10
4490
7C90
1090
FE90
0090
7C90
4490
7C10
1010
5410
B270
ENDCHAR
STARTCHAR uni3501
ENCODING 13569
BBX 12 14 0 -2
BITMAP
EA10
2410
A510
4290
8290
7C90
0090
7C90
4490
7C90
0410
4810
3C10
E070
ENDCHAR
STARTCHAR uni3502
ENCODING 13570
BBX 12 14 0 -2
BITMAP
0810
4910
2A50
7F50
1C50
2A50
4950
A250
3750
5250
AA10
2F10
4210
8270
ENDCHAR
STARTCHAR uni3503
ENCODING 13571
BBX 13 14 0 -2
BITMAP
2100
4BF0
F420
23F0
5290
FBF0
0200
AA08
A9F8
0000
FFF0
1010
2010
C060
ENDCHAR
STARTCHAR uni3504
ENCODING 13572
BBX 13 14 0 -2
BITMAP
0008
FF88
1408
7F28
5528
5528
7F28
4928
2A28
FFA8
2A08
4908
8888
0838
ENDCHAR
STARTCHAR uni3505
ENCODING 13573
BBX 13 14 0 -2
BITMAP
0808
7F08
0908
FFA8
0928
7F28
AAA8
EBA8
88A8
FFA8
8888
EB88
AA88
2AB8
ENDCHAR
STARTCHAR uni3506
ENCODING 13574
BBX 13 14 0 -2
BITMAP
0008
F788
2108
A528
F7A8
6328
B5A8
0028
7F28
4128
7F08
4108
7F08
4138
ENDCHAR
STARTCHAR uni3507
ENCODING 13575
BBX 13 14 0 -2
BITMAP
7508
1288
5108
20A8
40A8
F728
1528
74A8
4828
4728
7108
1508
1208
6538
ENDCHAR
STARTCHAR uni3508
ENCODING 13576
BBX 12 14 0 -2
BITMAP
4410
FE10
4410
2890
2890
EE90
2890
2890
EE90
2890
2810
EE10
2810
2870
ENDCHAR
STARTCHAR uni3509
ENCODING 13577
BBX 13 14 0 -2
BITMAP
7F88
4088
7F88
4028
5FA8
4428
5FA8
54A8
5FA8
4428
7FC8
A548
2F48
20F8
ENDCHAR
STARTCHAR uni350A
ENCODING 13578
BBX 12 14 0 -2
BITMAP
1010
FE10
0010
FE90
AA90
BA90
8290
FE90
4490
7C90
4410
7C10
0010
FE70
ENDCHAR
STARTCHAR uni350B
ENCODING 13579
BBX 13 14 0 -2
BITMAP
0008
7A08
5208
7BA8
4A28
7B28
54A8
78A8
0028
7F28
5508
5508
5788
F838
ENDCHAR
STARTCHAR uni350C
ENCODING 13580
BBX 12 14 0 -2
BITMAP
F810
5710
7150
5550
7250
5A50
F550
1150
0E50
7850
1A10
6C10
1A10
E970
ENDCHAR
STARTCHAR uni350D
ENCODING 13581
BBX 12 14 0 -2
BITMAP
4410
7710
AA50
7F50
4150
7F50
4150
7F50
4150
7F50
2210
FF90
2210
4270
ENDCHAR
STARTCHAR uni350E
ENCODING 13582
BBX 13 14 0 -2
BITMAP
9280
FE40
29F8
7D10
C4A0
7DF8
4040
7DF0
4440
7C40
0000
7FF0
0810
F060
ENDCHAR
STARTCHAR uni350F
ENCODING 13583
BBX 13 14 0 -2
BITMAP
0008
FF88
1008
3F28
2128
6128
BF28
0028
F7A8
2128
7388
D688
5288
73B8
ENDCHAR
STARTCHAR uni3510
ENCODING 13584
BBX 12 14 0 -2
BITMAP
2210
3B90
5550
80D0
7F50
1450
7750
1450
7750
1450
7710
1410
1710
7870
ENDCHAR
STARTCHAR uni3511
ENCODING 13585
BBX 13 14 0 -2
BITMAP
0880
FFF8
28A0
7CF8
4450
7DF8
4020
7CF8
4420
7C20
0000
FFF0
1010
6060
ENDCHAR
STARTCHAR uni3512
ENCODING 13586
BBX 13 14 0 -2
BITMAP
4908
7F08
2808
7FA8
C828
7F28
4828
7FA8
0028
FFA8
A288
FD88
A488
BDB8
ENDCHAR
STARTCHAR uni3513
ENCODING 13587
BBX 13 14 0 -2
BITMAP
0C80
7080
1080
11F8
1088
1088
FC88
1088
1088
1088
1108
1108
1208
1430
ENDCHAR
STARTCHAR uni3514
ENCODING 13588
BBX 12 14 0 -2
BITMAP
2000
2000
FDF0
2510
2510
4510
45F0
9800
0000
3FE0
4010
4010
4010
3FE0
ENDCHAR
STARTCHAR uni3515
ENCODING 13589
BBX 13 14 0 -2
BITMAP
4040
4040
7C40
81F8
7848
0048
F848
0848
0848
0848
0A48
0A88
0708
0230
ENDCHAR
STARTCHAR uni3516
ENCODING 13590
BBX 12 14 0 -2
BITMAP
2000
2000
FDF0
2510
2510
4510
45F0
9800
0000
3FE0
0020
0020
0020
0020
ENDCHAR
STARTCHAR uni3517
ENCODING 13591
BBX 12 14 1 -2
BITMAP
2840
2840
FE40
2AF0
2A50
FE50
A850
A850
FF50
2950
2950
4950
4B90
8930
ENDCHAR
STARTCHAR uni3518
ENCODING 13592
BBX 13 14 0 -2
BITMAP
1040
1040
9240
92F8
9248
FE48
1048
9248
9248
9248
9248
9E88
E288
0130
ENDCHAR
STARTCHAR uni3519
ENCODING 13593
BBX 13 14 0 -2
BITMAP
4240
2440
0040
7EF8
2448
2448
2448
FE48
2448
2448
2448
4488
4488
8530
ENDCHAR
STARTCHAR uni351A
ENCODING 13594
BBX 13 14 0 -2
BITMAP
0080
0C80
7080
11F8
1088
FC88
1088
1088
7C88
4488
4508
4508
7E08
4430
ENDCHAR
STARTCHAR uni351B
ENCODING 13595
BBX 13 14 0 -2
BITMAP
0200
0200
FFF8
0200
3FE0
0000
3FE0
2020
3FE0
0400
7FF0
0810
1010
6060
ENDCHAR
STARTCHAR uni351C
ENCODING 13596
BBX 13 14 0 -2
BITMAP
0E40
F040
2240
92F8
5448
0048
FC48
0848
1048
1C48
F048
1088
1088
7130
ENDCHAR
STARTCHAR uni351D
ENCODING 13597
BBX 13 14 0 -2
BITMAP
0040
FE40
1040
10F8
FE48
9248
9248
DA48
B648
DA48
9248
9288
9288
8730
ENDCHAR
STARTCHAR uni351E
ENCODING 13598
BBX 13 14 0 -2
BITMAP
0620
3820
0820
0878
7F28
2A28
2A28
EBA8
2A28
6AA8
AB28
0828
0848
0898
ENDCHAR
STARTCHAR uni351F
ENCODING 13599
BBX 13 14 0 -2
BITMAP
1080
5080
7DE0
90A0
7DA0
10E8
1D28
E218
0808
7FE0
0820
1020
2020
C0C0
ENDCHAR
STARTCHAR uni3520
ENCODING 13600
BBX 13 14 0 -2
BITMAP
0020
7E20
4220
7E78
4228
7E28
2028
7F28
8928
5528
4128
7D28
0148
0698
ENDCHAR
STARTCHAR uni3521
ENCODING 13601
BBX 13 14 0 -2
BITMAP
1040
2040
FE40
AAF8
9248
AA48
FE48
0048
8848
EE48
8848
AA88
CC88
8930
ENDCHAR
STARTCHAR uni3522
ENCODING 13602
BBX 13 14 0 -2
BITMAP
2100
4BF0
F420
23F0
5290
FBF0
0200
AA08
A9F8
0400
7FF0
0810
1010
6060
ENDCHAR
STARTCHAR uni3523
ENCODING 13603
BBX 13 14 0 -2
BITMAP
7F20
4920
7F20
4978
7F28
0028
FFA8
AAA8
AAA8
FFA8
AAA8
AAA8
FFC8
8898
ENDCHAR
STARTCHAR uni3524
ENCODING 13604
BBX 13 14 0 -2
BITMAP
1040
FE40
8240
0CF8
F248
5448
FE48
5448
8248
7C48
5448
7C88
5488
7D30
ENDCHAR
STARTCHAR uni3525
ENCODING 13605
BBX 13 14 0 -2
BITMAP
FF20
A520
FF20
4478
9528
F628
0528
F328
9028
F428
9528
F628
9548
B398
ENDCHAR
STARTCHAR uni3526
ENCODING 13606
BBX 13 14 0 -2
BITMAP
2220
7F20
0820
3E78
1028
FF28
2A28
7F28
A2A8
3E28
2228
3E28
2548
3298
ENDCHAR
STARTCHAR uni3527
ENCODING 13607
BBX 13 14 0 -2
BITMAP
1020
1E20
1020
FF78
9128
FE28
9128
BF28
AA28
BE28
AA28
FF28
5548
FF98
ENDCHAR
STARTCHAR uni3528
ENCODING 13608
BBX 13 14 0 -2
BITMAP
2000
3FF8
4948
B988
0908
1928
68E8
3FC8
2048
3FC8
2048
3FC8
2048
21D8
ENDCHAR
STARTCHAR uni3529
ENCODING 13609
BBX 13 14 0 -2
BITMAP
1000
1000
3FF8
4408
BF88
0408
7FC8
0808
1108
3F88
0008
3F88
2A88
7FD8
ENDCHAR
STARTCHAR uni352A
ENCODING 13610
BBX 13 14 0 -2
BITMAP
1000
1000
3FF8
4408
87E8
0408
7FC8
4048
5548
4A48
64C8
4A48
5548
7FD8
ENDCHAR
STARTCHAR uni352B
ENCODING 13611
BBX 13 14 0 -2
BITMAP
0400
0400
0400
0400
FFF8
0500
0910
0920
0940
1180
1100
2108
4108
80F8
ENDCHAR
STARTCHAR uni352C
ENCODING 13612
BBX 13 14 0 -2
BITMAP
2060
2380
3C00
2010
1FF0
0000
3FE0
2020
3FE0
2020
3FE0
0200
FFF8
0200
ENDCHAR
STARTCHAR uni352D
ENCODING 13613
BBX 12 13 1 -2
BITMAP
87E0
8420
87E0
8420
F7E0
8000
8FF0
8080
9480
A4E0
C480
8A80
11F0
ENDCHAR
STARTCHAR uni352E
ENCODING 13614
BBX 13 14 0 -2
BITMAP
5120
F928
5130
72A0
23A8
F828
AB98
FA80
23A8
FAB0
23A0
FAA8
52A8
8A98
ENDCHAR
STARTCHAR uni352F
ENCODING 13615
BBX 12 14 1 -2
BITMAP
FFF0
8000
9FC0
9040
9040
A030
C000
9FC0
9040
9040
9040
9FC0
8000
FFF0
ENDCHAR
STARTCHAR uni3530
ENCODING 13616
BBX 12 14 1 -2
BITMAP
FFF0
8000
8880
8880
8E80
92C0
AAA0
8490
8480
8880
9080
A080
8000
FFF0
ENDCHAR
STARTCHAR uni3531
ENCODING 13617
BBX 12 14 1 -2
BITMAP
FFF0
8200
8600
BAE0
A220
BAE0
A220
BFE0
8200
8500
8880
9040
A020
FFF0
ENDCHAR
STARTCHAR uni3532
ENCODING 13618
BBX 13 14 0 -2
BITMAP
FFF0
8880
9480
AA80
FDE0
A4A0
BCA0
A4A0
BCA0
A0A0
A928
B528
A218
FFF8
ENDCHAR
STARTCHAR uni3533
ENCODING 13619
BBX 13 14 0 -2
BITMAP
FFF0
8800
94E0
AAA0
FCA0
A4A0
BCA0
A4A0
BCA0
A128
A928
B618
A000
FFF8
ENDCHAR
STARTCHAR uni3534
ENCODING 13620
BBX 12 14 1 -2
BITMAP
FFF0
8000
BFE0
A220
BFE0
A220
BFE0
8880
BFE0
8880
FFF0
9040
A020
FFF0
ENDCHAR
STARTCHAR uni3535
ENCODING 13621
BBX 13 14 0 -2
BITMAP
FFF0
8000
BDE0
A520
BDE0
A310
9EF0
8880
9FC0
8880
BFE0
8880
9040
FFF8
ENDCHAR
STARTCHAR uni3536
ENCODING 13622
BBX 13 14 0 -2
BITMAP
FFF0
8880
BEF0
9590
FE60
A398
BEE0
A240
BFF8
8910
FF50
89F0
88A0
FFF8
ENDCHAR
STARTCHAR uni3537
ENCODING 13623
BBX 12 14 1 -2
BITMAP
FFF0
8000
8000
BFE0
8200
8200
BFE0
A220
A520
A8A0
A020
A0E0
8000
FFF0
ENDCHAR
STARTCHAR uni3538
ENCODING 13624
BBX 12 14 1 -2
BITMAP
FFF0
81C0
9F00
91C0
9100
97E0
9520
9580
9720
94E0
AB80
CAA0
9460
FFF0
ENDCHAR
STARTCHAR uni3539
ENCODING 13625
BBX 13 14 0 -2
BITMAP
1080
1080
1080
13F8
FC88
1088
1088
1088
1088
1088
1108
1108
1208
1430
ENDCHAR
STARTCHAR uni353A
ENCODING 13626
BBX 13 14 0 -2
BITMAP
0200
0200
0200
7FF0
0200
0200
2240
2040
FFF0
2040
2040
2048
2008
1FF8
ENDCHAR
STARTCHAR uni353B
ENCODING 13627
BBX 13 13 0 -2
BITMAP
7FF0
0200
0600
0AC0
3230
C208
0000
0200
0200
FFF8
0200
0200
0200
ENDCHAR
STARTCHAR uni353C
ENCODING 13628
BBX 13 14 0 -2
BITMAP
2140
2120
FBF8
2640
23F0
3A40
E3F0
2240
23F8
E200
0400
FFF8
0400
0400
ENDCHAR
STARTCHAR uni353D
ENCODING 13629
BBX 12 14 1 -2
BITMAP
0400
07F0
0400
FFF0
8010
8010
9F90
9090
9090
9F90
8010
8010
FFF0
8010
ENDCHAR
STARTCHAR uni353E
ENCODING 13630
BBX 12 13 1 -2
BITMAP
FF80
8080
8080
8080
8080
8080
8080
8300
8000
8010
8010
8010
7FF0
ENDCHAR
STARTCHAR uni353F
ENCODING 13631
BBX 13 13 0 -2
BITMAP
FFF8
2020
2020
2020
2020
2020
2020
20E0
2320
3C20
0020
0020
0020
ENDCHAR
STARTCHAR uni3540
ENCODING 13632
BBX 12 14 1 -2
BITMAP
0400
0400
FFE0
8420
FFE0
8420
FFE0
0000
7FC0
4040
4040
4190
4010
3FF0
ENDCHAR
STARTCHAR uni3541
ENCODING 13633
BBX 13 14 0 -2
BITMAP
6100
1A00
0C78
3248
C948
0848
FF48
1048
2048
4848
9058
2240
7F40
0140
ENDCHAR
STARTCHAR uni3542
ENCODING 13634
BBX 13 13 0 -2
BITMAP
3FF8
2100
2100
2280
2440
2A20
3118
2000
2FE0
2040
4080
4080
8100
ENDCHAR
STARTCHAR uni3543
ENCODING 13635
BBX 13 13 0 -2
BITMAP
3FF8
2000
2000
2FF0
2240
2240
2240
3FF8
2240
2240
4440
4440
8840
ENDCHAR
STARTCHAR uni3544
ENCODING 13636
BBX 13 13 0 -2
BITMAP
3FF8
2000
2000
2FF0
2100
2220
2440
2F80
2100
2240
4420
4FF0
8010
ENDCHAR
STARTCHAR uni3545
ENCODING 13637
BBX 13 13 0 -2
BITMAP
7FF8
4000
5FF0
5110
5110
5FF0
5110
5110
5FF0
5110
4100
4100
8100
ENDCHAR
STARTCHAR uni3546
ENCODING 13638
BBX 13 13 0 -2
BITMAP
3FF8
2000
2080
2080
2FF8
2080
2080
27F0
2410
2410
4410
47F0
8410
ENDCHAR
STARTCHAR uni3547
ENCODING 13639
BBX 13 13 0 -2
BITMAP
3FF8
2000
2100
2080
2FF0
2000
2020
2420
2220
2240
4240
4080
9FF8
ENDCHAR
STARTCHAR uni3548
ENCODING 13640
BBX 13 13 0 -2
BITMAP
3FF8
2100
2080
2FF0
2100
2280
2290
2660
2A40
2220
4290
4308
8200
ENDCHAR
STARTCHAR uni3549
ENCODING 13641
BBX 13 13 0 -2
BITMAP
3FF8
2080
2140
2220
2410
2BE8
2000
2000
27F0
2410
4410
47F0
8410
ENDCHAR
STARTCHAR uni354A
ENCODING 13642
BBX 13 13 0 -2
BITMAP
7FF8
4020
4110
7FF8
4100
5FF0
5110
5FF0
5110
5FF0
5110
5110
9070
ENDCHAR
STARTCHAR uni354B
ENCODING 13643
BBX 13 14 0 -2
BITMAP
3FF8
2080
2140
2220
2C18
23E0
2080
2080
27F0
2080
2490
42A0
4080
8FF8
ENDCHAR
STARTCHAR uni354C
ENCODING 13644
BBX 13 14 0 -2
BITMAP
3FF8
2000
27E0
2420
27E0
2420
27E0
2000
2FF0
2040
3FF8
4440
4240
80C0
ENDCHAR
STARTCHAR uni354D
ENCODING 13645
BBX 13 14 0 -2
BITMAP
3FF8
2240
2220
2400
27F8
2C40
3440
27F0
2440
2440
27F0
4440
4440
87F8
ENDCHAR
STARTCHAR uni354E
ENCODING 13646
BBX 13 13 0 -2
BITMAP
3FF8
2100
2100
2FE0
2100
3FF8
2420
2FF0
2010
3FF0
5490
5490
BFF8
ENDCHAR
STARTCHAR uni354F
ENCODING 13647
BBX 13 13 0 -2
BITMAP
3FF8
2000
3F90
2050
2F30
2910
2F50
2030
2918
2670
4390
5C10
8010
ENDCHAR
STARTCHAR uni3550
ENCODING 13648
BBX 13 13 0 -2
BITMAP
3FF8
2100
2670
2410
2770
2410
27F0
2800
3FF8
2008
4AA8
4AA8
9018
ENDCHAR
STARTCHAR uni3551
ENCODING 13649
BBX 13 14 0 -2
BITMAP
7FF8
4000
4410
7F10
4410
5F78
4010
5F10
5150
5F30
5110
4A10
4710
B870
ENDCHAR
STARTCHAR uni3552
ENCODING 13650
BBX 13 14 0 -2
BITMAP
7FF8
4440
5FF0
4100
4FE0
4100
7FF8
4150
5E48
4440
7FF8
4450
5F28
8C58
ENDCHAR
STARTCHAR uni3553
ENCODING 13651
BBX 13 13 0 -2
BITMAP
7FF8
4000
5FF0
5550
5FF0
4100
5FF0
4100
7FF8
5550
6FE8
4100
BFF8
ENDCHAR
STARTCHAR uni3554
ENCODING 13652
BBX 13 13 0 -2
BITMAP
7FF8
4020
7EF8
5420
5DF8
5548
5DF8
5400
7DF8
5420
7C88
5550
BC70
ENDCHAR
STARTCHAR uni3555
ENCODING 13653
BBX 11 14 1 -2
BITMAP
0800
0800
1000
2080
4040
FFE0
0020
0800
0800
1000
2080
4040
FFE0
0020
ENDCHAR
STARTCHAR uni3556
ENCODING 13654
BBX 13 14 0 -2
BITMAP
0800
1040
2020
7FF0
2040
4890
FDF8
0408
0200
FFF8
0A80
3260
C218
0200
ENDCHAR
STARTCHAR uni3557
ENCODING 13655
BBX 13 14 0 -2
BITMAP
2200
1420
7F20
0820
3E20
0840
7F40
2050
3E88
42F8
8408
0A00
3180
C078
ENDCHAR
STARTCHAR uni3558
ENCODING 13656
BBX 13 14 0 -2
BITMAP
0400
0880
0FC0
2040
4890
FDF8
0200
0500
1AC0
E238
1240
2220
4210
0E00
ENDCHAR
STARTCHAR uni3559
ENCODING 13657
BBX 13 14 0 -2
BITMAP
2080
2080
49E0
FD20
0640
51F0
4950
A550
39F0
4850
A8A8
10A0
2928
4218
ENDCHAR
STARTCHAR uni355A
ENCODING 13658
BBX 13 13 0 -2
BITMAP
7FE0
1020
1220
1120
0940
4840
2480
2500
0200
0500
0880
3060
C018
ENDCHAR
STARTCHAR uni355B
ENCODING 13659
BBX 13 13 0 -2
BITMAP
3FE0
0040
1880
0700
18E0
E010
0000
7FE0
1040
0880
0700
18C0
E038
ENDCHAR
STARTCHAR uni355C
ENCODING 13660
BBX 13 14 0 -2
BITMAP
0200
0200
7FF0
4210
4210
7FF0
0200
0200
7FE0
1040
0880
0700
18C0
E038
ENDCHAR
STARTCHAR uni355D
ENCODING 13661
BBX 13 14 0 -2
BITMAP
0200
0200
FFF8
0200
3FE0
2020
2020
3FE0
0000
3FE0
1040
0880
0700
78F0
ENDCHAR
STARTCHAR uni355E
ENCODING 13662
BBX 13 13 0 -2
BITMAP
7F70
4150
4150
7F50
4450
4450
5F50
5520
5520
5520
5750
8450
0488
ENDCHAR
STARTCHAR uni355F
ENCODING 13663
BBX 13 14 0 -2
BITMAP
1000
11F0
1E90
1090
1090
FE90
AA90
AA50
FE50
AA20
AA20
AA50
A290
8F08
ENDCHAR
STARTCHAR uni3560
ENCODING 13664
BBX 12 14 1 -2
BITMAP
8500
4FF0
0880
0FE0
5880
4FE0
8880
8FF0
0800
7FC0
2080
1100
0E00
F1E0
ENDCHAR
STARTCHAR uni3561
ENCODING 13665
BBX 13 14 0 -2
BITMAP
1000
1E00
10F8
FE48
8248
7C48
0048
5450
AA50
4420
8220
7C50
4490
7D08
ENDCHAR
STARTCHAR uni3562
ENCODING 13666
BBX 13 14 0 -2
BITMAP
1E00
1000
FEF8
8248
7C48
0048
7C48
4450
7C50
4420
7C20
4450
7C90
2908
ENDCHAR
STARTCHAR uni3563
ENCODING 13667
BBX 13 14 0 -2
BITMAP
0080
0880
0840
1040
2020
4010
8008
3FE0
2020
2020
2020
2020
3FE0
2020
ENDCHAR
STARTCHAR uni3564
ENCODING 13668
BBX 13 14 0 -2
BITMAP
0200
0200
F200
97C0
9240
9240
9240
9240
9240
F240
9240
0448
0448
0838
ENDCHAR
STARTCHAR uni3565
ENCODING 13669
BBX 12 14 1 -2
BITMAP
0100
0100
F100
9100
9100
9100
9100
9280
9280
F280
9440
0440
0820
1010
ENDCHAR
STARTCHAR uni3566
ENCODING 13670
BBX 13 14 0 -2
BITMAP
3FE0
2020
2020
3FE0
0000
0200
0200
FFF8
0200
0500
0880
1040
2020
C018
ENDCHAR
STARTCHAR uni3567
ENCODING 13671
BBX 13 13 0 -2
BITMAP
07F8
F408
9408
9408
97F8
9408
9400
9400
F400
9400
0400
0400
0800
ENDCHAR
STARTCHAR uni3568
ENCODING 13672
BBX 13 13 0 -2
BITMAP
03E0
F220
9220
9220
9320
92A0
92A0
9220
F220
9220
0428
0428
0818
ENDCHAR
STARTCHAR uni3569
ENCODING 13673
BBX 13 14 0 -2
BITMAP
0080
0080
F080
97F8
9080
9080
93F0
9080
9080
F7F8
9080
0080
0080
0080
ENDCHAR
STARTCHAR uni356A
ENCODING 13674
BBX 13 14 0 -2
BITMAP
0080
0080
F080
97F0
9490
9490
9080
9140
9140
F140
9240
0248
0448
0838
ENDCHAR
STARTCHAR uni356B
ENCODING 13675
BBX 12 14 1 -2
BITMAP
0100
0080
F000
97F0
9200
9200
93E0
9220
9220
F220
9220
0420
0420
08C0
ENDCHAR
STARTCHAR uni356C
ENCODING 13676
BBX 13 14 0 -2
BITMAP
0040
0240
F240
9220
9420
9490
9888
9100
9100
F240
9220
0420
0FF0
0010
ENDCHAR
STARTCHAR uni356D
ENCODING 13677
BBX 13 13 0 -2
BITMAP
0070
F780
9080
9080
9080
97F8
9080
9080
9140
F140
9220
0410
0808
ENDCHAR
STARTCHAR uni356E
ENCODING 13678
BBX 13 14 0 -2
BITMAP
0040
0220
F210
9410
9408
9A28
9220
9140
9140
F080
9140
0220
0410
0808
ENDCHAR
STARTCHAR uni356F
ENCODING 13679
BBX 12 14 1 -2
BITMAP
0400
0400
FFF0
8910
9090
A050
DFB0
9090
9090
9090
9F90
8010
8010
8070
ENDCHAR
STARTCHAR uni3570
ENCODING 13680
BBX 13 14 0 -2
BITMAP
0070
0380
F080
9080
90F0
9380
9080
9080
90F8
F780
9080
0088
0088
0078
ENDCHAR
STARTCHAR uni3571
ENCODING 13681
BBX 13 14 0 -2
BITMAP
0100
0120
F110
9100
97F8
9140
9140
9140
9140
F140
9240
0248
0448
0838
ENDCHAR
STARTCHAR uni3572
ENCODING 13682
BBX 13 14 0 -2
BITMAP
0080
0080
F080
97F8
9080
91C0
91C0
92A0
92A0
F490
9888
0080
0080
0080
ENDCHAR
STARTCHAR uni3573
ENCODING 13683
BBX 13 14 0 -2
BITMAP
0020
0220
F140
9548
9488
9488
9548
9548
9628
F428
9408
0408
07F8
0008
ENDCHAR
STARTCHAR uni3574
ENCODING 13684
BBX 13 13 0 -2
BITMAP
07F0
F410
9410
9000
93C0
9240
9240
9240
F240
9240
0448
0448
0838
ENDCHAR
STARTCHAR uni3575
ENCODING 13685
BBX 13 13 0 -2
BITMAP
07F0
F080
9080
9080
9080
9080
97F0
9080
9080
F080
9080
0080
0FF8
ENDCHAR
STARTCHAR uni3576
ENCODING 13686
BBX 13 13 0 -2
BITMAP
0FF8
F100
9100
9100
9100
9FF0
9210
9210
F210
9210
0210
0210
0FF8
ENDCHAR
STARTCHAR uni3577
ENCODING 13687
BBX 13 14 0 -2
BITMAP
0100
0200
F7F8
9408
9408
9408
9408
97F8
9408
9408
F408
9408
07F8
0408
ENDCHAR
STARTCHAR uni3578
ENCODING 13688
BBX 12 14 1 -2
BITMAP
0100
0080
F080
97F0
9000
9020
9420
9420
9220
F240
9240
0040
0080
0FF0
ENDCHAR
STARTCHAR uni3579
ENCODING 13689
BBX 13 14 0 -2
BITMAP
00A0
0090
F080
97F8
9080
9080
91F0
9110
9110
F2A0
92A0
0440
08A0
0318
ENDCHAR
STARTCHAR uni357A
ENCODING 13690
BBX 13 13 0 -2
BITMAP
7DF0
4510
4510
7DF0
0000
FFF8
0800
1000
3FE0
0020
0020
0020
00C0
ENDCHAR
STARTCHAR uni357B
ENCODING 13691
BBX 13 14 0 -2
BITMAP
0400
0200
0000
FFF8
0600
0AC0
3230
C208
0000
3FE0
2020
2020
3FE0
2020
ENDCHAR
STARTCHAR uni357C
ENCODING 13692
BBX 13 14 0 -2
BITMAP
0200
0200
F3F8
9408
9A28
9148
9488
9548
9628
F408
97E8
0008
0008
0030
ENDCHAR
STARTCHAR uni357D
ENCODING 13693
BBX 13 14 0 -2
BITMAP
0020
0120
F4A0
94A0
94A0
9420
9420
9420
9420
9550
F650
9488
0108
0208
ENDCHAR
STARTCHAR uni357E
ENCODING 13694
BBX 13 13 0 -2
BITMAP
0200
1240
1220
2210
4208
8208
0000
0000
7D30
45C0
4500
7D08
44F8
ENDCHAR
STARTCHAR uni357F
ENCODING 13695
BBX 13 14 0 -2
BITMAP
00E0
3F00
0200
FFF8
0A80
3260
C218
0000
3FE0
2020
2020
2020
3FE0
2020
ENDCHAR
STARTCHAR uni3580
ENCODING 13696
BBX 13 14 0 -2
BITMAP
0080
0080
F3F0
9090
97F8
9090
93F0
9080
93F0
F080
97F8
0080
0080
0080
ENDCHAR
STARTCHAR uni3581
ENCODING 13697
BBX 13 14 0 -2
BITMAP
0308
00D0
F060
9190
9648
9040
97F8
9080
9100
F240
9480
0110
03F8
0008
ENDCHAR
STARTCHAR uni3582
ENCODING 13698
BBX 13 14 0 -2
BITMAP
0080
0080
F7F0
9490
9490
97F0
9490
9490
97F0
F0A0
9048
00A8
0118
0608
ENDCHAR
STARTCHAR uni3583
ENCODING 13699
BBX 12 13 1 -2
BITMAP
0060
F780
9400
9400
97F0
9400
9400
95E0
F520
9520
0520
09E0
1120
ENDCHAR
STARTCHAR uni3584
ENCODING 13700
BBX 13 14 0 -2
BITMAP
0408
0488
E488
A488
AC88
B6C8
A5A8
A488
A488
E488
A488
0488
0408
0808
ENDCHAR
STARTCHAR uni3585
ENCODING 13701
BBX 12 14 1 -2
BITMAP
00A0
0090
E080
AFF0
A880
A890
A890
AEA0
A8A0
E840
A850
10D0
1130
2210
ENDCHAR
STARTCHAR uni3586
ENCODING 13702
BBX 13 14 0 -2
BITMAP
0140
0140
E140
AFF8
A948
A948
A948
AFF8
A948
E948
A948
0948
0FF8
0808
ENDCHAR
STARTCHAR uni3587
ENCODING 13703
BBX 12 13 0 -2
BITMAP
07F0
F080
9100
97F0
9550
9550
9550
9550
F550
9550
0550
0410
0470
ENDCHAR
STARTCHAR uni3588
ENCODING 13704
BBX 13 14 0 -2
BITMAP
0420
3F40
0480
FFF8
0220
0FC0
3010
CFF0
0000
3FE0
2020
2020
3FE0
2020
ENDCHAR
STARTCHAR uni3589
ENCODING 13705
BBX 13 14 0 -2
BITMAP
0080
0080
F140
9140
9220
9490
9888
9280
92F0
F280
9280
0280
0280
0FF8
ENDCHAR
STARTCHAR uni358A
ENCODING 13706
BBX 13 13 0 -2
BITMAP
07F0
F010
93F0
9010
97F0
9020
9020
97F8
F020
9220
0120
0020
00E0
ENDCHAR
STARTCHAR uni358B
ENCODING 13707
BBX 13 14 0 -2
BITMAP
0200
0500
0880
3060
C898
0880
0880
1080
2080
7D30
45C0
4500
7D08
44F8
ENDCHAR
STARTCHAR uni358C
ENCODING 13708
BBX 13 14 0 -2
BITMAP
1200
1200
2FC0
6240
A240
2240
2450
2830
0000
7D30
45C0
4500
7D08
44F8
ENDCHAR
STARTCHAR uni358D
ENCODING 13709
BBX 13 14 0 -2
BITMAP
0880
0480
2080
1080
01F8
FE80
0080
0080
0000
7D30
45C0
4500
7D08
44F8
ENDCHAR
STARTCHAR uni358E
ENCODING 13710
BBX 13 14 0 -2
BITMAP
0080
7C90
44E0
4488
7C88
0278
0500
0880
3060
C898
0880
0880
1080
2080
ENDCHAR
STARTCHAR uni358F
ENCODING 13711
BBX 13 13 0 -2
BITMAP
07F0
F410
9410
97F0
9410
9410
97F0
9080
F080
97F0
0080
0080
0FF8
ENDCHAR
STARTCHAR uni3590
ENCODING 13712
BBX 13 13 0 -2
BITMAP
7DF0
4510
7DF0
0000
7FE0
0420
FFF8
0420
7FE0
0820
1000
2000
4000
ENDCHAR
STARTCHAR uni3591
ENCODING 13713
BBX 12 14 1 -2
BITMAP
00A0
0090
E080
AFF0
A080
AAA0
AAA0
BFA0
AAA0
EA40
AA50
0A50
12B0
0110
ENDCHAR
STARTCHAR uni3592
ENCODING 13714
BBX 13 14 0 -2
BITMAP
0220
0140
F7F0
9090
9090
97F0
9480
9480
97F8
F188
9288
0488
08B0
0080
ENDCHAR
STARTCHAR uni3593
ENCODING 13715
BBX 13 14 0 -2
BITMAP
0100
01E0
F220
9540
9080
9360
9C98
93E0
9080
F3E0
9080
07F0
0080
0080
ENDCHAR
STARTCHAR uni3594
ENCODING 13716
BBX 13 13 0 -2
BITMAP
07F0
F080
9080
97F8
9140
9220
9410
9BE8
F220
9220
0220
03E0
0220
ENDCHAR
STARTCHAR uni3595
ENCODING 13717
BBX 13 14 0 -2
BITMAP
0100
0080
F7F0
9000
9220
9140
9FF8
9080
9080
F7F0
9080
0080
0080
0080
ENDCHAR
STARTCHAR uni3596
ENCODING 13718
BBX 13 14 0 -2
BITMAP
0400
0200
7FF0
1040
0880
FFF8
0200
7FF0
0200
0200
3FE0
2020
2020
3FE0
ENDCHAR
STARTCHAR uni3597
ENCODING 13719
BBX 13 14 0 -2
BITMAP
0080
0490
F490
97F0
9080
9140
9220
9510
9888
F3E0
9020
0040
0040
0080
ENDCHAR
STARTCHAR uni3598
ENCODING 13720
BBX 13 13 0 -2
BITMAP
07F8
F400
9400
95F0
9400
9400
97F8
9540
F548
9530
0520
0590
0908
ENDCHAR
STARTCHAR uni3599
ENCODING 13721
BBX 13 14 0 -2
BITMAP
2000
2000
FDF0
2510
2510
4510
45F0
9800
0000
7D30
45C0
4500
7D08
44F8
ENDCHAR
STARTCHAR uni359A
ENCODING 13722
BBX 13 14 0 -2
BITMAP
1020
2020
6FF8
A020
2420
2220
2020
20E0
0000
7D30
45C0
4500
7D08
44F8
ENDCHAR
STARTCHAR uni359B
ENCODING 13723
BBX 13 14 0 -2
BITMAP
0200
0200
FFF8
0200
3FE0
2020
2020
3FE0
0000
7D30
45C0
4500
7D08
44F8
ENDCHAR
STARTCHAR uni359C
ENCODING 13724
BBX 13 14 0 -2
BITMAP
0400
0200
FFF8
0000
3FE0
2020
2020
3FE0
0000
7D30
45C0
4500
7D08
44F8
ENDCHAR
STARTCHAR uni359D
ENCODING 13725
BBX 13 14 0 -2
BITMAP
0200
0200
3FE0
0200
FFF8
0A80
3260
C218
0000
7D30
45C0
4500
7D08
44F8
ENDCHAR
STARTCHAR uni359E
ENCODING 13726
BBX 13 13 0 -2
BITMAP
03F0
F210
9210
93F0
9080
9080
97F8
9488
F548
9528
0628
0408
0438
ENDCHAR
STARTCHAR uni359F
ENCODING 13727
BBX 13 14 0 -2
BITMAP
0078
0780
F090
9250
9120
97F8
9408
9000
93F0
F110
90A0
0040
00A0
0318
ENDCHAR
STARTCHAR uni35A0
ENCODING 13728
BBX 13 14 0 -2
BITMAP
0080
0080
F7F8
9140
9220
9C18
93E0
9000
97F0
F080
9490
0488
0888
0380
ENDCHAR
STARTCHAR uni35A1
ENCODING 13729
BBX 13 14 0 -2
BITMAP
0080
0040
F7F8
9140
9140
9278
9248
96A8
9AD0
F350
9220
0220
0250
0288
ENDCHAR
STARTCHAR uni35A2
ENCODING 13730
BBX 13 14 0 -2
BITMAP
0100
0080
EFF8
A800
A8A0
A8A0
AAA8
AAB0
AAE0
EAA0
AAA0
12A8
12E8
2718
ENDCHAR
STARTCHAR uni35A3
ENCODING 13731
BBX 13 14 0 -2
BITMAP
0080
0040
F3F0
9000
9210
9120
97F8
9000
9000
F3F0
9210
0210
03F0
0210
ENDCHAR
STARTCHAR uni35A4
ENCODING 13732
BBX 12 13 0 -2
BITMAP
07E0
F020
9040
9490
96B0
95D0
9490
95D0
F6B0
9590
0410
07F0
0010
ENDCHAR
STARTCHAR uni35A5
ENCODING 13733
BBX 12 13 1 -2
BITMAP
07F0
F410
9450
9590
9490
97F0
9490
95D0
F6B0
9490
0490
07F0
0410
ENDCHAR
STARTCHAR uni35A6
ENCODING 13734
BBX 13 14 0 -2
BITMAP
0080
0080
FFF8
9080
97F0
9490
97F0
9490
97F0
F1C0
92A0
0490
0888
0080
ENDCHAR
STARTCHAR uni35A7
ENCODING 13735
BBX 13 14 0 -2
BITMAP
0070
07C0
F440
97F8
9440
9528
9618
9408
93F0
F210
93F0
0210
03F0
0210
ENDCHAR
STARTCHAR uni35A8
ENCODING 13736
BBX 13 13 0 -2
BITMAP
07E0
F020
93E0
9020
97F8
9080
9490
92A0
F1C0
92A0
0C98
0080
0380
ENDCHAR
STARTCHAR uni35A9
ENCODING 13737
BBX 12 13 1 -2
BITMAP
1F00
EAE0
AAA0
AEA0
AAA0
AAA0
AEA0
AA40
EA40
AB40
1EA0
02A0
0310
ENDCHAR
STARTCHAR uni35AA
ENCODING 13738
BBX 12 14 1 -2
BITMAP
0080
00A0
E090
AFF0
A080
AE90
AA90
AA90
AEA0
E0A0
A250
0CD0
0130
0210
ENDCHAR
STARTCHAR uni35AB
ENCODING 13739
BBX 12 14 1 -2
BITMAP
0100
0100
EFE0
A100
A100
BFF0
A440
AA20
B3D0
E440
AA80
0100
06C0
1830
ENDCHAR
STARTCHAR uni35AC
ENCODING 13740
BBX 13 14 0 -2
BITMAP
0100
0670
F410
9410
9770
9410
9410
97F0
9000
97F0
F210
9120
00C0
0738
ENDCHAR
STARTCHAR uni35AD
ENCODING 13741
BBX 13 13 0 -2
BITMAP
07F0
E080
A080
AFF8
A140
A220
A498
A880
E4D0
A4A8
08A8
0080
0380
ENDCHAR
STARTCHAR uni35AE
ENCODING 13742
BBX 13 14 0 -2
BITMAP
0080
0140
F220
9410
9BE8
9000
97F0
9550
9550
F7F0
9550
0550
0510
0470
ENDCHAR
STARTCHAR uni35AF
ENCODING 13743
BBX 12 14 1 -2
BITMAP
FFE0
8020
BFA0
8020
9F20
9120
9F20
8060
0000
FA60
8B80
8A00
FA10
89F0
ENDCHAR
STARTCHAR uni35B0
ENCODING 13744
BBX 12 14 1 -2
BITMAP
0220
FBC0
8A10
F9F0
0000
FFE0
8020
BFA0
8020
9F20
9120
9F20
8020
80E0
ENDCHAR
STARTCHAR uni35B1
ENCODING 13745
BBX 13 14 0 -2
BITMAP
0200
FFF8
1100
21E0
6220
A4A0
2A40
2180
2E78
0000
3FE0
2020
2020
3FE0
ENDCHAR
STARTCHAR uni35B2
ENCODING 13746
BBX 13 14 0 -2
BITMAP
1000
FDF0
2510
2510
6910
1910
25F0
4000
0000
7D30
45C0
4500
7D08
44F8
ENDCHAR
STARTCHAR uni35B3
ENCODING 13747
BBX 12 14 1 -2
BITMAP
4100
2FF0
8240
4440
1680
2180
4240
8C20
0000
FA60
8B80
8A00
FA10
89F0
ENDCHAR
STARTCHAR uni35B4
ENCODING 13748
BBX 13 14 0 -2
BITMAP
0120
0120
F7F8
9120
9200
93F8
92A8
94A8
9128
F248
9488
0108
0208
0030
ENDCHAR
STARTCHAR uni35B5
ENCODING 13749
BBX 13 13 0 -2
BITMAP
03F0
F210
93F0
9210
93F0
9210
93F0
9210
F7F8
9000
0120
0210
0408
ENDCHAR
STARTCHAR uni35B6
ENCODING 13750
BBX 13 13 0 -2
BITMAP
07F0
F140
9140
97F0
9550
9550
97F0
9080
F080
97F0
0080
0080
0FF8
ENDCHAR
STARTCHAR uni35B7
ENCODING 13751
BBX 13 13 0 -2
BITMAP
03F0
F210
93F0
9210
93F0
9000
97F8
9040
F240
9270
0240
0540
08F8
ENDCHAR
STARTCHAR uni35B8
ENCODING 13752
BBX 13 14 0 -2
BITMAP
0080
00F0
F080
97F8
9488
94E0
9788
9478
9400
F4F0
9480
0BF8
0880
10F0
ENDCHAR
STARTCHAR uni35B9
ENCODING 13753
BBX 13 14 0 -2
BITMAP
0040
0240
F220
9410
9BE8
9120
9220
94C0
9000
F7F0
9550
0550
0550
0FF8
ENDCHAR
STARTCHAR uni35BA
ENCODING 13754
BBX 13 14 0 -2
BITMAP
0080
07F0
F080
93E0
9100
9FF8
9220
9410
9BE8
F220
93E0
0220
03E0
0220
ENDCHAR
STARTCHAR uni35BB
ENCODING 13755
BBX 13 13 0 -2
BITMAP
03F0
F0A0
9040
97F8
9148
9250
94C0
9080
F7F8
91C0
02A0
0C98
0080
ENDCHAR
STARTCHAR uni35BC
ENCODING 13756
BBX 13 14 0 -2
BITMAP
0220
0220
F7F0
9220
93E0
9220
93E0
9080
97F8
F1C0
92A0
0490
0888
0080
ENDCHAR
STARTCHAR uni35BD
ENCODING 13757
BBX 12 13 1 -2
BITMAP
07F0
F080
9100
97F0
9410
97F0
9410
97F0
F410
97F0
0000
0220
0410
ENDCHAR
STARTCHAR uni35BE
ENCODING 13758
BBX 13 14 0 -2
BITMAP
7DF0
4510
4510
7DF0
1040
0880
FFF8
2220
2220
3FE0
0420
0800
1000
6000
ENDCHAR
STARTCHAR uni35BF
ENCODING 13759
BBX 12 13 1 -2
BITMAP
1FF0
EA90
AA90
AE90
AAA0
AAA0
AE90
AA90
EB90
BE90
02E0
0280
0280
ENDCHAR
STARTCHAR uni35C0
ENCODING 13760
BBX 13 14 0 -2
BITMAP
0080
02A0
EAA8
AAA8
ADD8
AEE8
AAA8
AAA8
ACC8
EFF8
A998
0888
0FF8
0008
ENDCHAR
STARTCHAR uni35C1
ENCODING 13761
BBX 13 13 0 -2
BITMAP
0770
F550
9550
9770
9000
93E0
9000
97F8
F200
93F0
0010
0010
0060
ENDCHAR
STARTCHAR uni35C2
ENCODING 13762
BBX 13 14 0 -2
BITMAP
0080
0290
F288
94A8
9040
9080
93F0
9E10
93F0
F210
93F0
0210
03F0
0210
ENDCHAR
STARTCHAR uni35C3
ENCODING 13763
BBX 13 14 0 -2
BITMAP
07F0
0410
F7F0
9480
97F8
9440
9628
9418
93F0
F210
93F0
0210
03F0
0210
ENDCHAR
STARTCHAR uni35C4
ENCODING 13764
BBX 13 13 0 -2
BITMAP
07F0
F550
9550
97F0
9100
9080
9FF8
9200
F3F0
9210
0410
0810
1060
ENDCHAR
STARTCHAR uni35C5
ENCODING 13765
BBX 13 14 0 -2
BITMAP
0200
0278
F248
9FC8
9248
9278
9748
9548
9578
F548
9748
0488
0088
0138
ENDCHAR
STARTCHAR uni35C6
ENCODING 13766
BBX 13 14 0 -2
BITMAP
0220
0220
EFF8
A220
A3E0
A080
A7F0
A490
A490
E7F0
A080
0FF8
0080
0080
ENDCHAR
STARTCHAR uni35C7
ENCODING 13767
BBX 12 13 1 -2
BITMAP
0EE0
EA20
AA20
AEE0
A800
A800
AEE0
A8A0
E8A0
AE40
0840
08A0
0910
ENDCHAR
STARTCHAR uni35C8
ENCODING 13768
BBX 12 14 0 -2
BITMAP
07E0
0140
F080
97F0
9490
97F0
9490
97F0
9490
F100
97F0
0110
0210
0C60
ENDCHAR
STARTCHAR uni35C9
ENCODING 13769
BBX 13 14 0 -2
BITMAP
1000
7DF0
1090
7C90
1090
FD30
1200
3FE0
D040
0F80
F078
1FC0
1040
1FC0
ENDCHAR
STARTCHAR uni35CA
ENCODING 13770
BBX 12 13 1 -2
BITMAP
FBF0
8A10
8A10
8A10
FBF0
0000
0000
FBF0
8A10
8A10
8A10
FBF0
8A10
ENDCHAR
STARTCHAR uni35CB
ENCODING 13771
BBX 12 14 1 -2
BITMAP
0400
07C0
E840
B080
AFF0
AA00
ABF0
AC80
A880
EFF0
A880
0940
1220
2C10
ENDCHAR
STARTCHAR uni35CC
ENCODING 13772
BBX 13 14 0 -2
BITMAP
0100
0080
F7F0
9410
9000
97F0
9100
9220
97F0
F080
97F0
0080
0080
0FF8
ENDCHAR
STARTCHAR uni35CD
ENCODING 13773
BBX 13 14 0 -2
BITMAP
0060
0380
F080
97F8
91C0
92A0
9C98
9080
97F0
F410
97F0
0410
07F0
0410
ENDCHAR
STARTCHAR uni35CE
ENCODING 13774
BBX 13 14 0 -2
BITMAP
0400
0F70
E550
A550
A550
A950
AB70
B080
AFF8
E1C0
A2A0
0490
0888
0080
ENDCHAR
STARTCHAR uni35CF
ENCODING 13775
BBX 13 13 0 -2
BITMAP
07F8
F080
91A0
9290
9488
9080
9000
97F0
F080
9280
02F0
0280
0FF8
ENDCHAR
STARTCHAR uni35D0
ENCODING 13776
BBX 13 14 0 -2
BITMAP
0080
0080
F7F0
9140
9220
9510
9888
9000
97F0
F550
9550
0550
0550
0FF8
ENDCHAR
STARTCHAR uni35D1
ENCODING 13777
BBX 13 13 0 -2
BITMAP
0378
EE20
A220
A278
A7A0
A220
A278
AF20
E220
A2F8
0420
0420
0820
ENDCHAR
STARTCHAR uni35D2
ENCODING 13778
BBX 13 14 0 -2
BITMAP
0080
0040
F7F8
9000
93F0
9210
9210
93F0
9080
F148
9350
0520
0990
0108
ENDCHAR
STARTCHAR uni35D3
ENCODING 13779
BBX 13 14 0 -2
BITMAP
0840
0480
F5F0
9110
9110
9DF0
9500
9500
95F8
F508
9508
05F8
0600
09F8
ENDCHAR
STARTCHAR uni35D4
ENCODING 13780
BBX 13 14 0 -2
BITMAP
0080
00F0
F080
97F8
9488
94E0
9788
9478
9440
F7F8
9510
08A0
08E0
1318
ENDCHAR
STARTCHAR uni35D5
ENCODING 13781
BBX 13 14 0 -2
BITMAP
0220
0FF8
F220
97F0
9220
9FF8
9080
97F0
9490
F7F0
9490
0FF8
0410
0470
ENDCHAR
STARTCHAR uni35D6
ENCODING 13782
BBX 12 14 0 -2
BITMAP
0070
0780
F110
9490
9220
9100
9670
9410
9410
F770
9410
0410
07F0
0410
ENDCHAR
STARTCHAR uni35D7
ENCODING 13783
BBX 13 14 0 -2
BITMAP
0040
7C80
45F0
4550
7D50
21F0
2150
FD50
25F0
24A0
2520
47F8
4420
9820
ENDCHAR
STARTCHAR uni35D8
ENCODING 13784
BBX 13 14 0 -2
BITMAP
00A0
07F8
F080
97F0
9490
97F0
9490
97F0
9490
F020
97F8
0220
0120
0060
ENDCHAR
STARTCHAR uni35D9
ENCODING 13785
BBX 13 14 0 -2
BITMAP
0100
03F8
F488
92A8
93E8
9108
9230
9100
93F8
F488
92A8
03E8
0108
0230
ENDCHAR
STARTCHAR uni35DA
ENCODING 13786
BBX 13 13 0 -2
BITMAP
07F8
F140
97F0
9550
9550
97F0
9080
9080
F7F8
91C0
02A0
0C98
0080
ENDCHAR
STARTCHAR uni35DB
ENCODING 13787
BBX 13 14 0 -2
BITMAP
0420
0420
F7B8
9A50
9108
9070
9780
9080
9080
F7F8
9080
0140
0220
0C18
ENDCHAR
STARTCHAR uni35DC
ENCODING 13788
BBX 13 14 0 -2
BITMAP
0100
0080
EFF8
A220
A7C0
A110
A7F8
A008
A7F0
E490
A7F0
0490
07F0
0410
ENDCHAR
STARTCHAR uni35DD
ENCODING 13789
BBX 13 14 0 -2
BITMAP
0410
0220
F000
97F0
9080
9080
97F0
9080
9080
9FF8
F000
9550
04A8
08A8
ENDCHAR
STARTCHAR uni35DE
ENCODING 13790
BBX 13 14 0 -2
BITMAP
0020
1F20
E4F8
A8A8
A8A0
BEA0
AAF0
AAD0
AB50
EB50
AA20
0E20
0A50
0088
ENDCHAR
STARTCHAR uni35DF
ENCODING 13791
BBX 13 14 0 -2
BITMAP
4200
2100
8FF0
4100
0FF0
2100
4100
9FF8
0000
7D30
45C0
4500
7D08
44F8
ENDCHAR
STARTCHAR uni35E0
ENCODING 13792
BBX 13 14 0 -2
BITMAP
2000
2080
F910
4BF8
4808
D1F0
3110
49F0
8000
7D30
45C0
4500
7D08
44F8
ENDCHAR
STARTCHAR uni35E1
ENCODING 13793
BBX 13 14 0 -2
BITMAP
0880
FFF8
0880
17F0
2120
6178
A208
2430
2800
7D30
45C0
4500
7D08
44F8
ENDCHAR
STARTCHAR uni35E2
ENCODING 13794
BBX 13 14 0 -2
BITMAP
01A0
0E20
E220
AFA0
A278
AFA8
AAA8
AFA8
AAA8
EFA8
A228
0FA8
0248
0F98
ENDCHAR
STARTCHAR uni35E3
ENCODING 13795
BBX 13 14 0 -2
BITMAP
0AA0
0AA0
FFF0
AAA8
B398
A000
BFF0
B110
A100
EFE0
A920
0920
0960
0100
ENDCHAR
STARTCHAR uni35E4
ENCODING 13796
BBX 13 14 0 -2
BITMAP
0090
7FF8
4880
4E90
4890
7EA0
5840
6CA8
4918
9A08
0000
7FF0
4010
7FF0
ENDCHAR
STARTCHAR uni35E5
ENCODING 13797
BBX 12 14 1 -2
BITMAP
0200
0F70
E050
AF50
A950
AF60
A060
AF50
A150
E250
AF50
0260
0240
0E40
ENDCHAR
STARTCHAR uni35E6
ENCODING 13798
BBX 13 14 0 -2
BITMAP
0020
1F40
EAB8
AAA8
AEA8
AAA8
AAA8
AEA8
AAE8
EAB8
AB20
1E60
02A0
0320
ENDCHAR
STARTCHAR uni35E7
ENCODING 13799
BBX 13 14 0 -2
BITMAP
0100
0080
EFF8
AA28
A410
ABE8
A100
A220
A7F0
E080
A7F0
0080
0080
0FF8
ENDCHAR
STARTCHAR uni35E8
ENCODING 13800
BBX 12 14 1 -2
BITMAP
FDE0
A120
B930
D200
B9E0
9120
A8C0
FD30
0000
7FC0
4040
4040
7FC0
4040
ENDCHAR
STARTCHAR uni35E9
ENCODING 13801
BBX 13 13 0 -2
BITMAP
0778
F108
9528
9318
9528
9080
9100
97F8
F408
97F8
0408
07F8
0408
ENDCHAR
STARTCHAR uni35EA
ENCODING 13802
BBX 12 14 1 -2
BITMAP
0240
0250
EB60
AA40
AA50
AB30
BD00
A220
A7C0
E110
AFF0
0080
04A0
0990
ENDCHAR
STARTCHAR uni35EB
ENCODING 13803
BBX 13 14 0 -2
BITMAP
0440
0770
E950
B550
AA20
A420
ABD0
A008
A000
EFF0
A080
04A0
0890
0380
ENDCHAR
STARTCHAR uni35EC
ENCODING 13804
BBX 13 14 0 -2
BITMAP
1240
FFF8
8008
1FC0
1040
1FC0
0200
0FE0
34C0
0700
3BF0
0D20
01C0
7E00
ENDCHAR
STARTCHAR uni35ED
ENCODING 13805
BBX 13 14 0 -2
BITMAP
0070
0780
F490
92A0
97F8
91C0
92A0
9498
9000
F080
9050
0548
0528
08E0
ENDCHAR
STARTCHAR uni35EE
ENCODING 13806
BBX 13 14 0 -2
BITMAP
4080
4040
7BF8
4A40
AAF0
1250
23F8
7A50
CAF0
4A40
4AA0
7CA0
4510
0A08
ENDCHAR
STARTCHAR uni35EF
ENCODING 13807
BBX 13 14 0 -2
BITMAP
0400
3FD0
0420
FFF8
0300
1FE0
F020
1FE0
1020
1FE0
0110
7DE0
4508
7CF8
ENDCHAR
STARTCHAR uni35F0
ENCODING 13808
BBX 13 14 0 -2
BITMAP
0250
0250
F450
98A8
92A8
9300
9420
9C20
94A0
F4B8
94A0
04A0
0560
0638
ENDCHAR
STARTCHAR uni35F1
ENCODING 13809
BBX 13 14 0 -2
BITMAP
0140
0120
F3F8
9640
93F0
9240
93F0
9240
93F8
F280
97F8
01C0
02A0
0C98
ENDCHAR
STARTCHAR uni35F2
ENCODING 13810
BBX 13 14 0 -2
BITMAP
0080
07F0
F090
9FF8
9090
97F0
9080
9FF8
9490
F7F0
9490
07F0
0000
0FF8
ENDCHAR
STARTCHAR uni35F3
ENCODING 13811
BBX 13 14 0 -2
BITMAP
0220
0220
F3B8
9550
9888
9140
9220
95D0
9808
F3E0
9220
0220
03E0
0220
ENDCHAR
STARTCHAR uni35F4
ENCODING 13812
BBX 13 14 0 -2
BITMAP
0738
0528
F738
9528
9738
9408
95E8
9528
95E8
F528
95E8
0528
0668
0418
ENDCHAR
STARTCHAR uni35F5
ENCODING 13813
BBX 13 14 0 -2
BITMAP
0240
0AC0
EB40
B278
A548
A890
B220
A2A0
AB20
EA20
B250
0550
0950
1088
ENDCHAR
STARTCHAR uni35F6
ENCODING 13814
BBX 13 14 0 -2
BITMAP
0750
0160
E528
A210
A408
AF70
A150
A748
A480
E470
A710
0150
0120
0650
ENDCHAR
STARTCHAR uni35F7
ENCODING 13815
BBX 13 14 0 -2
BITMAP
0080
0FF8
E948
A7F0
A140
A7F0
A140
AFF8
A000
E7F0
A490
0490
0140
0620
ENDCHAR
STARTCHAR uni35F8
ENCODING 13816
BBX 13 14 0 -2
BITMAP
0500
0518
E9E0
AA80
B098
A488
ABE8
B888
AAA8
EAA8
AAE8
0B28
0808
0818
ENDCHAR
STARTCHAR uni35F9
ENCODING 13817
BBX 13 14 0 -2
BITMAP
0140
0120
F3F8
9640
9BF0
9240
93F0
9240
93F8
F280
9050
0548
0528
08E0
ENDCHAR
STARTCHAR uni35FA
ENCODING 13818
BBX 13 13 0 -2
BITMAP
07F0
E080
AFF8
A220
AD58
A140
AF78
A140
E770
A140
0F78
0140
0140
ENDCHAR
STARTCHAR uni35FB
ENCODING 13819
BBX 13 14 0 -2
BITMAP
1000
09F0
E910
A1D0
A150
BBF8
AA08
AAE8
AAA8
EAE8
AA08
0A38
0800
17F8
ENDCHAR
STARTCHAR uni35FC
ENCODING 13820
BBX 13 14 0 -2
BITMAP
0550
0360
F140
97F8
9210
9120
97F0
9080
93F0
F080
97F8
02A0
0490
0888
ENDCHAR
STARTCHAR uni35FD
ENCODING 13821
BBX 13 14 0 -2
BITMAP
2100
57B8
E4A8
57B0
F4A8
27A8
4530
86A0
0000
3FE0
2020
2020
3FE0
2020
ENDCHAR
STARTCHAR uni35FE
ENCODING 13822
BBX 13 14 0 -2
BITMAP
1440
1460
FEA0
B4A8
BDA8
A8B0
BEB0
AAA0
BEE0
E8A0
BEA0
08A8
08A8
0898
ENDCHAR
STARTCHAR uni35FF
ENCODING 13823
BBX 13 14 0 -2
BITMAP
0F78
0948
EF78
A948
AF78
A808
ABF8
A828
ABA8
EAA8
ABA8
0A28
0868
0818
ENDCHAR
STARTCHAR uni3600
ENCODING 13824
BBX 13 14 0 -2
BITMAP
0100
0670
F410
9770
9410
97F0
9080
9490
92A0
F7F8
91C0
02A0
0498
0080
ENDCHAR
STARTCHAR uni3601
ENCODING 13825
BBX 13 13 0 -2
BITMAP
07F0
F550
97F0
9080
97F0
9080
9FF8
9140
F7F0
9080
0FF8
0080
0080
ENDCHAR
STARTCHAR uni3602
ENCODING 13826
BBX 13 14 0 -2
BITMAP
0220
0140
F7F8
9220
9550
9770
9220
9550
9770
F080
9050
0548
0528
08E0
ENDCHAR
STARTCHAR uni3603
ENCODING 13827
BBX 13 14 0 -2
BITMAP
0220
0FF8
E220
A080
AFF8
A200
A7F0
AA10
A3F0
E080
A050
0548
0528
08E0
ENDCHAR
STARTCHAR uni3604
ENCODING 13828
BBX 13 14 0 -2
BITMAP
0800
0BF8
EAA8
BEA8
ABF8
A840
BC20
ABF8
A880
E8F0
A890
0910
0910
0A60
ENDCHAR
STARTCHAR uni3605
ENCODING 13829
BBX 13 14 0 -2
BITMAP
0480
04B8
E880
B140
A638
A5D0
A890
B890
ABD0
E890
AAD0
0990
08D0
0BB0
ENDCHAR
STARTCHAR uni3606
ENCODING 13830
BBX 13 14 0 -2
BITMAP
0080
0FF8
E080
A7F0
A220
AFF8
A808
A7F0
A220
E7F0
A080
07F0
0080
0FF8
ENDCHAR
STARTCHAR uni3607
ENCODING 13831
BBX 12 14 1 -2
BITMAP
0440
0D50
F6E0
A440
AAA0
B110
AFE0
A820
A100
EFE0
A380
0540
0920
0100
ENDCHAR
STARTCHAR uni3608
ENCODING 13832
BBX 13 14 0 -2
BITMAP
0400
0578
E608
A550
A320
A4F8
A728
AA20
A2A0
EFB8
A2A0
02A0
0560
0918
ENDCHAR
STARTCHAR uni3609
ENCODING 13833
BBX 12 14 1 -2
BITMAP
0440
0770
EAA0
A110
A000
AF70
A950
AF50
A950
EF50
A850
0A70
0D40
0840
ENDCHAR
STARTCHAR uni360A
ENCODING 13834
BBX 13 14 0 -2
BITMAP
07F0
0080
EFF8
AAA8
A100
AFF8
A000
A7F0
A000
E7F0
A000
07F0
0410
07F0
ENDCHAR
STARTCHAR uni360B
ENCODING 13835
BBX 12 14 1 -2
BITMAP
0FF0
0A50
EF50
A930
AF20
AA50
AFE0
A420
A7E0
E420
A7E0
0420
07E0
0240
ENDCHAR
STARTCHAR uni360C
ENCODING 13836
BBX 13 14 0 -2
BITMAP
0408
0788
E408
BFC8
A448
AF28
A4A8
BFE8
A428
FA68
A5A8
5B48
8508
1B38
ENDCHAR
STARTCHAR uni360D
ENCODING 13837
BBX 13 14 0 -2
BITMAP
0420
0D28
F4A0
A538
A6E0
BA28
AF28
BA28
AF30
EA30
AF28
0A28
0F58
0888
ENDCHAR
STARTCHAR uni360E
ENCODING 13838
BBX 13 14 0 -2
BITMAP
2000
17F8
0048
2E48
E288
BFF8
AAA8
AEA8
AAA8
AEA8
EBC8
BE48
22A8
2318
ENDCHAR
STARTCHAR uni360F
ENCODING 13839
BBX 13 14 0 -2
BITMAP
4220
2FF8
2080
07F0
E410
27F0
2410
27F0
5410
8FF8
0110
7DE0
4508
7CF8
ENDCHAR
STARTCHAR uni3610
ENCODING 13840
BBX 13 14 0 -2
BITMAP
0040
0F20
EAF8
AF00
AA50
AF48
AA88
AA00
AF50
E150
AB20
0920
0150
0690
ENDCHAR
STARTCHAR uni3611
ENCODING 13841
BBX 13 14 0 -2
BITMAP
0440
0440
1EF0
E450
AEF8
A050
AEF0
A040
BF50
E4E0
AF50
1548
0440
0DC0
ENDCHAR
STARTCHAR uni3612
ENCODING 13842
BBX 13 14 0 -2
BITMAP
0DF0
7040
13F8
FD50
11F0
3950
35F0
5040
93F8
1000
0110
7DE0
4508
7CF8
ENDCHAR
STARTCHAR uni3613
ENCODING 13843
BBX 13 14 0 -2
BITMAP
0F78
0948
EF78
A948
AF78
A888
AFF8
AAA8
ABE8
EAA8
ABE8
09C8
0AA8
0898
ENDCHAR
STARTCHAR uni3614
ENCODING 13844
BBX 13 14 0 -2
BITMAP
0100
1FF8
F248
AFF0
A240
A7E0
A240
AFF0
A420
EFF0
B428
07E0
0240
0420
ENDCHAR
STARTCHAR uni3615
ENCODING 13845
BBX 12 14 1 -2
BITMAP
0440
1FF0
E440
AF20
AA20
AF30
A940
AFA0
AA10
EF10
A000
0FE0
0AA0
1FF0
ENDCHAR
STARTCHAR uni3616
ENCODING 13846
BBX 13 14 0 -2
BITMAP
0400
0278
EF90
A8A0
A578
AFC8
A978
AA48
AD78
EA48
ACF8
1100
0230
0C48
ENDCHAR
STARTCHAR uni3617
ENCODING 13847
BBX 13 14 0 -2
BITMAP
0F78
0948
EF78
A948
AF78
A948
AF78
A480
AFF8
F480
A7F0
0480
07F8
0400
ENDCHAR
STARTCHAR uni3618
ENCODING 13848
BBX 13 14 0 -2
BITMAP
4210
AFA8
E078
4710
A028
F778
0000
5750
ADA8
0700
0000
7FF0
4010
7FF0
ENDCHAR
STARTCHAR uni3619
ENCODING 13849
BBX 13 14 0 -2
BITMAP
0F78
0948
EF78
A000
AFF8
ABA0
A8B8
AFC8
AAA8
EBA8
AAA8
0B90
0AD0
17A8
ENDCHAR
STARTCHAR uni361A
ENCODING 13850
BBX 13 14 0 -2
BITMAP
3EF8
2288
FEF8
A288
BEF8
A008
AC88
A4F8
BF28
EAA8
AEA8
2B48
3E48
22B8
ENDCHAR
STARTCHAR uni361B
ENCODING 13851
BBX 13 14 0 -2
BITMAP
03C0
0420
EFF0
B428
A7E0
A278
AFC0
A570
BF90
E970
AF40
0970
0F48
0938
ENDCHAR
STARTCHAR uni361C
ENCODING 13852
BBX 13 14 0 -2
BITMAP
6230
5728
F878
A750
F0F8
A750
F078
A750
FD78
8740
3FE0
2020
2020
3FE0
ENDCHAR
STARTCHAR uni361D
ENCODING 13853
BBX 12 14 1 -2
BITMAP
FFF0
8010
BF90
8090
8090
9110
8A10
8410
8A10
9110
A090
8010
FFF0
8010
ENDCHAR
STARTCHAR uni361E
ENCODING 13854
BBX 12 14 1 -2
BITMAP
FFF0
8010
8410
8410
BF90
8490
8490
8890
8890
9090
A310
8010
FFF0
8010
ENDCHAR
STARTCHAR uni361F
ENCODING 13855
BBX 12 14 1 -2
BITMAP
FFF0
8010
8010
9110
9110
FFD0
9110
9110
9110
A110
C110
8010
FFF0
8010
ENDCHAR
STARTCHAR uni3620
ENCODING 13856
BBX 12 14 1 -2
BITMAP
FFF0
8010
8410
8290
8090
A950
AA30
CC10
8890
B790
8010
8010
FFF0
8010
ENDCHAR
STARTCHAR uni3621
ENCODING 13857
BBX 12 14 1 -2
BITMAP
FFF0
8010
BFD0
A450
A450
BFD0
A450
A450
BFD0
8410
8410
8410
FFF0
8010
ENDCHAR
STARTCHAR uni3622
ENCODING 13858
BBX 12 14 1 -2
BITMAP
FFF0
8010
8410
A490
9510
8410
BF90
8A10
8A10
9290
A190
8010
FFF0
8010
ENDCHAR
STARTCHAR uni3623
ENCODING 13859
BBX 12 14 1 -2
BITMAP
FFF0
8010
9F90
9090
9F90
8010
BFD0
A050
BFD0
A050
BFD0
A050
A1D0
FFF0
ENDCHAR
STARTCHAR uni3624
ENCODING 13860
BBX 13 14 0 -2
BITMAP
FFF8
8288
AAA8
9AA8
8AA8
CEE8
A828
8FE8
8828
9EE8
AAA8
CAA8
92A8
FFF8
ENDCHAR
STARTCHAR uni3625
ENCODING 13861
BBX 13 14 0 -2
BITMAP
FFF8
8CE8
B248
AA88
95E8
9048
BEA8
C9F8
BEC8
8968
AA58
BEC8
8008
FFF8
ENDCHAR
STARTCHAR uni3626
ENCODING 13862
BBX 12 14 0 -2
BITMAP
2100
2100
2100
27F0
F910
2110
2110
2110
2110
3910
E210
0210
0410
0860
ENDCHAR
STARTCHAR uni3627
ENCODING 13863
BBX 13 14 0 -2
BITMAP
2000
23F0
2010
20A0
F840
27F8
2048
2050
2040
3840
E040
0040
0040
01C0
ENDCHAR
STARTCHAR uni3628
ENCODING 13864
BBX 12 14 0 -2
BITMAP
2080
2080
2080
27F0
F490
2490
2490
2550
2630
2410
3410
C410
0410
0470
ENDCHAR
STARTCHAR uni3629
ENCODING 13865
BBX 13 14 0 -2
BITMAP
2040
2440
2440
2448
F450
2760
2440
2440
2440
2440
3440
C548
0648
0438
ENDCHAR
STARTCHAR uni362A
ENCODING 13866
BBX 13 14 0 -2
BITMAP
2070
2380
2080
2080
F8F0
2380
2080
2080
20F8
2780
3880
E088
0088
0078
ENDCHAR
STARTCHAR uni362B
ENCODING 13867
BBX 13 14 0 -2
BITMAP
2120
2120
2120
23F0
F920
2120
2120
27F8
2120
2120
3920
E220
0220
0420
ENDCHAR
STARTCHAR uni362C
ENCODING 13868
BBX 12 14 0 -2
BITMAP
2200
2200
23F0
2410
F810
2110
2110
2210
2290
27D0
3050
C010
0010
0060
ENDCHAR
STARTCHAR uni362D
ENCODING 13869
BBX 13 14 0 -2
BITMAP
2200
2200
2278
2208
F488
2488
2708
2108
2208
2208
3488
C788
0088
0030
ENDCHAR
STARTCHAR uni362E
ENCODING 13870
BBX 13 14 0 -2
BITMAP
2000
23F0
2210
2210
FA10
2210
23F0
2240
2240
2240
3A20
E420
0410
0808
ENDCHAR
STARTCHAR uni362F
ENCODING 13871
BBX 13 14 0 -2
BITMAP
2200
2200
23F8
2400
F900
2100
27F0
2110
2110
2110
3A10
E210
0410
0860
ENDCHAR
STARTCHAR uni3630
ENCODING 13872
BBX 13 14 0 -2
BITMAP
2020
2120
20A0
20A0
FA20
2120
2120
2038
23E0
2020
3820
E020
0020
0020
ENDCHAR
STARTCHAR uni3631
ENCODING 13873
BBX 13 14 0 -2
BITMAP
2080
2080
27F0
2490
F490
27F0
2490
2490
2490
2FF8
3410
C410
0410
0470
ENDCHAR
STARTCHAR uni3632
ENCODING 13874
BBX 13 14 0 -2
BITMAP
2000
27F0
2410
2410
F7F0
2480
2480
27E0
24A0
24A0
3520
C928
0A28
1418
ENDCHAR
STARTCHAR uni3633
ENCODING 13875
BBX 13 14 0 -2
BITMAP
0880
0880
7898
08E0
0880
3888
C888
0A78
0200
7FF0
0200
0200
0200
FFF8
ENDCHAR
STARTCHAR uni3634
ENCODING 13876
BBX 13 14 0 -2
BITMAP
0200
0220
7A20
4A20
4A50
7A48
0288
0200
7FF0
0200
0200
0200
0200
FFF8
ENDCHAR
STARTCHAR uni3635
ENCODING 13877
BBX 13 14 0 -2
BITMAP
2080
2080
27F8
2100
F940
2240
27F8
2A48
2248
2248
3A48
E258
0040
0040
ENDCHAR
STARTCHAR uni3636
ENCODING 13878
BBX 13 14 0 -2
BITMAP
2040
2040
3DF0
4440
8840
2A40
13F8
2040
4240
8240
7FF0
0200
0200
FFF8
ENDCHAR
STARTCHAR uni3637
ENCODING 13879
BBX 13 14 0 -2
BITMAP
2120
2120
27F8
2120
F920
2000
2220
2220
2140
3940
E080
0140
0220
0C18
ENDCHAR
STARTCHAR uni3638
ENCODING 13880
BBX 13 13 0 -2
BITMAP
7FF0
1080
1CB0
24C0
5488
0888
1078
6200
0200
7FF0
0200
0200
FFF8
ENDCHAR
STARTCHAR uni3639
ENCODING 13881
BBX 13 14 0 -2
BITMAP
1100
1110
5D20
51C0
5108
5D08
E0F8
0200
0200
7FF0
0200
0200
0200
FFF8
ENDCHAR
STARTCHAR uni363A
ENCODING 13882
BBX 13 14 0 -2
BITMAP
2150
2148
2240
2278
F7C0
2A48
2248
2250
2250
2220
3228
C268
0298
0208
ENDCHAR
STARTCHAR uni363B
ENCODING 13883
BBX 13 14 0 -2
BITMAP
2000
23F8
2208
2248
FA48
23F8
2248
2248
22A8
2318
3A08
E208
03F8
0208
ENDCHAR
STARTCHAR uni363C
ENCODING 13884
BBX 13 14 0 -2
BITMAP
2080
2090
23D0
20A0
F7F8
2080
2100
23F0
2480
2900
31F0
C010
0010
0060
ENDCHAR
STARTCHAR uni363D
ENCODING 13885
BBX 13 14 0 -2
BITMAP
1080
10A0
7E90
1090
1080
FFF8
0080
1090
7C90
10A0
1048
1CA8
E118
0208
ENDCHAR
STARTCHAR uni363E
ENCODING 13886
BBX 13 14 0 -2
BITMAP
2100
2080
2FF8
2808
F000
27F0
2080
2080
2FF8
2080
3080
C080
0080
0380
ENDCHAR
STARTCHAR uni363F
ENCODING 13887
BBX 13 14 0 -2
BITMAP
2000
27F0
2410
2410
F7F0
2410
2410
27F0
2080
2080
37F0
C080
0080
0FF8
ENDCHAR
STARTCHAR uni3640
ENCODING 13888
BBX 13 14 0 -2
BITMAP
2100
2080
2FF0
2810
F240
2420
2910
2100
27E0
2120
3220
C220
0428
0818
ENDCHAR
STARTCHAR uni3641
ENCODING 13889
BBX 13 14 0 -2
BITMAP
2200
2200
23F8
2400
FBF0
2290
2250
2FF8
2210
2490
3450
C7F8
0010
0060
ENDCHAR
STARTCHAR uni3642
ENCODING 13890
BBX 13 14 0 -2
BITMAP
2210
2110
2120
23F0
FA10
2210
2210
23F0
2120
2120
3920
E128
0228
0418
ENDCHAR
STARTCHAR uni3643
ENCODING 13891
BBX 13 14 0 -2
BITMAP
2000
2030
23C0
2200
FA00
23F8
2220
2220
2220
2FF8
3800
E120
0210
0408
ENDCHAR
STARTCHAR uni3644
ENCODING 13892
BBX 13 14 0 -2
BITMAP
2440
2448
2450
2760
F440
2548
2648
2438
2080
2080
37F0
C080
0080
0FF8
ENDCHAR
STARTCHAR uni3645
ENCODING 13893
BBX 13 14 0 -2
BITMAP
2000
27F0
2410
2410
F7F0
2080
2080
2FF8
21C0
22A0
32A0
C490
0888
0080
ENDCHAR
STARTCHAR uni3646
ENCODING 13894
BBX 13 14 0 -2
BITMAP
2080
2040
27F8
2408
F488
2080
27F8
2100
2240
2240
3290
C488
05F8
0808
ENDCHAR
STARTCHAR uni3647
ENCODING 13895
BBX 13 14 0 -2
BITMAP
2000
27F8
2080
2100
F288
2450
22E0
2160
22D0
24D0
3148
C240
0440
0180
ENDCHAR
STARTCHAR uni3648
ENCODING 13896
BBX 13 14 0 -2
BITMAP
2080
20F0
2080
27F8
F488
24E0
2780
2490
2470
2400
35E0
C520
0928
0218
ENDCHAR
STARTCHAR uni3649
ENCODING 13897
BBX 13 14 0 -2
BITMAP
2140
2140
27F0
2550
F550
2550
27F0
2550
2550
2550
3FF8
C140
0220
0410
ENDCHAR
STARTCHAR uni364A
ENCODING 13898
BBX 13 14 0 -2
BITMAP
2000
23F0
2200
23E0
F200
23E0
2200
2FF8
2490
24A0
3440
C420
0510
0608
ENDCHAR
STARTCHAR uni364B
ENCODING 13899
BBX 13 14 0 -2
BITMAP
2220
2220
27F0
2220
F220
23E0
2220
23E0
2220
2220
37F8
C000
0220
0410
ENDCHAR
STARTCHAR uni364C
ENCODING 13900
BBX 13 14 0 -2
BITMAP
2080
2080
27F0
2090
FFF8
2090
27F0
2080
2490
25D0
36B0
C490
0490
0890
ENDCHAR
STARTCHAR uni364D
ENCODING 13901
BBX 13 14 0 -2
BITMAP
2000
2770
2110
2550
F220
2550
2890
2000
2770
2150
3550
C220
0550
0888
ENDCHAR
STARTCHAR uni364E
ENCODING 13902
BBX 13 14 0 -2
BITMAP
4050
4048
4FF8
4840
EFC0
4950
4950
4FD0
4AD0
4AA0
6928
D2A8
1458
2088
ENDCHAR
STARTCHAR uni364F
ENCODING 13903
BBX 13 14 0 -2
BITMAP
2200
23F8
2400
2BF0
F210
23F0
2210
23F0
2100
23F0
3610
C920
00C0
0738
ENDCHAR
STARTCHAR uni3650
ENCODING 13904
BBX 13 14 0 -2
BITMAP
2080
2490
2490
27F0
F000
2FF8
2080
2100
27F0
2550
3550
C550
0550
0430
ENDCHAR
STARTCHAR uni3651
ENCODING 13905
BBX 13 14 0 -2
BITMAP
01E0
7E00
0200
3FE0
2220
3FE0
0200
7FF0
4290
5FD0
4230
1FC0
0200
FFF8
ENDCHAR
STARTCHAR uni3652
ENCODING 13906
BBX 13 14 0 -2
BITMAP
7DF0
5410
54A0
7C40
55F8
5448
5450
7C40
01C0
0200
7FF0
0200
0200
FFF8
ENDCHAR
STARTCHAR uni3653
ENCODING 13907
BBX 13 14 0 -2
BITMAP
0200
3FE0
0200
FFF8
1040
7DF0
1040
1DF8
E000
0200
7FF0
0200
0200
FFF8
ENDCHAR
STARTCHAR uni3654
ENCODING 13908
BBX 13 14 0 -2
BITMAP
2080
27E0
2120
2FF8
F000
27F0
2410
27F0
2080
37F0
C880
0FF8
0080
0080
ENDCHAR
STARTCHAR uni3655
ENCODING 13909
BBX 12 14 0 -2
BITMAP
2000
27F0
2490
27F0
F490
27F0
2000
27F0
2410
27F0
3410
C7F0
0410
0470
ENDCHAR
STARTCHAR uni3656
ENCODING 13910
BBX 13 14 0 -2
BITMAP
2070
2780
2080
23F0
FA90
2290
23F0
2080
27F8
2488
3CA8
E5E8
0408
0438
ENDCHAR
STARTCHAR uni3657
ENCODING 13911
BBX 13 14 0 -2
BITMAP
27F0
2490
2490
27F0
F490
2490
27F0
2000
2FF8
2510
34A0
C440
0620
0418
ENDCHAR
STARTCHAR uni3658
ENCODING 13912
BBX 13 14 0 -2
BITMAP
2000
27F8
2140
27F0
F550
2550
27F0
2080
27F8
2120
3340
C0C0
0120
0610
ENDCHAR
STARTCHAR uni3659
ENCODING 13913
BBX 13 14 0 -2
BITMAP
4240
2220
0FF8
82A0
42D0
12A0
22D0
24A8
44C8
4B78
0200
7FF0
0200
FFF8
ENDCHAR
STARTCHAR uni365A
ENCODING 13914
BBX 13 14 0 -2
BITMAP
2410
2220
27F0
2080
F7F0
2080
2FF8
2000
2480
27F0
3880
CFF8
0080
0080
ENDCHAR
STARTCHAR uni365B
ENCODING 13915
BBX 13 14 0 -2
BITMAP
20A0
27F8
2080
27F0
F490
27F0
2490
27F0
2490
2020
37F8
C220
0120
0060
ENDCHAR
STARTCHAR uni365C
ENCODING 13916
BBX 13 14 0 -2
BITMAP
0200
FFF8
1040
1FC0
0000
7FF0
5050
5FD0
4030
0200
7FF0
0200
0200
FFF8
ENDCHAR
STARTCHAR uni365D
ENCODING 13917
BBX 13 14 0 -2
BITMAP
2100
2FF0
2210
2430
FF78
2528
2B58
27F0
2410
27F0
3410
C7F0
0410
0470
ENDCHAR
STARTCHAR uni365E
ENCODING 13918
BBX 13 14 0 -2
BITMAP
2100
27F0
2410
27F0
F410
27F0
2410
27F0
2080
27F8
31C0
C2A0
0C98
0080
ENDCHAR
STARTCHAR uni365F
ENCODING 13919
BBX 13 14 0 -2
BITMAP
2200
2138
27A8
24A8
F4A8
27B8
24A8
24A8
27B8
2428
3628
C528
06A8
0458
ENDCHAR
STARTCHAR uni3660
ENCODING 13920
BBX 13 14 0 -2
BITMAP
7EF0
5090
5C98
6900
5CF0
4890
5460
7E98
0000
0200
7FF0
0200
0200
FFF8
ENDCHAR
STARTCHAR uni3661
ENCODING 13921
BBX 13 14 0 -2
BITMAP
2250
2250
2450
28A8
F2A8
2300
2420
2C20
24A0
24B8
34A0
C4A0
0560
0638
ENDCHAR
STARTCHAR uni3662
ENCODING 13922
BBX 13 14 0 -2
BITMAP
2220
2220
2FF8
2220
F3E0
2080
2FF8
2888
2CC8
2AA8
3DD8
C888
0888
08B8
ENDCHAR
STARTCHAR uni3663
ENCODING 13923
BBX 13 14 0 -2
BITMAP
4000
4E78
4240
4278
EE40
4878
4840
49F8
4EA8
42A8
6290
C290
0288
0CC0
ENDCHAR
STARTCHAR uni3664
ENCODING 13924
BBX 13 14 0 -2
BITMAP
2080
20F0
2080
27F8
F488
24E0
2788
2478
27C0
2648
3550
CBF8
0840
10C0
ENDCHAR
STARTCHAR uni3665
ENCODING 13925
BBX 13 14 0 -2
BITMAP
2100
2080
2FF8
2220
F490
2908
2240
27E0
2110
22A0
3640
CAA0
0318
0200
ENDCHAR
STARTCHAR uni3666
ENCODING 13926
BBX 13 14 0 -2
BITMAP
1020
2920
44A0
B920
10A0
FE38
55E0
9220
3020
0200
7FF0
0200
0200
FFF8
ENDCHAR
STARTCHAR uni3667
ENCODING 13927
BBX 13 14 0 -2
BITMAP
2000
2FF8
2140
2770
F550
2550
2770
2140
27F0
2490
37F0
C490
07F0
0410
ENDCHAR
STARTCHAR uni3668
ENCODING 13928
BBX 13 14 0 -2
BITMAP
4490
4AA8
4EB8
4490
EAA8
4EB8
4490
4FF8
4480
4450
6658
C528
0458
0888
ENDCHAR
STARTCHAR uni3669
ENCODING 13929
BBX 13 14 0 -2
BITMAP
2080
27F0
2080
2550
F220
27F0
2A28
23E0
2220
23E0
3080
C490
0888
0180
ENDCHAR
STARTCHAR uni366A
ENCODING 13930
BBX 13 14 0 -2
BITMAP
2080
27F8
2080
23F0
F800
27F8
2408
23F0
2000
23F0
3A10
E3F0
0120
07F8
ENDCHAR
STARTCHAR uni366B
ENCODING 13931
BBX 13 14 0 -2
BITMAP
2140
2120
23F8
2640
F3F0
2240
23F0
2240
23F8
2280
37F8
C1C0
02A0
0C98
ENDCHAR
STARTCHAR uni366C
ENCODING 13932
BBX 13 14 0 -2
BITMAP
1050
FE48
5440
55F8
BA40
10A0
38A0
5510
9208
1200
7FF0
0200
0200
FFF8
ENDCHAR
STARTCHAR uni366D
ENCODING 13933
BBX 13 14 0 -2
BITMAP
4000
4FF8
4800
4C50
EA90
4818
4FE8
4900
4D50
4D50
6FD0
C910
0A28
1448
ENDCHAR
STARTCHAR uni366E
ENCODING 13934
BBX 13 14 0 -2
BITMAP
2220
2220
23B8
2550
F888
2140
2220
25D0
2808
23E0
3220
C220
03E0
0220
ENDCHAR
STARTCHAR uni366F
ENCODING 13935
BBX 13 14 0 -2
BITMAP
1080
7C80
11E0
FEA0
55A0
BAE8
10A8
1918
6208
3FE0
0000
FFF8
1040
3FE0
ENDCHAR
STARTCHAR uni3670
ENCODING 13936
BBX 13 14 0 -2
BITMAP
4000
7BF0
9090
7D30
5540
7FF0
5440
7DF8
5440
8C40
0240
7FF0
0200
FFF8
ENDCHAR
STARTCHAR uni3671
ENCODING 13937
BBX 13 14 0 -2
BITMAP
7878
4840
7BF8
0248
FE60
23C8
7A38
0AE0
0AA8
3518
0200
7FF0
0200
FFF8
ENDCHAR
STARTCHAR uni3672
ENCODING 13938
BBX 13 14 0 -2
BITMAP
2100
2080
2FF8
2220
F220
2550
2F78
22D0
2578
2F50
3278
C250
0478
0840
ENDCHAR
STARTCHAR uni3673
ENCODING 13939
BBX 13 14 0 -2
BITMAP
4060
4050
4FF8
4840
EBD0
4850
4BA8
4AA8
4BD8
4888
7100
C090
0A28
11E0
ENDCHAR
STARTCHAR uni3674
ENCODING 13940
BBX 13 14 0 -2
BITMAP
2100
23F0
2420
27F8
F550
26E8
2400
25F0
2400
25F0
3400
C5F0
0510
09F0
ENDCHAR
STARTCHAR uni3675
ENCODING 13941
BBX 13 14 0 -2
BITMAP
2080
2FF8
2220
23E0
F000
27F0
2550
25D0
2430
2080
37F0
C080
0080
0FF8
ENDCHAR
STARTCHAR uni3676
ENCODING 13942
BBX 13 14 0 -2
BITMAP
0200
FFF8
2020
3FE0
1240
FFF8
8008
3FE0
2020
3FE0
0200
7FF0
0200
FFF8
ENDCHAR
STARTCHAR uni3677
ENCODING 13943
BBX 13 14 0 -2
BITMAP
2000
27F0
2410
27F0
F410
27F0
2220
2548
2770
2220
3550
C778
0000
0550
ENDCHAR
STARTCHAR uni3678
ENCODING 13944
BBX 13 14 0 -2
BITMAP
22A0
22A8
25B0
27F8
FD10
24A0
27F8
2440
25F0
2440
37F8
C4A0
0510
0608
ENDCHAR
STARTCHAR uni3679
ENCODING 13945
BBX 13 14 0 -2
BITMAP
2220
2FF8
2220
27F0
F550
27F0
2000
2FF8
2908
23E0
3420
CA40
0180
0E00
ENDCHAR
STARTCHAR uni367A
ENCODING 13946
BBX 13 14 0 -2
BITMAP
27F8
2440
25F0
2550
F5F0
2440
27F8
2400
25F0
2590
3550
C5F0
04A0
07F8
ENDCHAR
STARTCHAR uni367B
ENCODING 13947
BBX 13 14 0 -2
BITMAP
2080
27F8
2400
25F0
F550
25F0
2550
25F0
2440
27F8
3550
C6E8
0840
03F8
ENDCHAR
STARTCHAR uni367C
ENCODING 13948
BBX 13 14 0 -2
BITMAP
47F0
4490
47F0
4490
E7F0
4000
4FF8
4AA8
4AA8
4FF8
6AA8
CAA8
0FF8
0888
ENDCHAR
STARTCHAR uni367D
ENCODING 13949
BBX 13 14 0 -2
BITMAP
4080
4FF8
4080
4EB8
E490
4EB8
4AA8
4EB8
4AA8
4EB8
6140
C220
0410
0808
ENDCHAR
STARTCHAR uni367E
ENCODING 13950
BBX 13 14 0 -2
BITMAP
2230
2550
26B0
2550
F6B0
2550
2FF8
2808
23E0
2040
37F0
C080
0080
0380
ENDCHAR
STARTCHAR uni367F
ENCODING 13951
BBX 13 14 0 -2
BITMAP
4220
4FF8
4080
47F0
E080
4FF8
4250
4FF8
4740
4AD0
6F50
C5A8
08D8
1188
ENDCHAR
STARTCHAR uni3680
ENCODING 13952
BBX 13 14 0 -2
BITMAP
43A0
4228
4FA0
4AF8
EF20
4AA0
4FE8
4828
4FB0
4CB0
6FA8
C828
1558
0F88
ENDCHAR
STARTCHAR uni3681
ENCODING 13953
BBX 13 14 0 -2
BITMAP
2040
71F0
2040
FBF8
5110
FBB8
5110
FBB8
0000
FBF8
50A0
50A0
5928
9218
ENDCHAR
STARTCHAR uni3682
ENCODING 13954
BBX 13 14 0 -2
BITMAP
4080
4FF8
4490
47F0
E080
4FF8
5558
4770
4220
4FF8
6220
DFF8
0650
0B38
ENDCHAR
STARTCHAR uni3683
ENCODING 13955
BBX 13 14 0 -2
BITMAP
0200
FFF8
0200
7FF0
0000
FFF8
8008
28A0
2720
28A0
3FE0
1040
0880
FFF8
ENDCHAR
STARTCHAR uni3684
ENCODING 13956
BBX 13 14 0 -2
BITMAP
0200
7FF0
0200
FFF8
A228
3FE0
2220
3FE0
0000
7FF0
0210
23E0
2200
5FF8
ENDCHAR
STARTCHAR uni3685
ENCODING 13957
BBX 13 14 0 -2
BITMAP
0800
1FE0
2840
4480
0300
1CC0
E038
0F80
2200
3FF0
4200
3FE0
0200
FFF8
ENDCHAR
STARTCHAR uni3686
ENCODING 13958
BBX 13 14 0 -2
BITMAP
0400
0200
FFF8
0000
3FE0
2020
3FE0
2020
3FE0
0800
3FE0
D040
0F80
F078
ENDCHAR
STARTCHAR uni3687
ENCODING 13959
BBX 13 13 0 -2
BITMAP
4CD0
4310
4C90
4010
7FF0
2020
4410
8FC8
1840
2480
0300
1CC0
E038
ENDCHAR
STARTCHAR uni3688
ENCODING 13960
BBX 13 14 0 -2
BITMAP
2040
2040
2040
3C40
4440
4440
A7F8
1440
0840
0840
1040
1040
2040
4040
ENDCHAR
STARTCHAR uni3689
ENCODING 13961
BBX 12 14 0 -2
BITMAP
7FE0
1020
1440
17F0
2890
5510
8260
0D00
33E0
0420
1A40
0180
0600
7800
ENDCHAR
STARTCHAR uni368A
ENCODING 13962
BBX 13 14 0 -2
BITMAP
2040
2020
3DF8
4420
A840
1088
29F0
D020
3C48
4490
AB20
1050
2088
C300
ENDCHAR
STARTCHAR uni368B
ENCODING 13963
BBX 13 14 0 -2
BITMAP
2000
23F8
3E48
4648
AAE8
1248
2BF8
D208
3EE8
46A8
AAA8
12E8
2208
C438
ENDCHAR
STARTCHAR uni368C
ENCODING 13964
BBX 13 14 0 -2
BITMAP
2000
21F0
3D50
45F0
A950
1150
29F0
D040
3DF8
4440
A8E0
1150
2248
C040
ENDCHAR
STARTCHAR uni368D
ENCODING 13965
BBX 13 14 0 -2
BITMAP
2040
21F0
3D50
45F0
A840
13F8
2910
D1F0
3D10
45F0
A910
11F0
20A0
C110
ENDCHAR
STARTCHAR uni368E
ENCODING 13966
BBX 13 14 0 -2
BITMAP
0200
FFF8
0500
0880
3060
C018
0000
4010
4010
4010
4010
4010
7FF0
0010
ENDCHAR
STARTCHAR uni368F
ENCODING 13967
BBX 13 14 0 -2
BITMAP
0200
0200
FFF8
0500
0880
3060
C018
1040
1040
FFF8
1040
1040
2040
4040
ENDCHAR
STARTCHAR uni3690
ENCODING 13968
BBX 13 14 0 -2
BITMAP
0200
7FF0
0200
0200
0580
0860
3010
C008
0200
FFF8
0500
0880
3060
C018
ENDCHAR
STARTCHAR uni3691
ENCODING 13969
BBX 13 13 0 -2
BITMAP
7FF0
0010
3FF0
0010
0010
7FF0
0000
0200
FFF8
0500
0880
3060
C018
ENDCHAR
STARTCHAR uni3692
ENCODING 13970
BBX 13 14 0 -2
BITMAP
0200
0200
FFF8
0200
4240
2220
2220
5250
8A88
0200
0500
0880
3060
C018
ENDCHAR
STARTCHAR uni3693
ENCODING 13971
BBX 13 14 0 -2
BITMAP
0200
0200
7FF0
0200
05C0
1830
E208
0200
FFF8
0700
0A80
3260
C218
0200
ENDCHAR
STARTCHAR uni3694
ENCODING 13972
BBX 13 14 0 -2
BITMAP
0200
FFF8
0500
0880
3060
D058
0880
3FE0
0200
0200
FFF8
0200
0200
0200
ENDCHAR
STARTCHAR uni3695
ENCODING 13973
BBX 13 14 0 -2
BITMAP
0200
FFF8
0500
0880
3060
C918
7FE0
0920
7FE0
4900
7FF0
1110
2110
4160
ENDCHAR
STARTCHAR uni3696
ENCODING 13974
BBX 13 14 0 -2
BITMAP
0400
0800
3FE0
2020
2020
3FE0
2020
2020
3FE0
0200
FFF8
0880
3060
C018
ENDCHAR
STARTCHAR uni3697
ENCODING 13975
BBX 13 14 0 -2
BITMAP
0200
FFF8
0500
0880
3060
C018
3FE0
2020
3FE0
2020
3FE0
2020
2020
FFF8
ENDCHAR
STARTCHAR uni3698
ENCODING 13976
BBX 13 14 0 -2
BITMAP
1040
1040
1040
7DF0
1040
1040
1040
FDF8
1040
1040
28A0
24A0
4510
8208
ENDCHAR
STARTCHAR uni3699
ENCODING 13977
BBX 13 14 0 -2
BITMAP
2000
2000
FDF0
2510
2510
4510
45F0
9800
0200
FFF8
0500
0880
3060
C018
ENDCHAR
STARTCHAR uni369A
ENCODING 13978
BBX 13 14 0 -2
BITMAP
0200
FFF8
0880
3060
C418
0FE0
1820
6440
0380
0C00
3FF0
D010
1010
1FF0
ENDCHAR
STARTCHAR uni369B
ENCODING 13979
BBX 13 14 0 -2
BITMAP
0200
FFF8
0880
3060
E398
3C00
2020
1FE0
0000
3FE0
2020
3FE0
2020
3FE0
ENDCHAR
STARTCHAR uni369C
ENCODING 13980
BBX 13 14 0 -2
BITMAP
0200
FFF8
0880
3060
C018
0140
FFF8
0100
7D10
4490
7CA0
0048
1CA8
E118
ENDCHAR
STARTCHAR uni369D
ENCODING 13981
BBX 13 14 0 -2
BITMAP
0200
FFF8
0500
0880
3060
C018
1080
27F0
6080
AFF8
2080
27F0
2080
2FF8
ENDCHAR
STARTCHAR uni369E
ENCODING 13982
BBX 13 14 0 -2
BITMAP
0200
FFF8
0500
0880
3060
C018
1040
FDF8
1040
38E0
3560
5250
9048
1040
ENDCHAR
STARTCHAR uni369F
ENCODING 13983
BBX 13 14 0 -2
BITMAP
1000
1F80
2100
7FE0
A020
3FE0
4110
7DE0
4108
7CF8
0200
FFF8
18C0
E038
ENDCHAR
STARTCHAR uni36A0
ENCODING 13984
BBX 13 14 0 -2
BITMAP
0200
FFF8
0880
3060
C898
0500
3FE0
0200
1FC0
0200
FFF8
0000
2920
4490
ENDCHAR
STARTCHAR uni36A1
ENCODING 13985
BBX 13 14 0 -2
BITMAP
1040
1040
7DF0
28A0
4510
FFF8
0410
75D0
5550
5550
75D0
4510
0410
1C70
ENDCHAR
STARTCHAR uni36A2
ENCODING 13986
BBX 13 14 0 -2
BITMAP
1100
1100
1100
2100
2FF8
6220
A220
2220
2640
2140
2080
2140
2220
2C10
ENDCHAR
STARTCHAR uni36A3
ENCODING 13987
BBX 13 14 0 -2
BITMAP
0400
FFF8
1080
3900
0700
18E0
E010
0400
FFF8
0840
1880
0700
18E0
E010
ENDCHAR
STARTCHAR uni36A4
ENCODING 13988
BBX 13 14 0 -2
BITMAP
2100
2120
2110
F910
4938
4FC0
4900
8900
4880
3080
1048
2828
4818
8008
ENDCHAR
STARTCHAR uni36A5
ENCODING 13989
BBX 13 14 0 -2
BITMAP
2000
23F0
2040
F840
4840
4840
4BF8
9040
5040
2040
5040
4840
8040
01C0
ENDCHAR
STARTCHAR uni36A6
ENCODING 13990
BBX 13 14 0 -2
BITMAP
2000
27F8
2110
F910
4910
4910
4910
9110
5110
2110
5110
4A10
8210
0410
ENDCHAR
STARTCHAR uni36A7
ENCODING 13991
BBX 13 14 0 -2
BITMAP
2080
2040
2040
FBF8
4A00
4A00
4A00
9200
5200
2200
5200
4C00
8400
0800
ENDCHAR
STARTCHAR uni36A8
ENCODING 13992
BBX 13 14 0 -2
BITMAP
2000
23E0
2120
F920
4920
4920
4BE0
8920
4920
3128
1128
2928
4918
8108
ENDCHAR
STARTCHAR uni36A9
ENCODING 13993
BBX 13 14 0 -2
BITMAP
2000
21F0
2110
F910
4BF8
4910
4910
8910
4BF8
3110
1110
2910
4910
8130
ENDCHAR
STARTCHAR uni36AA
ENCODING 13994
BBX 13 14 0 -2
BITMAP
2070
2380
2080
F880
48F0
4B80
4880
9080
50F8
2780
5080
4888
8088
0078
ENDCHAR
STARTCHAR uni36AB
ENCODING 13995
BBX 13 14 0 -2
BITMAP
2000
23F0
2110
F910
4920
4940
4978
9108
5108
2190
5150
4A20
8250
0488
ENDCHAR
STARTCHAR uni36AC
ENCODING 13996
BBX 13 14 0 -2
BITMAP
2100
2100
21F8
FA08
4C08
4908
4888
8828
4848
3088
1308
2808
4808
8030
ENDCHAR
STARTCHAR uni36AD
ENCODING 13997
BBX 13 14 0 -2
BITMAP
2100
2120
2110
F900
4FF8
4940
4940
9140
5140
2140
5240
4A48
8448
0838
ENDCHAR
STARTCHAR uni36AE
ENCODING 13998
BBX 13 14 0 -2
BITMAP
2000
27F0
2410
F410
5000
53C0
5240
5240
9240
5240
2240
5448
5448
8838
ENDCHAR
STARTCHAR uni36AF
ENCODING 13999
BBX 13 14 0 -2
BITMAP
2000
27E0
2420
F420
5660
5560
54A0
54A0
9560
5668
2428
5428
4818
9008
ENDCHAR
STARTCHAR uni36B0
ENCODING 14000
BBX 13 14 0 -2
BITMAP
2000
23F8
2020
F820
4840
4840
48D0
8948
4A48
3040
1040
2840
4800
83F8
ENDCHAR
STARTCHAR uni36B1
ENCODING 14001
BBX 13 14 0 -2
BITMAP
2000
2030
23C0
FA00
4A00
4A00
4BF8
8A20
4A20
3220
1220
2A20
4A20
87F8
ENDCHAR
STARTCHAR uni36B2
ENCODING 14002
BBX 13 14 0 -2
BITMAP
2080
2080
2080
F8F8
4880
4880
4880
8BF0
4A10
3210
1210
2A10
4BF0
8210
ENDCHAR
STARTCHAR uni36B3
ENCODING 14003
BBX 13 14 0 -2
BITMAP
2200
2200
2200
F7B8
52A8
52A8
52A8
52A8
92A8
52A8
22A8
54B8
54A8
8B00
ENDCHAR
STARTCHAR uni36B4
ENCODING 14004
BBX 13 14 0 -2
BITMAP
2080
2080
27F8
F100
5140
5240
57F8
5A48
9248
5248
2248
5258
5040
8040
ENDCHAR
STARTCHAR uni36B5
ENCODING 14005
BBX 13 14 0 -2
BITMAP
2100
2100
21E0
F220
5540
5080
5140
5220
9418
5180
2060
5300
50C0
8020
ENDCHAR
STARTCHAR uni36B6
ENCODING 14006
BBX 13 14 0 -2
BITMAP
2000
23F0
2210
FA10
4A10
4BF0
4A00
9200
53F8
2208
5208
4A08
83F8
0208
ENDCHAR
STARTCHAR uni36B7
ENCODING 14007
BBX 13 14 0 -2
BITMAP
2080
2080
2140
F140
5220
5410
5888
5080
92A0
5290
2490
5080
5080
8380
ENDCHAR
STARTCHAR uni36B8
ENCODING 14008
BBX 13 14 0 -2
BITMAP
2000
23F8
2008
F808
4BE8
4808
4808
93E8
5228
2228
53E8
4A08
8008
0038
ENDCHAR
STARTCHAR uni36B9
ENCODING 14009
BBX 13 14 0 -2
BITMAP
2080
2338
22A8
FAA8
4AA8
4AA8
4AA8
8AA8
4AA8
33A8
12B8
28A0
4920
8220
ENDCHAR
STARTCHAR uni36BA
ENCODING 14010
BBX 13 14 0 -2
BITMAP
2000
27F0
2110
F920
4978
4A08
4AE8
9430
5040
23F8
5040
4840
8040
01C0
ENDCHAR
STARTCHAR uni36BB
ENCODING 14011
BBX 13 13 0 -2
BITMAP
7FF0
4210
7FF0
4210
7FF0
0000
0400
FFF8
0840
1880
0700
18E0
E010
ENDCHAR
STARTCHAR uni36BC
ENCODING 14012
BBX 13 14 0 -2
BITMAP
2000
23F8
2248
FA48
4A48
4A48
4BF8
8A48
4A48
3248
1248
2A48
4BF8
8208
ENDCHAR
STARTCHAR uni36BD
ENCODING 14013
BBX 13 13 0 -2
BITMAP
7BF0
1080
1100
13F0
1C10
E010
0060
0400
FFF8
0840
1C80
0780
7870
ENDCHAR
STARTCHAR uni36BE
ENCODING 14014
BBX 13 14 0 -2
BITMAP
2000
23F0
2210
FA10
4A10
4A10
4BF0
8920
4920
3120
1120
2A28
4A28
8418
ENDCHAR
STARTCHAR uni36BF
ENCODING 14015
BBX 13 14 0 -2
BITMAP
2100
2100
23F0
FA10
4C10
4BD0
4A50
8A50
4BD0
3210
1260
2A08
4A08
81F8
ENDCHAR
STARTCHAR uni36C0
ENCODING 14016
BBX 13 14 0 -2
BITMAP
2100
2100
21F0
FA10
4C20
4BF8
4808
8808
49F8
3008
1008
2808
4BF8
8008
ENDCHAR
STARTCHAR uni36C1
ENCODING 14017
BBX 13 14 0 -2
BITMAP
2000
21F0
2040
F840
4A48
4950
4840
8BF8
4840
3040
1040
2840
4840
8040
ENDCHAR
STARTCHAR uni36C2
ENCODING 14018
BBX 13 14 0 -2
BITMAP
2000
2070
2780
F400
55F0
5550
5550
5550
95F0
5500
2500
5508
5908
90F8
ENDCHAR
STARTCHAR uni36C3
ENCODING 14019
BBX 13 14 0 -2
BITMAP
1000
7DF0
1090
7C90
1090
FD30
1200
0400
FFF8
0840
1880
0700
18E0
E010
ENDCHAR
STARTCHAR uni36C4
ENCODING 14020
BBX 13 14 0 -2
BITMAP
2080
2040
2000
FBF8
4880
4880
4950
8960
4B40
3520
1120
2950
4988
8100
ENDCHAR
STARTCHAR uni36C5
ENCODING 14021
BBX 13 14 0 -2
BITMAP
2000
23F0
2120
F920
49E0
4920
4920
89E0
4920
3138
13E0
2820
4820
8020
ENDCHAR
STARTCHAR uni36C6
ENCODING 14022
BBX 13 14 0 -2
BITMAP
2000
27F0
2120
F178
5108
5208
54B0
5080
97F8
51C0
22A0
5490
5888
8080
ENDCHAR
STARTCHAR uni36C7
ENCODING 14023
BBX 13 14 0 -2
BITMAP
2080
2040
23F8
FA00
4A40
4A40
4A40
93F0
5240
2240
5240
4A40
8440
0BF8
ENDCHAR
STARTCHAR uni36C8
ENCODING 14024
BBX 13 14 0 -2
BITMAP
2080
2090
23D0
F0A0
57F8
5080
5100
53F0
9480
5900
21F0
5010
5010
8060
ENDCHAR
STARTCHAR uni36C9
ENCODING 14025
BBX 13 14 0 -2
BITMAP
2000
2FF8
2140
F140
57F0
5550
5550
5550
9550
5630
2410
5410
57F0
8410
ENDCHAR
STARTCHAR uni36CA
ENCODING 14026
BBX 13 14 0 -2
BITMAP
2000
23E0
2220
F220
5220
5498
5880
57F8
9080
51C0
22A0
5490
4888
8080
ENDCHAR
STARTCHAR uni36CB
ENCODING 14027
BBX 13 14 0 -2
BITMAP
2080
2080
2140
F140
5220
5490
5888
5080
92D0
54A8
28A8
5080
5080
8380
ENDCHAR
STARTCHAR uni36CC
ENCODING 14028
BBX 13 14 0 -2
BITMAP
2080
2080
2120
F210
57F0
5090
5280
53F0
9480
5080
27F8
5080
5080
8080
ENDCHAR
STARTCHAR uni36CD
ENCODING 14029
BBX 13 14 0 -2
BITMAP
2040
2040
23F8
F840
4950
4950
4950
8AE8
4840
30A0
10A0
2910
4910
8208
ENDCHAR
STARTCHAR uni36CE
ENCODING 14030
BBX 13 14 0 -2
BITMAP
2000
21F0
2110
F910
4910
49F0
4800
8800
4BF8
3208
1208
2A08
4BF8
8208
ENDCHAR
STARTCHAR uni36CF
ENCODING 14031
BBX 13 14 0 -2
BITMAP
2050
2048
2040
FBF8
4840
4A48
4950
9060
50E0
2150
5250
4C48
8040
01C0
ENDCHAR
STARTCHAR uni36D0
ENCODING 14032
BBX 13 14 0 -2
BITMAP
2000
2FF8
2080
F7F0
5490
5490
57F0
5490
9490
57F0
2280
5100
52C0
8C38
ENDCHAR
STARTCHAR uni36D1
ENCODING 14033
BBX 13 14 0 -2
BITMAP
1000
1DF0
5090
7CA0
8840
50A0
2318
C400
FFF8
0840
1880
0700
18E0
E010
ENDCHAR
STARTCHAR uni36D2
ENCODING 14034
BBX 13 14 0 -2
BITMAP
2000
27F0
2000
F000
57F0
5410
5410
5410
97F0
5000
2410
5220
5000
8FF8
ENDCHAR
STARTCHAR uni36D3
ENCODING 14035
BBX 13 14 0 -2
BITMAP
2010
2320
20C0
F120
5290
57F8
5100
5240
97F8
5A48
2248
5248
5258
8040
ENDCHAR
STARTCHAR uni36D4
ENCODING 14036
BBX 13 14 0 -2
BITMAP
2100
21E0
2220
F540
5080
5360
5C98
53E0
9080
53E0
2080
57F0
5080
8080
ENDCHAR
STARTCHAR uni36D5
ENCODING 14037
BBX 13 14 0 -2
BITMAP
2000
21F0
2110
F910
49F0
4800
4BF8
8A48
4A48
33F8
1200
2A08
4A08
81F8
ENDCHAR
STARTCHAR uni36D6
ENCODING 14038
BBX 13 14 0 -2
BITMAP
2080
2100
2220
F7F0
5010
5220
5410
5908
91E0
5220
2540
5080
5360
8C18
ENDCHAR
STARTCHAR uni36D7
ENCODING 14039
BBX 13 14 0 -2
BITMAP
2080
2080
22A0
F2A0
52A0
55D0
5888
5080
9080
57F0
2080
5080
5080
8FF8
ENDCHAR
STARTCHAR uni36D8
ENCODING 14040
BBX 13 14 0 -2
BITMAP
2040
2040
23F8
F840
4BF8
4A08
49F0
8820
4840
33F8
1040
2840
4840
81C0
ENDCHAR
STARTCHAR uni36D9
ENCODING 14041
BBX 13 14 0 -2
BITMAP
2100
2080
27F0
F000
5220
5140
5FF8
5080
9080
57F0
2080
5080
5080
8080
ENDCHAR
STARTCHAR uni36DA
ENCODING 14042
BBX 13 14 0 -2
BITMAP
2000
23F8
2090
F860
4BF8
4A48
4A48
8BF8
4A48
3248
13F8
2A48
4A48
8218
ENDCHAR
STARTCHAR uni36DB
ENCODING 14043
BBX 13 14 0 -2
BITMAP
2040
2080
23F0
F210
53F0
5210
53F0
5218
97F0
5030
2050
5190
5610
8070
ENDCHAR
STARTCHAR uni36DC
ENCODING 14044
BBX 13 14 0 -2
BITMAP
1080
24F8
6510
A6A0
2440
20A0
2318
0400
FFF8
0840
1880
0700
18E0
E010
ENDCHAR
STARTCHAR uni36DD
ENCODING 14045
BBX 12 14 0 -2
BITMAP
2000
23F0
2210
FA10
4BF0
4A10
4A10
8BF0
4A10
3210
13F0
2800
4920
8210
ENDCHAR
STARTCHAR uni36DE
ENCODING 14046
BBX 13 14 0 -2
BITMAP
2000
2FF8
2080
F7F0
5080
5080
5FF8
5000
9220
5FF8
2220
5220
5420
8820
ENDCHAR
STARTCHAR uni36DF
ENCODING 14047
BBX 13 14 0 -2
BITMAP
2200
2200
23E0
F420
5840
57F0
5490
5490
9490
5FF8
2140
5220
5410
8808
ENDCHAR
STARTCHAR uni36E0
ENCODING 14048
BBX 13 14 0 -2
BITMAP
2400
22F8
2008
F408
55E8
5528
5528
55E8
9528
5528
25E8
5408
5408
8438
ENDCHAR
STARTCHAR uni36E1
ENCODING 14049
BBX 13 14 0 -2
BITMAP
2080
2040
23F8
FA08
4800
49F0
4800
8800
4BF8
30A0
10A0
2920
4928
8218
ENDCHAR
STARTCHAR uni36E2
ENCODING 14050
BBX 13 14 0 -2
BITMAP
2060
2380
2080
F7F0
51C0
52A0
5498
5000
97E0
5120
2170
5210
5210
8460
ENDCHAR
STARTCHAR uni36E3
ENCODING 14051
BBX 12 14 0 -2
BITMAP
23E0
2220
2220
F3E0
5000
57F0
5410
5490
9490
5490
2490
5140
5220
8C10
ENDCHAR
STARTCHAR uni36E4
ENCODING 14052
BBX 13 14 0 -2
BITMAP
4000
4FF8
4000
E000
AF78
A948
A948
AD68
AB58
4948
4948
A948
A948
0B58
ENDCHAR
STARTCHAR uni36E5
ENCODING 14053
BBX 13 14 0 -2
BITMAP
2080
2088
26D0
F2A0
52A0
5490
5988
5000
97F0
5410
27F0
5410
57F0
8410
ENDCHAR
STARTCHAR uni36E6
ENCODING 14054
BBX 13 14 0 -2
BITMAP
4220
4220
4220
EF78
A220
A660
A770
AAB0
AAA8
5320
4220
A220
A220
0220
ENDCHAR
STARTCHAR uni36E7
ENCODING 14055
BBX 13 14 0 -2
BITMAP
2080
2490
2490
F7F0
5000
5000
5FF8
5100
9200
57F0
2A10
5210
53F0
8210
ENDCHAR
STARTCHAR uni36E8
ENCODING 14056
BBX 13 14 0 -2
BITMAP
2220
2140
27F8
F080
5080
57F0
5080
5080
97F8
5140
2140
5240
5448
8838
ENDCHAR
STARTCHAR uni36E9
ENCODING 14057
BBX 13 14 0 -2
BITMAP
2100
2080
2FF8
F200
5410
5FF8
5008
57F0
9410
57F0
2410
57F0
5410
8470
ENDCHAR
STARTCHAR uni36EA
ENCODING 14058
BBX 13 14 0 -2
BITMAP
2080
2080
27F8
F220
5490
5888
57F0
5490
97F0
5490
27F0
5488
5088
8078
ENDCHAR
STARTCHAR uni36EB
ENCODING 14059
BBX 13 14 0 -2
BITMAP
2000
23F0
2210
F3F0
5210
53F0
5100
53F8
94A8
5928
2248
5488
5108
8030
ENDCHAR
STARTCHAR uni36EC
ENCODING 14060
BBX 13 14 0 -2
BITMAP
2080
2080
27F0
F080
5080
5FF8
5220
5490
9888
53E0
2080
5080
5080
8FF8
ENDCHAR
STARTCHAR uni36ED
ENCODING 14061
BBX 13 14 0 -2
BITMAP
2120
2120
23F0
F920
4920
4FF8
4800
8BF0
4A10
3210
13F0
2A10
4A10
83F0
ENDCHAR
STARTCHAR uni36EE
ENCODING 14062
BBX 13 14 0 -2
BITMAP
2080
2040
23F8
FA48
4950
48A0
4910
8A08
49F0
3110
10A0
2840
48A0
8318
ENDCHAR
STARTCHAR uni36EF
ENCODING 14063
BBX 13 14 0 -2
BITMAP
4420
4420
4720
E978
B228
AFA8
AAA8
AAA8
AFA8
4248
4598
A500
A908
10F8
ENDCHAR
STARTCHAR uni36F0
ENCODING 14064
BBX 13 14 0 -2
BITMAP
27F0
2410
27F0
F480
57F8
5440
5628
5418
93F0
5210
23F0
5210
53F0
8210
ENDCHAR
STARTCHAR uni36F1
ENCODING 14065
BBX 13 14 0 -2
BITMAP
27F0
2490
2490
F7F0
5490
5490
57F0
5000
9FF8
5510
24A0
5440
5620
8418
ENDCHAR
STARTCHAR uni36F2
ENCODING 14066
BBX 13 14 0 -2
BITMAP
2000
23F8
2040
F880
4BF8
4A08
4BF8
8A08
4BF8
3208
13F8
2800
4910
8208
ENDCHAR
STARTCHAR uni36F3
ENCODING 14067
BBX 13 14 0 -2
BITMAP
0200
7FF0
1040
0880
FFF8
8208
3FE0
2220
22E0
0A00
FFF8
1880
0700
78E0
ENDCHAR
STARTCHAR uni36F4
ENCODING 14068
BBX 13 14 0 -2
BITMAP
2248
2248
2490
FA48
4A48
4880
4BF8
9208
52A8
2248
52A8
4A08
83F8
0208
ENDCHAR
STARTCHAR uni36F5
ENCODING 14069
BBX 13 14 0 -2
BITMAP
2070
2780
2110
F490
5220
5080
57F0
5490
97F0
5490
2FF8
5410
4C10
8470
ENDCHAR
STARTCHAR uni36F6
ENCODING 14070
BBX 13 14 0 -2
BITMAP
2080
2490
2490
F7F0
5100
5100
57F8
5140
9248
5350
2240
54A0
4910
8208
ENDCHAR
STARTCHAR uni36F7
ENCODING 14071
BBX 13 14 0 -2
BITMAP
0CA0
7090
13F8
FCA0
38A0
54A0
9128
1218
0400
FFF8
0840
1C80
0780
7870
ENDCHAR
STARTCHAR uni36F8
ENCODING 14072
BBX 13 14 0 -2
BITMAP
2040
2040
23F8
F840
49F0
4800
49F0
8910
4910
31F0
1000
2910
48A0
83F8
ENDCHAR
STARTCHAR uni36F9
ENCODING 14073
BBX 13 14 0 -2
BITMAP
2100
21F8
2120
FA20
4AF8
4EA8
4AF8
92A8
52F8
2220
52A0
4A40
82A0
0318
ENDCHAR
STARTCHAR uni36FA
ENCODING 14074
BBX 13 14 0 -2
BITMAP
2080
2040
23F0
F800
4A10
4920
4BF8
9000
53F0
2210
53F0
4A10
83F0
0210
ENDCHAR
STARTCHAR uni36FB
ENCODING 14075
BBX 13 14 0 -2
BITMAP
2040
23F8
20A0
F910
4A48
4840
49F0
8840
4BF8
3000
1040
29F0
4840
83F8
ENDCHAR
STARTCHAR uni36FC
ENCODING 14076
BBX 13 14 0 -2
BITMAP
2070
2780
2080
F080
57F8
5080
52B0
5490
9490
56B0
2490
5490
57F0
8410
ENDCHAR
STARTCHAR uni36FD
ENCODING 14077
BBX 13 14 0 -2
BITMAP
2100
2080
27F0
F410
5080
52A0
51C0
5080
97F0
51C0
22A0
5490
4888
8080
ENDCHAR
STARTCHAR uni36FE
ENCODING 14078
BBX 13 14 0 -2
BITMAP
4028
4020
4FF8
E820
A820
ABA0
A828
ABA8
AAB0
4AB0
4BA8
A868
A898
1108
ENDCHAR
STARTCHAR uni36FF
ENCODING 14079
BBX 13 14 0 -2
BITMAP
22A0
22A0
2FF8
F2A0
5000
5FF8
5888
5080
97F0
5490
2490
5490
54B0
8080
ENDCHAR
STARTCHAR uni3700
ENCODING 14080
BBX 13 14 0 -2
BITMAP
2200
2278
2248
F748
5248
5278
5748
56C8
9A78
5248
2248
5248
5278
8248
ENDCHAR
STARTCHAR uni3701
ENCODING 14081
BBX 13 14 0 -2
BITMAP
2080
2080
2FF8
F1C0
52A0
5490
5888
57F0
9410
57F0
2410
57F0
5000
8FF8
ENDCHAR
STARTCHAR uni3702
ENCODING 14082
BBX 13 14 0 -2
BITMAP
1020
7C20
13F8
FD20
10A0
7CA0
1020
1C20
E0E0
0800
FFF8
1880
0700
78E0
ENDCHAR
STARTCHAR uni3703
ENCODING 14083
BBX 13 14 0 -2
BITMAP
2280
2240
23F8
F400
55F0
5C00
55F0
5400
95F0
5510
2510
5510
55F0
8510
ENDCHAR
STARTCHAR uni3704
ENCODING 14084
BBX 13 14 0 -2
BITMAP
2000
27F0
2410
F4D0
5710
5510
57D0
5550
97D0
5510
2550
57D0
5458
8808
ENDCHAR
STARTCHAR uni3705
ENCODING 14085
BBX 13 14 0 -2
BITMAP
2100
2080
2FF8
F220
57C0
5110
57F8
5008
97F0
5490
27F0
5490
57F0
8410
ENDCHAR
STARTCHAR uni3706
ENCODING 14086
BBX 13 14 0 -2
BITMAP
2420
2220
22A8
F070
5020
56F8
5220
5270
92A8
5328
2220
5220
5300
84F8
ENDCHAR
STARTCHAR uni3707
ENCODING 14087
BBX 13 14 0 -2
BITMAP
2080
27F0
2080
F7F8
5000
5080
57F0
5080
9FF8
5080
2050
5548
5528
88E0
ENDCHAR
STARTCHAR uni3708
ENCODING 14088
BBX 13 14 0 -2
BITMAP
0080
79F0
2A90
1060
FD98
3440
51F0
9090
3130
0800
FFF8
1880
0700
78E0
ENDCHAR
STARTCHAR uni3709
ENCODING 14089
BBX 13 14 0 -2
BITMAP
2490
2920
2490
F000
53E0
5220
53E0
5000
97F0
5490
27F0
5400
5408
83F8
ENDCHAR
STARTCHAR uni370A
ENCODING 14090
BBX 13 14 0 -2
BITMAP
2000
27F0
2410
F7F0
5520
57F0
5520
5520
97F8
5540
2550
5520
55A0
8910
ENDCHAR
STARTCHAR uni370B
ENCODING 14091
BBX 13 14 0 -2
BITMAP
2410
2220
2000
F7F8
5000
5220
5410
5808
97F0
5550
2550
5550
5550
8FF8
ENDCHAR
STARTCHAR uni370C
ENCODING 14092
BBX 13 14 0 -2
BITMAP
1000
FEF0
1090
7C90
0090
FF08
8200
7DF0
1090
FC90
24A0
6840
18A0
6518
ENDCHAR
STARTCHAR uni370D
ENCODING 14093
BBX 13 14 0 -2
BITMAP
2080
2040
27F8
F440
55F0
5450
57F8
5450
95F0
5440
25F0
5510
5510
89F0
ENDCHAR
STARTCHAR uni370E
ENCODING 14094
BBX 13 14 0 -2
BITMAP
2038
23C0
2288
F950
4880
4910
4BE0
8890
4BF8
3040
13F8
28A0
4910
8208
ENDCHAR
STARTCHAR uni370F
ENCODING 14095
BBX 13 14 0 -2
BITMAP
2000
23F0
2210
F3F0
5000
57F8
5408
57F8
9408
57F8
2408
57F8
5210
8408
ENDCHAR
STARTCHAR uni3710
ENCODING 14096
BBX 13 14 0 -2
BITMAP
2080
2490
2490
F7F0
5000
57F0
5000
57F0
9410
5410
27F0
5220
5140
8FF8
ENDCHAR
STARTCHAR uni3711
ENCODING 14097
BBX 13 14 0 -2
BITMAP
0090
4FF8
2080
87F0
4490
17F0
2490
47F0
4490
0800
FFF8
1880
0700
78E0
ENDCHAR
STARTCHAR uni3712
ENCODING 14098
BBX 13 14 0 -2
BITMAP
2100
2670
2410
F770
5410
57F0
5000
5220
9220
5FF8
2220
5220
5420
8820
ENDCHAR
STARTCHAR uni3713
ENCODING 14099
BBX 13 14 0 -2
BITMAP
2220
2220
2FF8
F220
5080
5140
5220
55D0
9808
57F0
2410
5410
57F0
8410
ENDCHAR
STARTCHAR uni3714
ENCODING 14100
BBX 13 14 0 -2
BITMAP
2080
27F0
2220
F140
5FF8
5000
57F0
5410
9410
57F0
2140
5140
5248
8C38
ENDCHAR
STARTCHAR uni3715
ENCODING 14101
BBX 13 14 0 -2
BITMAP
2840
2440
25F8
F040
51F0
5D50
55F0
5550
95F0
5440
25F8
5440
5440
8BF8
ENDCHAR
STARTCHAR uni3716
ENCODING 14102
BBX 13 14 0 -2
BITMAP
2120
27F8
2120
F7F8
5528
57F8
5528
57F8
9000
53F0
2210
53F0
5210
83F0
ENDCHAR
STARTCHAR uni3717
ENCODING 14103
BBX 13 14 0 -2
BITMAP
2080
2110
23F8
F910
4AA8
4BF8
48A0
8910
4A48
31A0
1040
2990
4860
8380
ENDCHAR
STARTCHAR uni3718
ENCODING 14104
BBX 13 14 0 -2
BITMAP
20F8
2080
27F8
F488
54E0
5788
5478
55F0
9510
55F0
2510
55F0
4910
93F8
ENDCHAR
STARTCHAR uni3719
ENCODING 14105
BBX 13 14 0 -2
BITMAP
2080
27F8
24A0
F4A0
57F8
54A8
54A8
57F8
9520
55A8
2530
5520
55A8
8918
ENDCHAR
STARTCHAR uni371A
ENCODING 14106
BBX 13 14 0 -2
BITMAP
2080
2040
27F8
F408
5100
51F8
5220
5240
96F8
5A88
22F8
5288
4AF8
8288
ENDCHAR
STARTCHAR uni371B
ENCODING 14107
BBX 13 14 0 -2
BITMAP
2110
2110
27D0
F118
57E8
5540
57D0
5550
97D0
5110
27D0
5128
5128
8148
ENDCHAR
STARTCHAR uni371C
ENCODING 14108
BBX 13 14 0 -2
BITMAP
2240
2240
2740
F278
5790
5250
5F50
5450
9750
5520
2520
5950
4B50
9088
ENDCHAR
STARTCHAR uni371D
ENCODING 14109
BBX 13 14 0 -2
BITMAP
2040
20A0
2150
FAE8
4820
4BF8
48A0
8BF8
4AA8
3318
1208
2BF8
4A08
83F8
ENDCHAR
STARTCHAR uni371E
ENCODING 14110
BBX 13 14 0 -2
BITMAP
1030
FDC0
1100
7D00
55F8
7D20
5520
FE20
1420
0800
FFF8
1880
0700
78E0
ENDCHAR
STARTCHAR uni371F
ENCODING 14111
BBX 13 14 0 -2
BITMAP
2020
2720
2140
F278
5F90
5550
5750
5550
9750
5520
25A0
5F50
5150
8188
ENDCHAR
STARTCHAR uni3720
ENCODING 14112
BBX 13 14 0 -2
BITMAP
2080
2490
2490
F7F0
5280
5440
5FF8
5480
97F0
5480
27F0
5480
57F8
8400
ENDCHAR
STARTCHAR uni3721
ENCODING 14113
BBX 13 14 0 -2
BITMAP
2250
2250
2450
F8A8
52A8
5300
5420
5C20
94A0
54B8
24A0
54A0
5560
8638
ENDCHAR
STARTCHAR uni3722
ENCODING 14114
BBX 13 14 0 -2
BITMAP
2080
23F0
2290
F7F8
5290
53F0
52A0
53E0
9080
57F8
2120
5240
51C0
8230
ENDCHAR
STARTCHAR uni3723
ENCODING 14115
BBX 13 14 0 -2
BITMAP
2420
2430
2728
F520
55F8
5B20
5520
5250
9490
5908
2000
5550
54A8
88A8
ENDCHAR
STARTCHAR uni3724
ENCODING 14116
BBX 13 14 0 -2
BITMAP
27F8
2140
27F8
F548
57F8
5000
53F0
5210
93F0
5210
23F0
5080
57F8
8080
ENDCHAR
STARTCHAR uni3725
ENCODING 14117
BBX 13 14 0 -2
BITMAP
27F8
2528
2528
F7F8
5000
53F0
5210
53F0
9210
53F0
2210
53F0
5120
8210
ENDCHAR
STARTCHAR uni3726
ENCODING 14118
BBX 13 14 0 -2
BITMAP
27F0
2010
23F0
F010
57F0
5000
5778
5248
9F78
5020
27F8
5220
5120
8060
ENDCHAR
STARTCHAR uni3727
ENCODING 14119
BBX 13 14 0 -2
BITMAP
2000
27F8
2400
F450
5690
5418
57E8
5500
9550
5550
27D0
5510
4A28
9448
ENDCHAR
STARTCHAR uni3728
ENCODING 14120
BBX 13 14 0 -2
BITMAP
2000
27F8
2408
F7F8
5440
5648
5550
5608
9540
55F0
2640
59F8
4840
9040
ENDCHAR
STARTCHAR uni3729
ENCODING 14121
BBX 13 14 0 -2
BITMAP
2100
27F0
2490
F6B0
5490
57F0
55D0
56B0
9410
5080
27F8
5140
5220
8410
ENDCHAR
STARTCHAR uni372A
ENCODING 14122
BBX 13 14 0 -2
BITMAP
1018
FEE0
2880
FE80
10F8
FE90
5490
9290
3110
0800
FFF8
1880
0700
78E0
ENDCHAR
STARTCHAR uni372B
ENCODING 14123
BBX 13 14 0 -2
BITMAP
4910
4D50
5550
E7F8
A828
ABC8
B828
ABA8
AAA8
4A90
4AD0
AAA8
AC48
0880
ENDCHAR
STARTCHAR uni372C
ENCODING 14124
BBX 13 14 0 -2
BITMAP
2100
23F0
2420
F7F8
5550
56E8
5400
55F0
9400
55F0
2400
55F0
5510
89F0
ENDCHAR
STARTCHAR uni372D
ENCODING 14125
BBX 13 14 0 -2
BITMAP
2080
2490
2FF8
F808
53E0
5220
53E0
5000
97F0
5490
27F0
5490
57F0
8410
ENDCHAR
STARTCHAR uni372E
ENCODING 14126
BBX 13 14 0 -2
BITMAP
2020
27A0
2520
F7B8
54C0
57A0
5510
5790
9000
57F0
2550
5550
5550
8FF8
ENDCHAR
STARTCHAR uni372F
ENCODING 14127
BBX 13 14 0 -2
BITMAP
4FB8
4928
4928
EBA8
AAB8
AAA0
ABA0
A928
A928
4F98
4000
AA90
A948
1148
ENDCHAR
STARTCHAR uni3730
ENCODING 14128
BBX 13 14 0 -2
BITMAP
4488
45C8
4950
ED58
A5C8
A950
AD58
A5C8
A080
4FF8
41C0
A2A0
AC98
0080
ENDCHAR
STARTCHAR uni3731
ENCODING 14129
BBX 13 14 0 -2
BITMAP
2110
2660
2440
F7F8
5550
5990
57F0
5410
97F0
5410
27F0
5410
57F0
8220
ENDCHAR
STARTCHAR uni3732
ENCODING 14130
BBX 13 14 0 -2
BITMAP
2080
2FF8
2400
F7F0
5000
57F0
5410
57F0
9200
5F70
2550
5570
5250
8598
ENDCHAR
STARTCHAR uni3733
ENCODING 14131
BBX 13 14 0 -2
BITMAP
2080
2FF8
2000
F7F0
5550
57F0
5490
52A0
9490
5148
2350
5520
4990
8108
ENDCHAR
STARTCHAR uni3734
ENCODING 14132
BBX 13 14 0 -2
BITMAP
2220
2FF8
2220
F7F0
5550
57F0
5000
5FF8
9A28
53E0
2220
53E0
5220
83E0
ENDCHAR
STARTCHAR uni3735
ENCODING 14133
BBX 13 14 0 -2
BITMAP
2080
2FF8
2000
F7F0
5480
57F0
5480
57F0
9480
57F8
2AA8
5158
5620
8B18
ENDCHAR
STARTCHAR uni3736
ENCODING 14134
BBX 13 14 0 -2
BITMAP
2200
23E0
2440
FFF0
5410
57F0
5200
53E0
9420
5FF0
2490
57F0
5148
8E38
ENDCHAR
STARTCHAR uni3737
ENCODING 14135
BBX 13 14 0 -2
BITMAP
EFF8
2490
2FF8
EDD8
8AA8
EDD8
2AA8
2DD8
C898
0800
FFF8
1880
0700
78E0
ENDCHAR
STARTCHAR uni3738
ENCODING 14136
BBX 13 14 0 -2
BITMAP
0880
FFF8
28A0
7CF8
4450
7DF8
4020
7CF8
4420
7C20
FFF8
1880
0700
78E0
ENDCHAR
STARTCHAR uni3739
ENCODING 14137
BBX 13 14 0 -2
BITMAP
2770
2550
2770
F550
5770
5550
5770
5280
97F0
5C80
27E0
5480
57F8
8400
ENDCHAR
STARTCHAR uni373A
ENCODING 14138
BBX 13 14 0 -2
BITMAP
2A50
2F78
2290
FF78
5630
5B58
57F0
5410
97F0
5410
27F0
5410
57F0
8220
ENDCHAR
STARTCHAR uni373B
ENCODING 14139
BBX 13 14 0 -2
BITMAP
4488
47C8
4810
EDD8
A408
A9D0
AC18
A1C0
A550
45D0
4880
A248
AA10
11F0
ENDCHAR
STARTCHAR uni373C
ENCODING 14140
BBX 13 14 0 -2
BITMAP
43E0
42A0
4FF8
EAA8
AFF8
AAA8
AFF8
A000
AFF8
4AA8
4260
A320
A2A0
0FF8
ENDCHAR
STARTCHAR uni373D
ENCODING 14141
BBX 13 14 0 -2
BITMAP
1110
2220
4440
2220
1110
3FC0
0080
0100
0200
FFF8
0200
0200
0200
0E00
ENDCHAR
STARTCHAR uni373E
ENCODING 14142
BBX 13 14 0 -2
BITMAP
0080
F080
1140
2120
2210
2408
2920
3120
E120
2120
2120
2220
2220
E420
ENDCHAR
STARTCHAR uni373F
ENCODING 14143
BBX 13 13 0 -2
BITMAP
F3F0
1010
20A0
2040
27F8
2848
3050
E040
2040
2040
2040
2040
E1C0
ENDCHAR
STARTCHAR uni3740
ENCODING 14144
BBX 13 13 0 -2
BITMAP
3EF8
2208
3210
2A20
2220
FF20
42F8
5220
4A20
7F20
0220
0220
0CE0
ENDCHAR
STARTCHAR uni3741
ENCODING 14145
BBX 13 14 0 -2
BITMAP
1000
3FE0
4020
BF20
2120
3F20
2120
3F60
0000
3FC0
0100
FFF8
0200
0E00
ENDCHAR
STARTCHAR uni3742
ENCODING 14146
BBX 13 14 0 -2
BITMAP
0218
F260
1240
2740
2240
2278
2A50
3350
E650
2250
2250
2250
2250
E690
ENDCHAR
STARTCHAR uni3743
ENCODING 14147
BBX 13 14 0 -2
BITMAP
0100
F100
13E0
2420
2840
27F0
2C90
3490
E7F0
2140
2140
2240
2448
E838
ENDCHAR
STARTCHAR uni3744
ENCODING 14148
BBX 13 14 0 -2
BITMAP
1040
FC40
0040
7DF8
4440
7D50
0150
7D50
0950
1DF0
F040
1048
1048
7038
ENDCHAR
STARTCHAR uni3745
ENCODING 14149
BBX 13 14 0 -2
BITMAP
1000
FEF0
1090
7C90
0090
FF08
8200
7DF0
0090
7C90
08A0
FE40
10A0
7118
ENDCHAR
STARTCHAR uni3746
ENCODING 14150
BBX 13 14 0 -2
BITMAP
0080
F7F8
1080
27F0
2000
27F0
2C10
37F0
E220
2FF8
2000
27F0
2410
E7F0
ENDCHAR
STARTCHAR uni3747
ENCODING 14151
BBX 13 14 0 -2
BITMAP
1040
FDF8
0000
7DF0
4510
7DF0
0000
7DF0
0820
1C40
F1F8
1040
1040
71C0
ENDCHAR
STARTCHAR uni3748
ENCODING 14152
BBX 13 14 0 -2
BITMAP
4220
9748
E070
5728
F078
0700
5550
AFA8
0000
7CF8
0810
FDF8
1020
3060
ENDCHAR
STARTCHAR uni3749
ENCODING 14153
BBX 13 13 0 -1
BITMAP
0400
0200
0000
FFF8
8008
8008
0000
0000
0000
0000
0000
0000
FFF8
ENDCHAR
STARTCHAR uni374A
ENCODING 14154
BBX 13 14 0 -2
BITMAP
0400
0200
FFF8
8008
0000
7FE0
1020
1040
0880
0500
0200
0500
18C0
E038
ENDCHAR
STARTCHAR uni374B
ENCODING 14155
BBX 13 14 0 -2
BITMAP
0400
0200
FFF8
8008
8008
3FC0
0080
0100
0200
0200
0200
0200
0200
0E00
ENDCHAR
STARTCHAR uni374C
ENCODING 14156
BBX 13 14 0 -2
BITMAP
0400
0200
FFF8
8408
8408
07C0
0840
1080
2080
0100
0280
0440
1820
E018
ENDCHAR
STARTCHAR uni374D
ENCODING 14157
BBX 13 14 0 -2
BITMAP
0400
0200
FFF8
9008
1FE0
1000
2000
3FF0
0010
0010
FFD0
0010
0010
0060
ENDCHAR
STARTCHAR uni374E
ENCODING 14158
BBX 13 14 0 -2
BITMAP
0400
0200
FFF8
8008
0400
0200
7FF0
0060
0180
0600
1800
2000
5000
8FF8
ENDCHAR
STARTCHAR uni374F
ENCODING 14159
BBX 13 14 0 -2
BITMAP
0400
0200
FFF8
8008
8208
0500
0880
3060
C018
1040
1040
1040
2040
4040
ENDCHAR
STARTCHAR uni3750
ENCODING 14160
BBX 13 14 0 -2
BITMAP
0400
0200
FFF8
8008
8008
0880
0880
1240
2220
C418
0880
1040
3FE0
0020
ENDCHAR
STARTCHAR uni3751
ENCODING 14161
BBX 13 14 0 -2
BITMAP
0400
0200
FFF8
8408
0200
FFF8
0800
0800
0FE0
1020
1020
2020
4020
80C0
ENDCHAR
STARTCHAR uni3752
ENCODING 14162
BBX 13 14 0 -2
BITMAP
0400
0200
FFF8
8008
0200
0200
FFF8
0200
0200
3FE0
2020
2020
3FE0
2020
ENDCHAR
STARTCHAR uni3753
ENCODING 14163
BBX 13 14 0 -2
BITMAP
0400
0200
FFF8
8208
8508
0880
3060
CF98
0000
3FE0
2020
2020
3FE0
2020
ENDCHAR
STARTCHAR uni3754
ENCODING 14164
BBX 13 14 0 -2
BITMAP
0400
0200
FFF8
8008
0400
0200
FFF8
1060
6010
1040
0880
0700
18C0
E038
ENDCHAR
STARTCHAR uni3755
ENCODING 14165
BBX 13 14 0 -2
BITMAP
0400
0200
FFF8
8408
1220
5210
5050
8FC0
0000
3FE0
1040
0880
0700
78F0
ENDCHAR
STARTCHAR uni3756
ENCODING 14166
BBX 13 14 0 -2
BITMAP
0400
0200
FFF8
8408
0FC0
3080
0B00
0C80
71F0
0620
1A40
0180
0600
7800
ENDCHAR
STARTCHAR uni3757
ENCODING 14167
BBX 13 14 0 -2
BITMAP
0400
0200
FFF8
8408
0200
3FE0
2020
3FE0
2020
3FE0
2410
2320
28C0
3038
ENDCHAR
STARTCHAR uni3758
ENCODING 14168
BBX 13 14 0 -2
BITMAP
0400
0200
FFF8
8008
0200
FFF8
0000
7FF0
0000
7FF0
0000
7FF0
4010
7FF0
ENDCHAR
STARTCHAR uni3759
ENCODING 14169
BBX 13 14 0 -2
BITMAP
0400
0200
FFF8
8008
7FF0
0200
3FE0
0200
7FF0
0000
FFF8
1040
2020
4010
ENDCHAR
STARTCHAR uni375A
ENCODING 14170
BBX 13 14 0 -2
BITMAP
0400
0200
FFF8
8008
0070
7BC0
1040
2070
7A40
0A40
5240
23F8
5000
8FF8
ENDCHAR
STARTCHAR uni375B
ENCODING 14171
BBX 13 14 0 -2
BITMAP
0400
0200
FFF8
9008
27F0
6080
A080
27F0
2490
2550
2630
2410
2410
27F0
ENDCHAR
STARTCHAR uni375C
ENCODING 14172
BBX 13 14 0 -2
BITMAP
0400
0200
FFF8
8008
0880
7FF0
0880
FFF8
0000
3FE0
2020
3FE0
2020
3FE0
ENDCHAR
STARTCHAR uni375D
ENCODING 14173
BBX 13 14 0 -2
BITMAP
0400
0200
FFF8
8008
1040
1040
FDF8
1040
3060
38E0
54D0
5150
9248
1040
ENDCHAR
STARTCHAR uni375E
ENCODING 14174
BBX 13 14 0 -2
BITMAP
0400
0200
FFF8
8008
7FF0
0880
0880
78F0
4010
4010
78F0
0880
0880
FFF8
ENDCHAR
STARTCHAR uni375F
ENCODING 14175
BBX 13 14 0 -2
BITMAP
0200
FFF8
8008
7FF0
0000
3FE0
2020
3FE0
2020
3FE0
2020
3FE0
0888
F078
ENDCHAR
STARTCHAR uni3760
ENCODING 14176
BBX 13 14 0 -2
BITMAP
0200
FFF8
8008
3FE0
2020
3FE0
2020
3FE0
0400
0200
FFF8
1040
2020
4010
ENDCHAR
STARTCHAR uni3761
ENCODING 14177
BBX 13 14 0 -2
BITMAP
0400
0200
FFF8
8008
7E00
25F0
3C90
2490
3C90
24A0
2EA0
F440
04A0
0518
ENDCHAR
STARTCHAR uni3762
ENCODING 14178
BBX 13 14 0 -2
BITMAP
0200
FFF8
8008
01E0
7E00
0200
3FE0
2220
3FE0
0200
7FF0
4290
5FD0
4030
ENDCHAR
STARTCHAR uni3763
ENCODING 14179
BBX 13 14 0 -2
BITMAP
0200
FFF8
8008
1000
7DF0
1090
7C90
1090
FD30
1200
FFF8
0500
18C0
E038
ENDCHAR
STARTCHAR uni3764
ENCODING 14180
BBX 13 14 0 -2
BITMAP
0200
FFF8
8888
7FF0
0880
3FE0
0880
FFF8
2220
3FE0
2220
FFF8
2020
20E0
ENDCHAR
STARTCHAR uni3765
ENCODING 14181
BBX 13 14 0 -2
BITMAP
0400
0200
FFF8
8008
4840
4950
78E0
0840
0BF8
F8E0
4950
4A48
4840
8840
ENDCHAR
STARTCHAR uni3766
ENCODING 14182
BBX 13 14 0 -2
BITMAP
0200
FFF8
9108
3FF0
6200
BFE0
2200
3FF0
0000
7FE0
0840
08F0
1010
6060
ENDCHAR
STARTCHAR uni3767
ENCODING 14183
BBX 13 14 0 -2
BITMAP
0200
FFF8
8408
7FF0
1040
0F80
F070
2220
5250
8A88
7FF0
0200
0200
FFF8
ENDCHAR
STARTCHAR uni3768
ENCODING 14184
BBX 13 14 0 -2
BITMAP
0400
0200
FFF8
8208
3FE0
0200
FFF8
0000
3FE0
2020
3FE0
0890
3A60
CC18
ENDCHAR
STARTCHAR uni3769
ENCODING 14185
BBX 13 14 0 -2
BITMAP
0200
FFF8
8008
0100
7FF8
4100
5FE0
4120
7FF8
4120
5FE0
4990
4560
8B18
ENDCHAR
STARTCHAR uni376A
ENCODING 14186
BBX 13 14 0 -2
BITMAP
0400
0200
FFF8
9008
7C80
11E0
FEA0
28A0
11A0
7CE0
10A0
FCA8
1118
1208
ENDCHAR
ENDFONT
